M48
; DRILL file {KiCad 5.1.5+dfsg1-2build2} date Fri 20 Aug 2021 21:12:24 BST
; FORMAT={-:-/ absolute / inch / decimal}
; #@! TF.CreationDate,2021-08-20T21:12:24+01:00
; #@! TF.GenerationSoftware,Kicad,Pcbnew,5.1.5+dfsg1-2build2
; #@! TF.FileFunction,Plated,1,2,PTH
FMAT,2
INCH
T1C0.0157
T2C0.0315
T3C0.0394
T4C0.0402
%
G90
G05
T1
X6.2244Y-4.6102
X6.3307Y-4.5315
X6.3593Y-4.4291
X6.3661Y-3.7717
X6.3898Y-3.1654
X6.3937Y-4.4685
X6.4016Y-4.3701
X6.437Y-3.2205
X6.4764Y-4.5669
X6.4803Y-3.2559
X6.5157Y-3.2913
X6.5157Y-4.6693
X6.5709Y-3.7638
X6.6535Y-4.7047
X6.6811Y-3.3346
X6.7008Y-4.5669
X6.748Y-2.7244
X6.7598Y-3.9764
X6.9409Y-4.3583
X6.9567Y-4.4252
X6.9843Y-4.7913
X6.9921Y-4.063
X7.0207Y-4.2894
X7.0207Y-4.3622
X7.0315Y-2.8937
X7.0472Y-4.1457
X7.063Y-3.4606
X7.0669Y-2.7874
X7.0768Y-3.8819
X7.0906Y-4.122
X7.1053Y-3.7717
X7.126Y-4.0
X7.1339Y-3.6654
X7.1378Y-3.9173
X7.1378Y-4.4567
X7.1496Y-4.0512
X7.1535Y-4.3858
X7.1644Y-3.5197
X7.1791Y-3.8046
X7.185Y-4.437
X7.1929Y-3.4173
X7.1929Y-3.7677
X7.1929Y-3.9016
X7.2319Y-3.4118
X7.2717Y-4.3217
X7.2756Y-3.4724
X7.311Y-4.0866
X7.315Y-4.3504
X7.3189Y-3.7177
X7.3307Y-3.5827
X7.3465Y-3.5157
X7.3465Y-4.2787
X7.3976Y-4.063
X7.4016Y-4.1732
X7.6102Y-4.2047
X7.6142Y-4.0709
X7.6181Y-3.8346
X7.6457Y-3.1024
X7.6654Y-3.6063
X7.6929Y-4.6417
X7.7047Y-4.1535
X7.7441Y-4.8189
X7.7809Y-3.1454
X7.9606Y-4.3071
X7.9724Y-3.8543
X8.0236Y-3.0394
X8.0433Y-3.2362
X8.0591Y-4.1575
X8.063Y-2.8858
X8.0669Y-4.0827
X8.0709Y-2.6969
X8.0984Y-4.3425
X8.1063Y-3.9177
X8.1339Y-4.3819
X8.1457Y-4.2008
X8.1535Y-4.4409
X8.1624Y-4.3071
X8.1772Y-3.5591
X8.1811Y-4.4961
X8.1978Y-4.3976
X8.2283Y-3.5079
X8.2323Y-3.6969
X8.2441Y-3.7913
X8.311Y-3.9094
X8.5197Y-3.0984
X8.5197Y-3.5906
X8.5236Y-4.0984
X8.5315Y-4.5866
X8.6339Y-4.7913
X8.6929Y-4.6969
X8.7874Y-4.5827
X8.8976Y-4.6457
X9.3701Y-2.8346
X9.3809Y-3.8622
X9.3809Y-4.1575
X9.4094Y-3.752
X9.4213Y-4.2992
X9.437Y-2.7008
X9.437Y-2.9055
X9.4488Y-3.6535
X9.4488Y-4.4134
X9.4539Y-4.7925
X9.4567Y-3.1772
X9.4567Y-3.3701
X9.4567Y-4.2047
X9.4685Y-3.0551
X9.5Y-2.7638
X9.5039Y-4.2559
X9.5079Y-4.8465
X9.5236Y-4.0748
X9.5472Y-4.8976
X9.5866Y-3.4213
X9.5866Y-3.6654
X9.6339Y-3.1693
X9.6339Y-4.6457
X9.6614Y-3.2451
X9.7008Y-2.8386
X9.7126Y-3.7283
X9.7126Y-3.9055
X9.7386Y-4.5921
X9.7559Y-4.4291
X9.7598Y-4.0039
X9.7992Y-4.3504
X9.8031Y-3.8465
X9.8071Y-3.4961
X9.8189Y-3.0512
X9.8398Y-3.0846
X9.8425Y-2.9331
X9.8583Y-4.6969
X9.8622Y-3.9596
X9.8661Y-3.6339
X9.8661Y-4.0591
X9.8868Y-4.3268
X10.0315Y-4.1063
X10.0315Y-4.4843
X10.0472Y-3.8071
X10.063Y-4.1575
X10.063Y-4.4016
X10.0915Y-4.3228
X10.0945Y-4.2087
X10.0948Y-4.3621
X10.1614Y-3.8465
X10.1654Y-4.0394
X10.1772Y-2.7165
T2
X6.2835Y-3.3701
X6.2835Y-3.4701
X6.2835Y-3.5701
X6.2835Y-3.6701
X6.2835Y-3.7701
X6.2835Y-3.8701
X6.2835Y-3.9701
X6.2835Y-4.0701
X6.2835Y-4.1701
X6.2835Y-4.2701
X6.2835Y-4.3701
X6.2835Y-4.4701
X6.2835Y-4.5701
X6.2835Y-4.6701
X6.8835Y-3.3701
X6.8835Y-3.4701
X6.8835Y-3.5701
X6.8835Y-3.6701
X6.8835Y-3.7701
X6.8835Y-3.8701
X6.8835Y-3.9701
X6.8835Y-4.0701
X6.8835Y-4.1701
X6.8835Y-4.2701
X6.8835Y-4.3701
X6.8835Y-4.4701
X6.8835Y-4.5701
X6.8835Y-4.6701
T3
X7.7189Y-2.7638
X7.8189Y-2.7638
X7.9189Y-2.7638
X9.6386Y-4.7874
X9.7386Y-4.7874
X9.8386Y-4.7874
X10.1063Y-3.0165
X10.1063Y-3.1165
X10.1063Y-3.2165
T4
X8.4453Y-2.8925
X8.4453Y-2.9925
X8.4453Y-3.0925
X8.4453Y-3.1925
X8.4453Y-3.2925
X8.4453Y-3.3925
X8.4453Y-3.4925
X8.4453Y-3.5925
X8.4453Y-3.6925
X8.4453Y-3.7925
X8.4453Y-3.8925
X8.4453Y-3.9925
X8.4453Y-4.0925
X8.4453Y-4.1925
X8.4453Y-4.2925
X8.4453Y-4.3925
X8.4453Y-4.4925
X8.4453Y-4.5925
X8.4453Y-4.6925
X8.4453Y-4.7925
X8.6953Y-4.7835
X8.7953Y-4.7835
X8.8953Y-4.7835
X9.1453Y-2.8925
X9.1453Y-2.9925
X9.1453Y-3.0925
X9.1453Y-3.1925
X9.1453Y-3.2925
X9.1453Y-3.3925
X9.1453Y-3.4925
X9.1453Y-3.5925
X9.1453Y-3.6925
X9.1453Y-3.7925
X9.1453Y-3.8925
X9.1453Y-3.9925
X9.1453Y-4.0925
X9.1453Y-4.1925
X9.1453Y-4.2925
X9.1453Y-4.3925
X9.1453Y-4.4925
X9.1453Y-4.5925
X9.1453Y-4.6925
X9.1453Y-4.7925
T0
M30
