G04 #@! TF.GenerationSoftware,KiCad,Pcbnew,5.1.5+dfsg1-2build2*
G04 #@! TF.CreationDate,2021-08-20T21:12:25+01:00*
G04 #@! TF.ProjectId,pico-rom-emulator-1,7069636f-2d72-46f6-9d2d-656d756c6174,rev?*
G04 #@! TF.SameCoordinates,Original*
G04 #@! TF.FileFunction,Legend,Top*
G04 #@! TF.FilePolarity,Positive*
%FSLAX46Y46*%
G04 Gerber Fmt 4.6, Leading zero omitted, Abs format (unit mm)*
G04 Created by KiCad (PCBNEW 5.1.5+dfsg1-2build2) date 2021-08-20 21:12:25*
%MOMM*%
%LPD*%
G04 APERTURE LIST*
%ADD10C,0.150000*%
%ADD11C,0.120000*%
G04 APERTURE END LIST*
D10*
X251247619Y-90866666D02*
X251723809Y-90866666D01*
X251152380Y-91152380D02*
X251485714Y-90152380D01*
X251819047Y-91152380D01*
X252152380Y-90771428D02*
X252914285Y-90771428D01*
X253390476Y-90485714D02*
X254152380Y-90771428D01*
X253390476Y-91057142D01*
X254961904Y-90628571D02*
X255104761Y-90676190D01*
X255152380Y-90723809D01*
X255200000Y-90819047D01*
X255200000Y-90961904D01*
X255152380Y-91057142D01*
X255104761Y-91104761D01*
X255009523Y-91152380D01*
X254628571Y-91152380D01*
X254628571Y-90152380D01*
X254961904Y-90152380D01*
X255057142Y-90200000D01*
X255104761Y-90247619D01*
X255152380Y-90342857D01*
X255152380Y-90438095D01*
X255104761Y-90533333D01*
X255057142Y-90580952D01*
X254961904Y-90628571D01*
X254628571Y-90628571D01*
X255914285Y-91533333D02*
X255866666Y-91485714D01*
X255771428Y-91342857D01*
X255723809Y-91247619D01*
X255676190Y-91104761D01*
X255628571Y-90866666D01*
X255628571Y-90676190D01*
X255676190Y-90438095D01*
X255723809Y-90295238D01*
X255771428Y-90200000D01*
X255866666Y-90057142D01*
X255914285Y-90009523D01*
X256295238Y-91152380D02*
X256295238Y-90152380D01*
X256533333Y-90152380D01*
X256676190Y-90200000D01*
X256771428Y-90295238D01*
X256819047Y-90390476D01*
X256866666Y-90580952D01*
X256866666Y-90723809D01*
X256819047Y-90914285D01*
X256771428Y-91009523D01*
X256676190Y-91104761D01*
X256533333Y-91152380D01*
X256295238Y-91152380D01*
X257247619Y-90866666D02*
X257723809Y-90866666D01*
X257152380Y-91152380D02*
X257485714Y-90152380D01*
X257819047Y-91152380D01*
X258009523Y-90152380D02*
X258580952Y-90152380D01*
X258295238Y-91152380D02*
X258295238Y-90152380D01*
X258819047Y-91533333D02*
X258866666Y-91485714D01*
X258961904Y-91342857D01*
X259009523Y-91247619D01*
X259057142Y-91104761D01*
X259104761Y-90866666D01*
X259104761Y-90676190D01*
X259057142Y-90438095D01*
X259009523Y-90295238D01*
X258961904Y-90200000D01*
X258866666Y-90057142D01*
X258819047Y-90009523D01*
X256238095Y-88600000D02*
X256142857Y-88552380D01*
X256000000Y-88552380D01*
X255857142Y-88600000D01*
X255761904Y-88695238D01*
X255714285Y-88790476D01*
X255666666Y-88980952D01*
X255666666Y-89123809D01*
X255714285Y-89314285D01*
X255761904Y-89409523D01*
X255857142Y-89504761D01*
X256000000Y-89552380D01*
X256095238Y-89552380D01*
X256238095Y-89504761D01*
X256285714Y-89457142D01*
X256285714Y-89123809D01*
X256095238Y-89123809D01*
X256714285Y-89552380D02*
X256714285Y-88552380D01*
X257285714Y-89552380D01*
X257285714Y-88552380D01*
X257761904Y-89552380D02*
X257761904Y-88552380D01*
X258000000Y-88552380D01*
X258142857Y-88600000D01*
X258238095Y-88695238D01*
X258285714Y-88790476D01*
X258333333Y-88980952D01*
X258333333Y-89123809D01*
X258285714Y-89314285D01*
X258238095Y-89409523D01*
X258142857Y-89504761D01*
X258000000Y-89552380D01*
X257761904Y-89552380D01*
X252238095Y-87952380D02*
X252238095Y-86952380D01*
X252476190Y-86952380D01*
X252619047Y-87000000D01*
X252714285Y-87095238D01*
X252761904Y-87190476D01*
X252809523Y-87380952D01*
X252809523Y-87523809D01*
X252761904Y-87714285D01*
X252714285Y-87809523D01*
X252619047Y-87904761D01*
X252476190Y-87952380D01*
X252238095Y-87952380D01*
X253238095Y-87952380D02*
X253238095Y-86952380D01*
X253476190Y-86952380D01*
X253619047Y-87000000D01*
X253714285Y-87095238D01*
X253761904Y-87190476D01*
X253809523Y-87380952D01*
X253809523Y-87523809D01*
X253761904Y-87714285D01*
X253714285Y-87809523D01*
X253619047Y-87904761D01*
X253476190Y-87952380D01*
X253238095Y-87952380D01*
X254238095Y-87952380D02*
X254238095Y-86952380D01*
X255285714Y-87952380D02*
X254952380Y-87476190D01*
X254714285Y-87952380D02*
X254714285Y-86952380D01*
X255095238Y-86952380D01*
X255190476Y-87000000D01*
X255238095Y-87047619D01*
X255285714Y-87142857D01*
X255285714Y-87285714D01*
X255238095Y-87380952D01*
X255190476Y-87428571D01*
X255095238Y-87476190D01*
X254714285Y-87476190D01*
X255476190Y-88047619D02*
X256238095Y-88047619D01*
X256428571Y-87666666D02*
X256904761Y-87666666D01*
X256333333Y-87952380D02*
X256666666Y-86952380D01*
X257000000Y-87952380D01*
X257857142Y-87952380D02*
X257285714Y-87952380D01*
X257571428Y-87952380D02*
X257571428Y-86952380D01*
X257476190Y-87095238D01*
X257380952Y-87190476D01*
X257285714Y-87238095D01*
X258761904Y-86952380D02*
X258285714Y-86952380D01*
X258238095Y-87428571D01*
X258285714Y-87380952D01*
X258380952Y-87333333D01*
X258619047Y-87333333D01*
X258714285Y-87380952D01*
X258761904Y-87428571D01*
X258809523Y-87523809D01*
X258809523Y-87761904D01*
X258761904Y-87857142D01*
X258714285Y-87904761D01*
X258619047Y-87952380D01*
X258380952Y-87952380D01*
X258285714Y-87904761D01*
X258238095Y-87857142D01*
X176780952Y-85185714D02*
X176780952Y-85852380D01*
X176780952Y-85280952D02*
X176828571Y-85233333D01*
X176923809Y-85185714D01*
X177066666Y-85185714D01*
X177161904Y-85233333D01*
X177209523Y-85328571D01*
X177209523Y-85852380D01*
X177685714Y-85757142D02*
X177733333Y-85804761D01*
X177685714Y-85852380D01*
X177638095Y-85804761D01*
X177685714Y-85757142D01*
X177685714Y-85852380D01*
X178590476Y-85804761D02*
X178495238Y-85852380D01*
X178304761Y-85852380D01*
X178209523Y-85804761D01*
X178161904Y-85757142D01*
X178114285Y-85661904D01*
X178114285Y-85376190D01*
X178161904Y-85280952D01*
X178209523Y-85233333D01*
X178304761Y-85185714D01*
X178495238Y-85185714D01*
X178590476Y-85233333D01*
X179019047Y-85757142D02*
X179066666Y-85804761D01*
X179019047Y-85852380D01*
X178971428Y-85804761D01*
X179019047Y-85757142D01*
X179019047Y-85852380D01*
X176709523Y-88266666D02*
X177185714Y-88266666D01*
X176614285Y-88552380D02*
X176947619Y-87552380D01*
X177280952Y-88552380D01*
X178138095Y-88552380D02*
X177566666Y-88552380D01*
X177852380Y-88552380D02*
X177852380Y-87552380D01*
X177757142Y-87695238D01*
X177661904Y-87790476D01*
X177566666Y-87838095D01*
X178995238Y-87885714D02*
X178995238Y-88552380D01*
X178757142Y-87504761D02*
X178519047Y-88219047D01*
X179138095Y-88219047D01*
X176709523Y-90866666D02*
X177185714Y-90866666D01*
X176614285Y-91152380D02*
X176947619Y-90152380D01*
X177280952Y-91152380D01*
X178138095Y-91152380D02*
X177566666Y-91152380D01*
X177852380Y-91152380D02*
X177852380Y-90152380D01*
X177757142Y-90295238D01*
X177661904Y-90390476D01*
X177566666Y-90438095D01*
X178471428Y-90152380D02*
X179090476Y-90152380D01*
X178757142Y-90533333D01*
X178900000Y-90533333D01*
X178995238Y-90580952D01*
X179042857Y-90628571D01*
X179090476Y-90723809D01*
X179090476Y-90961904D01*
X179042857Y-91057142D01*
X178995238Y-91104761D01*
X178900000Y-91152380D01*
X178614285Y-91152380D01*
X178519047Y-91104761D01*
X178471428Y-91057142D01*
X176785714Y-93366666D02*
X177261904Y-93366666D01*
X176690476Y-93652380D02*
X177023809Y-92652380D01*
X177357142Y-93652380D01*
X177833333Y-93080952D02*
X177738095Y-93033333D01*
X177690476Y-92985714D01*
X177642857Y-92890476D01*
X177642857Y-92842857D01*
X177690476Y-92747619D01*
X177738095Y-92700000D01*
X177833333Y-92652380D01*
X178023809Y-92652380D01*
X178119047Y-92700000D01*
X178166666Y-92747619D01*
X178214285Y-92842857D01*
X178214285Y-92890476D01*
X178166666Y-92985714D01*
X178119047Y-93033333D01*
X178023809Y-93080952D01*
X177833333Y-93080952D01*
X177738095Y-93128571D01*
X177690476Y-93176190D01*
X177642857Y-93271428D01*
X177642857Y-93461904D01*
X177690476Y-93557142D01*
X177738095Y-93604761D01*
X177833333Y-93652380D01*
X178023809Y-93652380D01*
X178119047Y-93604761D01*
X178166666Y-93557142D01*
X178214285Y-93461904D01*
X178214285Y-93271428D01*
X178166666Y-93176190D01*
X178119047Y-93128571D01*
X178023809Y-93080952D01*
X176685714Y-95866666D02*
X177161904Y-95866666D01*
X176590476Y-96152380D02*
X176923809Y-95152380D01*
X177257142Y-96152380D01*
X177638095Y-96152380D02*
X177828571Y-96152380D01*
X177923809Y-96104761D01*
X177971428Y-96057142D01*
X178066666Y-95914285D01*
X178114285Y-95723809D01*
X178114285Y-95342857D01*
X178066666Y-95247619D01*
X178019047Y-95200000D01*
X177923809Y-95152380D01*
X177733333Y-95152380D01*
X177638095Y-95200000D01*
X177590476Y-95247619D01*
X177542857Y-95342857D01*
X177542857Y-95580952D01*
X177590476Y-95676190D01*
X177638095Y-95723809D01*
X177733333Y-95771428D01*
X177923809Y-95771428D01*
X178019047Y-95723809D01*
X178066666Y-95676190D01*
X178114285Y-95580952D01*
X176609523Y-98466666D02*
X177085714Y-98466666D01*
X176514285Y-98752380D02*
X176847619Y-97752380D01*
X177180952Y-98752380D01*
X178038095Y-98752380D02*
X177466666Y-98752380D01*
X177752380Y-98752380D02*
X177752380Y-97752380D01*
X177657142Y-97895238D01*
X177561904Y-97990476D01*
X177466666Y-98038095D01*
X178990476Y-98752380D02*
X178419047Y-98752380D01*
X178704761Y-98752380D02*
X178704761Y-97752380D01*
X178609523Y-97895238D01*
X178514285Y-97990476D01*
X178419047Y-98038095D01*
X176952380Y-100452380D02*
X177142857Y-100452380D01*
X177238095Y-100500000D01*
X177333333Y-100595238D01*
X177380952Y-100785714D01*
X177380952Y-101119047D01*
X177333333Y-101309523D01*
X177238095Y-101404761D01*
X177142857Y-101452380D01*
X176952380Y-101452380D01*
X176857142Y-101404761D01*
X176761904Y-101309523D01*
X176714285Y-101119047D01*
X176714285Y-100785714D01*
X176761904Y-100595238D01*
X176857142Y-100500000D01*
X176952380Y-100452380D01*
X177809523Y-100928571D02*
X178142857Y-100928571D01*
X178285714Y-101452380D02*
X177809523Y-101452380D01*
X177809523Y-100452380D01*
X178285714Y-100452380D01*
X176809523Y-103566666D02*
X177285714Y-103566666D01*
X176714285Y-103852380D02*
X177047619Y-102852380D01*
X177380952Y-103852380D01*
X178238095Y-103852380D02*
X177666666Y-103852380D01*
X177952380Y-103852380D02*
X177952380Y-102852380D01*
X177857142Y-102995238D01*
X177761904Y-103090476D01*
X177666666Y-103138095D01*
X178857142Y-102852380D02*
X178952380Y-102852380D01*
X179047619Y-102900000D01*
X179095238Y-102947619D01*
X179142857Y-103042857D01*
X179190476Y-103233333D01*
X179190476Y-103471428D01*
X179142857Y-103661904D01*
X179095238Y-103757142D01*
X179047619Y-103804761D01*
X178952380Y-103852380D01*
X178857142Y-103852380D01*
X178761904Y-103804761D01*
X178714285Y-103757142D01*
X178666666Y-103661904D01*
X178619047Y-103471428D01*
X178619047Y-103233333D01*
X178666666Y-103042857D01*
X178714285Y-102947619D01*
X178761904Y-102900000D01*
X178857142Y-102852380D01*
X177257142Y-106257142D02*
X177209523Y-106304761D01*
X177066666Y-106352380D01*
X176971428Y-106352380D01*
X176828571Y-106304761D01*
X176733333Y-106209523D01*
X176685714Y-106114285D01*
X176638095Y-105923809D01*
X176638095Y-105780952D01*
X176685714Y-105590476D01*
X176733333Y-105495238D01*
X176828571Y-105400000D01*
X176971428Y-105352380D01*
X177066666Y-105352380D01*
X177209523Y-105400000D01*
X177257142Y-105447619D01*
X177685714Y-105828571D02*
X178019047Y-105828571D01*
X178161904Y-106352380D02*
X177685714Y-106352380D01*
X177685714Y-105352380D01*
X178161904Y-105352380D01*
X176561904Y-108952380D02*
X176561904Y-107952380D01*
X176800000Y-107952380D01*
X176942857Y-108000000D01*
X177038095Y-108095238D01*
X177085714Y-108190476D01*
X177133333Y-108380952D01*
X177133333Y-108523809D01*
X177085714Y-108714285D01*
X177038095Y-108809523D01*
X176942857Y-108904761D01*
X176800000Y-108952380D01*
X176561904Y-108952380D01*
X177466666Y-107952380D02*
X178133333Y-107952380D01*
X177704761Y-108952380D01*
X176561904Y-111552380D02*
X176561904Y-110552380D01*
X176800000Y-110552380D01*
X176942857Y-110600000D01*
X177038095Y-110695238D01*
X177085714Y-110790476D01*
X177133333Y-110980952D01*
X177133333Y-111123809D01*
X177085714Y-111314285D01*
X177038095Y-111409523D01*
X176942857Y-111504761D01*
X176800000Y-111552380D01*
X176561904Y-111552380D01*
X177990476Y-110552380D02*
X177800000Y-110552380D01*
X177704761Y-110600000D01*
X177657142Y-110647619D01*
X177561904Y-110790476D01*
X177514285Y-110980952D01*
X177514285Y-111361904D01*
X177561904Y-111457142D01*
X177609523Y-111504761D01*
X177704761Y-111552380D01*
X177895238Y-111552380D01*
X177990476Y-111504761D01*
X178038095Y-111457142D01*
X178085714Y-111361904D01*
X178085714Y-111123809D01*
X178038095Y-111028571D01*
X177990476Y-110980952D01*
X177895238Y-110933333D01*
X177704761Y-110933333D01*
X177609523Y-110980952D01*
X177561904Y-111028571D01*
X177514285Y-111123809D01*
X176461904Y-113952380D02*
X176461904Y-112952380D01*
X176700000Y-112952380D01*
X176842857Y-113000000D01*
X176938095Y-113095238D01*
X176985714Y-113190476D01*
X177033333Y-113380952D01*
X177033333Y-113523809D01*
X176985714Y-113714285D01*
X176938095Y-113809523D01*
X176842857Y-113904761D01*
X176700000Y-113952380D01*
X176461904Y-113952380D01*
X177938095Y-112952380D02*
X177461904Y-112952380D01*
X177414285Y-113428571D01*
X177461904Y-113380952D01*
X177557142Y-113333333D01*
X177795238Y-113333333D01*
X177890476Y-113380952D01*
X177938095Y-113428571D01*
X177985714Y-113523809D01*
X177985714Y-113761904D01*
X177938095Y-113857142D01*
X177890476Y-113904761D01*
X177795238Y-113952380D01*
X177557142Y-113952380D01*
X177461904Y-113904761D01*
X177414285Y-113857142D01*
X176661904Y-116552380D02*
X176661904Y-115552380D01*
X176900000Y-115552380D01*
X177042857Y-115600000D01*
X177138095Y-115695238D01*
X177185714Y-115790476D01*
X177233333Y-115980952D01*
X177233333Y-116123809D01*
X177185714Y-116314285D01*
X177138095Y-116409523D01*
X177042857Y-116504761D01*
X176900000Y-116552380D01*
X176661904Y-116552380D01*
X178090476Y-115885714D02*
X178090476Y-116552380D01*
X177852380Y-115504761D02*
X177614285Y-116219047D01*
X178233333Y-116219047D01*
X176561904Y-119152380D02*
X176561904Y-118152380D01*
X176800000Y-118152380D01*
X176942857Y-118200000D01*
X177038095Y-118295238D01*
X177085714Y-118390476D01*
X177133333Y-118580952D01*
X177133333Y-118723809D01*
X177085714Y-118914285D01*
X177038095Y-119009523D01*
X176942857Y-119104761D01*
X176800000Y-119152380D01*
X176561904Y-119152380D01*
X177466666Y-118152380D02*
X178085714Y-118152380D01*
X177752380Y-118533333D01*
X177895238Y-118533333D01*
X177990476Y-118580952D01*
X178038095Y-118628571D01*
X178085714Y-118723809D01*
X178085714Y-118961904D01*
X178038095Y-119057142D01*
X177990476Y-119104761D01*
X177895238Y-119152380D01*
X177609523Y-119152380D01*
X177514285Y-119104761D01*
X177466666Y-119057142D01*
X156438095Y-118200000D02*
X156342857Y-118152380D01*
X156200000Y-118152380D01*
X156057142Y-118200000D01*
X155961904Y-118295238D01*
X155914285Y-118390476D01*
X155866666Y-118580952D01*
X155866666Y-118723809D01*
X155914285Y-118914285D01*
X155961904Y-119009523D01*
X156057142Y-119104761D01*
X156200000Y-119152380D01*
X156295238Y-119152380D01*
X156438095Y-119104761D01*
X156485714Y-119057142D01*
X156485714Y-118723809D01*
X156295238Y-118723809D01*
X156914285Y-119152380D02*
X156914285Y-118152380D01*
X157485714Y-119152380D01*
X157485714Y-118152380D01*
X157961904Y-119152380D02*
X157961904Y-118152380D01*
X158200000Y-118152380D01*
X158342857Y-118200000D01*
X158438095Y-118295238D01*
X158485714Y-118390476D01*
X158533333Y-118580952D01*
X158533333Y-118723809D01*
X158485714Y-118914285D01*
X158438095Y-119009523D01*
X158342857Y-119104761D01*
X158200000Y-119152380D01*
X157961904Y-119152380D01*
X156661904Y-116652380D02*
X156661904Y-115652380D01*
X156900000Y-115652380D01*
X157042857Y-115700000D01*
X157138095Y-115795238D01*
X157185714Y-115890476D01*
X157233333Y-116080952D01*
X157233333Y-116223809D01*
X157185714Y-116414285D01*
X157138095Y-116509523D01*
X157042857Y-116604761D01*
X156900000Y-116652380D01*
X156661904Y-116652380D01*
X157614285Y-115747619D02*
X157661904Y-115700000D01*
X157757142Y-115652380D01*
X157995238Y-115652380D01*
X158090476Y-115700000D01*
X158138095Y-115747619D01*
X158185714Y-115842857D01*
X158185714Y-115938095D01*
X158138095Y-116080952D01*
X157566666Y-116652380D01*
X158185714Y-116652380D01*
X156661904Y-114152380D02*
X156661904Y-113152380D01*
X156900000Y-113152380D01*
X157042857Y-113200000D01*
X157138095Y-113295238D01*
X157185714Y-113390476D01*
X157233333Y-113580952D01*
X157233333Y-113723809D01*
X157185714Y-113914285D01*
X157138095Y-114009523D01*
X157042857Y-114104761D01*
X156900000Y-114152380D01*
X156661904Y-114152380D01*
X158185714Y-114152380D02*
X157614285Y-114152380D01*
X157900000Y-114152380D02*
X157900000Y-113152380D01*
X157804761Y-113295238D01*
X157709523Y-113390476D01*
X157614285Y-113438095D01*
X156661904Y-111452380D02*
X156661904Y-110452380D01*
X156900000Y-110452380D01*
X157042857Y-110500000D01*
X157138095Y-110595238D01*
X157185714Y-110690476D01*
X157233333Y-110880952D01*
X157233333Y-111023809D01*
X157185714Y-111214285D01*
X157138095Y-111309523D01*
X157042857Y-111404761D01*
X156900000Y-111452380D01*
X156661904Y-111452380D01*
X157852380Y-110452380D02*
X157947619Y-110452380D01*
X158042857Y-110500000D01*
X158090476Y-110547619D01*
X158138095Y-110642857D01*
X158185714Y-110833333D01*
X158185714Y-111071428D01*
X158138095Y-111261904D01*
X158090476Y-111357142D01*
X158042857Y-111404761D01*
X157947619Y-111452380D01*
X157852380Y-111452380D01*
X157757142Y-111404761D01*
X157709523Y-111357142D01*
X157661904Y-111261904D01*
X157614285Y-111071428D01*
X157614285Y-110833333D01*
X157661904Y-110642857D01*
X157709523Y-110547619D01*
X157757142Y-110500000D01*
X157852380Y-110452380D01*
X155909523Y-85866666D02*
X156385714Y-85866666D01*
X155814285Y-86152380D02*
X156147619Y-85152380D01*
X156480952Y-86152380D01*
X157338095Y-86152380D02*
X156766666Y-86152380D01*
X157052380Y-86152380D02*
X157052380Y-85152380D01*
X156957142Y-85295238D01*
X156861904Y-85390476D01*
X156766666Y-85438095D01*
X158242857Y-85152380D02*
X157766666Y-85152380D01*
X157719047Y-85628571D01*
X157766666Y-85580952D01*
X157861904Y-85533333D01*
X158100000Y-85533333D01*
X158195238Y-85580952D01*
X158242857Y-85628571D01*
X158290476Y-85723809D01*
X158290476Y-85961904D01*
X158242857Y-86057142D01*
X158195238Y-86104761D01*
X158100000Y-86152380D01*
X157861904Y-86152380D01*
X157766666Y-86104761D01*
X157719047Y-86057142D01*
X156009523Y-88266666D02*
X156485714Y-88266666D01*
X155914285Y-88552380D02*
X156247619Y-87552380D01*
X156580952Y-88552380D01*
X157438095Y-88552380D02*
X156866666Y-88552380D01*
X157152380Y-88552380D02*
X157152380Y-87552380D01*
X157057142Y-87695238D01*
X156961904Y-87790476D01*
X156866666Y-87838095D01*
X157819047Y-87647619D02*
X157866666Y-87600000D01*
X157961904Y-87552380D01*
X158200000Y-87552380D01*
X158295238Y-87600000D01*
X158342857Y-87647619D01*
X158390476Y-87742857D01*
X158390476Y-87838095D01*
X158342857Y-87980952D01*
X157771428Y-88552380D01*
X158390476Y-88552380D01*
X156485714Y-90866666D02*
X156961904Y-90866666D01*
X156390476Y-91152380D02*
X156723809Y-90152380D01*
X157057142Y-91152380D01*
X157295238Y-90152380D02*
X157961904Y-90152380D01*
X157533333Y-91152380D01*
X181185714Y-114822619D02*
X181233333Y-114775000D01*
X181328571Y-114727380D01*
X181566666Y-114727380D01*
X181661904Y-114775000D01*
X181709523Y-114822619D01*
X181757142Y-114917857D01*
X181757142Y-115013095D01*
X181709523Y-115155952D01*
X181138095Y-115727380D01*
X181757142Y-115727380D01*
X182090476Y-114727380D02*
X182757142Y-114727380D01*
X182328571Y-115727380D01*
X183661904Y-115727380D02*
X183090476Y-115727380D01*
X183376190Y-115727380D02*
X183376190Y-114727380D01*
X183280952Y-114870238D01*
X183185714Y-114965476D01*
X183090476Y-115013095D01*
X184519047Y-114727380D02*
X184328571Y-114727380D01*
X184233333Y-114775000D01*
X184185714Y-114822619D01*
X184090476Y-114965476D01*
X184042857Y-115155952D01*
X184042857Y-115536904D01*
X184090476Y-115632142D01*
X184138095Y-115679761D01*
X184233333Y-115727380D01*
X184423809Y-115727380D01*
X184519047Y-115679761D01*
X184566666Y-115632142D01*
X184614285Y-115536904D01*
X184614285Y-115298809D01*
X184566666Y-115203571D01*
X184519047Y-115155952D01*
X184423809Y-115108333D01*
X184233333Y-115108333D01*
X184138095Y-115155952D01*
X184090476Y-115203571D01*
X184042857Y-115298809D01*
X181185714Y-116472619D02*
X181233333Y-116425000D01*
X181328571Y-116377380D01*
X181566666Y-116377380D01*
X181661904Y-116425000D01*
X181709523Y-116472619D01*
X181757142Y-116567857D01*
X181757142Y-116663095D01*
X181709523Y-116805952D01*
X181138095Y-117377380D01*
X181757142Y-117377380D01*
X182090476Y-116377380D02*
X182757142Y-116377380D01*
X182328571Y-117377380D01*
X183042857Y-116377380D02*
X183661904Y-116377380D01*
X183328571Y-116758333D01*
X183471428Y-116758333D01*
X183566666Y-116805952D01*
X183614285Y-116853571D01*
X183661904Y-116948809D01*
X183661904Y-117186904D01*
X183614285Y-117282142D01*
X183566666Y-117329761D01*
X183471428Y-117377380D01*
X183185714Y-117377380D01*
X183090476Y-117329761D01*
X183042857Y-117282142D01*
X184042857Y-116472619D02*
X184090476Y-116425000D01*
X184185714Y-116377380D01*
X184423809Y-116377380D01*
X184519047Y-116425000D01*
X184566666Y-116472619D01*
X184614285Y-116567857D01*
X184614285Y-116663095D01*
X184566666Y-116805952D01*
X183995238Y-117377380D01*
X184614285Y-117377380D01*
X181185714Y-118122619D02*
X181233333Y-118075000D01*
X181328571Y-118027380D01*
X181566666Y-118027380D01*
X181661904Y-118075000D01*
X181709523Y-118122619D01*
X181757142Y-118217857D01*
X181757142Y-118313095D01*
X181709523Y-118455952D01*
X181138095Y-119027380D01*
X181757142Y-119027380D01*
X182090476Y-118027380D02*
X182757142Y-118027380D01*
X182328571Y-119027380D01*
X183566666Y-118027380D02*
X183376190Y-118027380D01*
X183280952Y-118075000D01*
X183233333Y-118122619D01*
X183138095Y-118265476D01*
X183090476Y-118455952D01*
X183090476Y-118836904D01*
X183138095Y-118932142D01*
X183185714Y-118979761D01*
X183280952Y-119027380D01*
X183471428Y-119027380D01*
X183566666Y-118979761D01*
X183614285Y-118932142D01*
X183661904Y-118836904D01*
X183661904Y-118598809D01*
X183614285Y-118503571D01*
X183566666Y-118455952D01*
X183471428Y-118408333D01*
X183280952Y-118408333D01*
X183185714Y-118455952D01*
X183138095Y-118503571D01*
X183090476Y-118598809D01*
X184519047Y-118360714D02*
X184519047Y-119027380D01*
X184280952Y-117979761D02*
X184042857Y-118694047D01*
X184661904Y-118694047D01*
X180709523Y-119772619D02*
X180757142Y-119725000D01*
X180852380Y-119677380D01*
X181090476Y-119677380D01*
X181185714Y-119725000D01*
X181233333Y-119772619D01*
X181280952Y-119867857D01*
X181280952Y-119963095D01*
X181233333Y-120105952D01*
X180661904Y-120677380D01*
X181280952Y-120677380D01*
X181614285Y-119677380D02*
X182280952Y-119677380D01*
X181852380Y-120677380D01*
X183185714Y-120677380D02*
X182614285Y-120677380D01*
X182900000Y-120677380D02*
X182900000Y-119677380D01*
X182804761Y-119820238D01*
X182709523Y-119915476D01*
X182614285Y-119963095D01*
X183566666Y-119772619D02*
X183614285Y-119725000D01*
X183709523Y-119677380D01*
X183947619Y-119677380D01*
X184042857Y-119725000D01*
X184090476Y-119772619D01*
X184138095Y-119867857D01*
X184138095Y-119963095D01*
X184090476Y-120105952D01*
X183519047Y-120677380D01*
X184138095Y-120677380D01*
X184709523Y-120105952D02*
X184614285Y-120058333D01*
X184566666Y-120010714D01*
X184519047Y-119915476D01*
X184519047Y-119867857D01*
X184566666Y-119772619D01*
X184614285Y-119725000D01*
X184709523Y-119677380D01*
X184900000Y-119677380D01*
X184995238Y-119725000D01*
X185042857Y-119772619D01*
X185090476Y-119867857D01*
X185090476Y-119915476D01*
X185042857Y-120010714D01*
X184995238Y-120058333D01*
X184900000Y-120105952D01*
X184709523Y-120105952D01*
X184614285Y-120153571D01*
X184566666Y-120201190D01*
X184519047Y-120296428D01*
X184519047Y-120486904D01*
X184566666Y-120582142D01*
X184614285Y-120629761D01*
X184709523Y-120677380D01*
X184900000Y-120677380D01*
X184995238Y-120629761D01*
X185042857Y-120582142D01*
X185090476Y-120486904D01*
X185090476Y-120296428D01*
X185042857Y-120201190D01*
X184995238Y-120153571D01*
X184900000Y-120105952D01*
X179947619Y-121422619D02*
X179995238Y-121375000D01*
X180090476Y-121327380D01*
X180328571Y-121327380D01*
X180423809Y-121375000D01*
X180471428Y-121422619D01*
X180519047Y-121517857D01*
X180519047Y-121613095D01*
X180471428Y-121755952D01*
X179900000Y-122327380D01*
X180519047Y-122327380D01*
X180852380Y-121327380D02*
X181519047Y-121327380D01*
X181090476Y-122327380D01*
X181852380Y-121422619D02*
X181900000Y-121375000D01*
X181995238Y-121327380D01*
X182233333Y-121327380D01*
X182328571Y-121375000D01*
X182376190Y-121422619D01*
X182423809Y-121517857D01*
X182423809Y-121613095D01*
X182376190Y-121755952D01*
X181804761Y-122327380D01*
X182423809Y-122327380D01*
X183328571Y-121327380D02*
X182852380Y-121327380D01*
X182804761Y-121803571D01*
X182852380Y-121755952D01*
X182947619Y-121708333D01*
X183185714Y-121708333D01*
X183280952Y-121755952D01*
X183328571Y-121803571D01*
X183376190Y-121898809D01*
X183376190Y-122136904D01*
X183328571Y-122232142D01*
X183280952Y-122279761D01*
X183185714Y-122327380D01*
X182947619Y-122327380D01*
X182852380Y-122279761D01*
X182804761Y-122232142D01*
X184233333Y-121327380D02*
X184042857Y-121327380D01*
X183947619Y-121375000D01*
X183900000Y-121422619D01*
X183804761Y-121565476D01*
X183757142Y-121755952D01*
X183757142Y-122136904D01*
X183804761Y-122232142D01*
X183852380Y-122279761D01*
X183947619Y-122327380D01*
X184138095Y-122327380D01*
X184233333Y-122279761D01*
X184280952Y-122232142D01*
X184328571Y-122136904D01*
X184328571Y-121898809D01*
X184280952Y-121803571D01*
X184233333Y-121755952D01*
X184138095Y-121708333D01*
X183947619Y-121708333D01*
X183852380Y-121755952D01*
X183804761Y-121803571D01*
X183757142Y-121898809D01*
X185661904Y-121327380D02*
X185661904Y-121565476D01*
X185423809Y-121470238D02*
X185661904Y-121565476D01*
X185900000Y-121470238D01*
X185519047Y-121755952D02*
X185661904Y-121565476D01*
X185804761Y-121755952D01*
X179947619Y-123072619D02*
X179995238Y-123025000D01*
X180090476Y-122977380D01*
X180328571Y-122977380D01*
X180423809Y-123025000D01*
X180471428Y-123072619D01*
X180519047Y-123167857D01*
X180519047Y-123263095D01*
X180471428Y-123405952D01*
X179900000Y-123977380D01*
X180519047Y-123977380D01*
X180852380Y-122977380D02*
X181519047Y-122977380D01*
X181090476Y-123977380D01*
X182376190Y-122977380D02*
X181900000Y-122977380D01*
X181852380Y-123453571D01*
X181900000Y-123405952D01*
X181995238Y-123358333D01*
X182233333Y-123358333D01*
X182328571Y-123405952D01*
X182376190Y-123453571D01*
X182423809Y-123548809D01*
X182423809Y-123786904D01*
X182376190Y-123882142D01*
X182328571Y-123929761D01*
X182233333Y-123977380D01*
X181995238Y-123977380D01*
X181900000Y-123929761D01*
X181852380Y-123882142D01*
X183376190Y-123977380D02*
X182804761Y-123977380D01*
X183090476Y-123977380D02*
X183090476Y-122977380D01*
X182995238Y-123120238D01*
X182900000Y-123215476D01*
X182804761Y-123263095D01*
X183757142Y-123072619D02*
X183804761Y-123025000D01*
X183900000Y-122977380D01*
X184138095Y-122977380D01*
X184233333Y-123025000D01*
X184280952Y-123072619D01*
X184328571Y-123167857D01*
X184328571Y-123263095D01*
X184280952Y-123405952D01*
X183709523Y-123977380D01*
X184328571Y-123977380D01*
X185661904Y-122977380D02*
X185661904Y-123215476D01*
X185423809Y-123120238D02*
X185661904Y-123215476D01*
X185900000Y-123120238D01*
X185519047Y-123405952D02*
X185661904Y-123215476D01*
X185804761Y-123405952D01*
X156485714Y-93466666D02*
X156961904Y-93466666D01*
X156390476Y-93752380D02*
X156723809Y-92752380D01*
X157057142Y-93752380D01*
X157819047Y-92752380D02*
X157628571Y-92752380D01*
X157533333Y-92800000D01*
X157485714Y-92847619D01*
X157390476Y-92990476D01*
X157342857Y-93180952D01*
X157342857Y-93561904D01*
X157390476Y-93657142D01*
X157438095Y-93704761D01*
X157533333Y-93752380D01*
X157723809Y-93752380D01*
X157819047Y-93704761D01*
X157866666Y-93657142D01*
X157914285Y-93561904D01*
X157914285Y-93323809D01*
X157866666Y-93228571D01*
X157819047Y-93180952D01*
X157723809Y-93133333D01*
X157533333Y-93133333D01*
X157438095Y-93180952D01*
X157390476Y-93228571D01*
X157342857Y-93323809D01*
X156685714Y-95966666D02*
X157161904Y-95966666D01*
X156590476Y-96252380D02*
X156923809Y-95252380D01*
X157257142Y-96252380D01*
X158066666Y-95252380D02*
X157590476Y-95252380D01*
X157542857Y-95728571D01*
X157590476Y-95680952D01*
X157685714Y-95633333D01*
X157923809Y-95633333D01*
X158019047Y-95680952D01*
X158066666Y-95728571D01*
X158114285Y-95823809D01*
X158114285Y-96061904D01*
X158066666Y-96157142D01*
X158019047Y-96204761D01*
X157923809Y-96252380D01*
X157685714Y-96252380D01*
X157590476Y-96204761D01*
X157542857Y-96157142D01*
X156785714Y-98566666D02*
X157261904Y-98566666D01*
X156690476Y-98852380D02*
X157023809Y-97852380D01*
X157357142Y-98852380D01*
X158119047Y-98185714D02*
X158119047Y-98852380D01*
X157880952Y-97804761D02*
X157642857Y-98519047D01*
X158261904Y-98519047D01*
X156685714Y-100966666D02*
X157161904Y-100966666D01*
X156590476Y-101252380D02*
X156923809Y-100252380D01*
X157257142Y-101252380D01*
X157495238Y-100252380D02*
X158114285Y-100252380D01*
X157780952Y-100633333D01*
X157923809Y-100633333D01*
X158019047Y-100680952D01*
X158066666Y-100728571D01*
X158114285Y-100823809D01*
X158114285Y-101061904D01*
X158066666Y-101157142D01*
X158019047Y-101204761D01*
X157923809Y-101252380D01*
X157638095Y-101252380D01*
X157542857Y-101204761D01*
X157495238Y-101157142D01*
X156585714Y-103566666D02*
X157061904Y-103566666D01*
X156490476Y-103852380D02*
X156823809Y-102852380D01*
X157157142Y-103852380D01*
X157442857Y-102947619D02*
X157490476Y-102900000D01*
X157585714Y-102852380D01*
X157823809Y-102852380D01*
X157919047Y-102900000D01*
X157966666Y-102947619D01*
X158014285Y-103042857D01*
X158014285Y-103138095D01*
X157966666Y-103280952D01*
X157395238Y-103852380D01*
X158014285Y-103852380D01*
X156685714Y-108566666D02*
X157161904Y-108566666D01*
X156590476Y-108852380D02*
X156923809Y-107852380D01*
X157257142Y-108852380D01*
X157780952Y-107852380D02*
X157876190Y-107852380D01*
X157971428Y-107900000D01*
X158019047Y-107947619D01*
X158066666Y-108042857D01*
X158114285Y-108233333D01*
X158114285Y-108471428D01*
X158066666Y-108661904D01*
X158019047Y-108757142D01*
X157971428Y-108804761D01*
X157876190Y-108852380D01*
X157780952Y-108852380D01*
X157685714Y-108804761D01*
X157638095Y-108757142D01*
X157590476Y-108661904D01*
X157542857Y-108471428D01*
X157542857Y-108233333D01*
X157590476Y-108042857D01*
X157638095Y-107947619D01*
X157685714Y-107900000D01*
X157780952Y-107852380D01*
X156585714Y-106066666D02*
X157061904Y-106066666D01*
X156490476Y-106352380D02*
X156823809Y-105352380D01*
X157157142Y-106352380D01*
X158014285Y-106352380D02*
X157442857Y-106352380D01*
X157728571Y-106352380D02*
X157728571Y-105352380D01*
X157633333Y-105495238D01*
X157538095Y-105590476D01*
X157442857Y-105638095D01*
X163033333Y-74102380D02*
X163033333Y-73102380D01*
X163414285Y-73102380D01*
X163509523Y-73150000D01*
X163557142Y-73197619D01*
X163604761Y-73292857D01*
X163604761Y-73435714D01*
X163557142Y-73530952D01*
X163509523Y-73578571D01*
X163414285Y-73626190D01*
X163033333Y-73626190D01*
X164033333Y-74102380D02*
X164033333Y-73102380D01*
X165080952Y-74007142D02*
X165033333Y-74054761D01*
X164890476Y-74102380D01*
X164795238Y-74102380D01*
X164652380Y-74054761D01*
X164557142Y-73959523D01*
X164509523Y-73864285D01*
X164461904Y-73673809D01*
X164461904Y-73530952D01*
X164509523Y-73340476D01*
X164557142Y-73245238D01*
X164652380Y-73150000D01*
X164795238Y-73102380D01*
X164890476Y-73102380D01*
X165033333Y-73150000D01*
X165080952Y-73197619D01*
X165700000Y-73102380D02*
X165890476Y-73102380D01*
X165985714Y-73150000D01*
X166080952Y-73245238D01*
X166128571Y-73435714D01*
X166128571Y-73769047D01*
X166080952Y-73959523D01*
X165985714Y-74054761D01*
X165890476Y-74102380D01*
X165700000Y-74102380D01*
X165604761Y-74054761D01*
X165509523Y-73959523D01*
X165461904Y-73769047D01*
X165461904Y-73435714D01*
X165509523Y-73245238D01*
X165604761Y-73150000D01*
X165700000Y-73102380D01*
X167890476Y-74102380D02*
X167557142Y-73626190D01*
X167319047Y-74102380D02*
X167319047Y-73102380D01*
X167700000Y-73102380D01*
X167795238Y-73150000D01*
X167842857Y-73197619D01*
X167890476Y-73292857D01*
X167890476Y-73435714D01*
X167842857Y-73530952D01*
X167795238Y-73578571D01*
X167700000Y-73626190D01*
X167319047Y-73626190D01*
X168509523Y-73102380D02*
X168700000Y-73102380D01*
X168795238Y-73150000D01*
X168890476Y-73245238D01*
X168938095Y-73435714D01*
X168938095Y-73769047D01*
X168890476Y-73959523D01*
X168795238Y-74054761D01*
X168700000Y-74102380D01*
X168509523Y-74102380D01*
X168414285Y-74054761D01*
X168319047Y-73959523D01*
X168271428Y-73769047D01*
X168271428Y-73435714D01*
X168319047Y-73245238D01*
X168414285Y-73150000D01*
X168509523Y-73102380D01*
X169366666Y-74102380D02*
X169366666Y-73102380D01*
X169700000Y-73816666D01*
X170033333Y-73102380D01*
X170033333Y-74102380D01*
X171271428Y-73578571D02*
X171604761Y-73578571D01*
X171747619Y-74102380D02*
X171271428Y-74102380D01*
X171271428Y-73102380D01*
X171747619Y-73102380D01*
X172176190Y-74102380D02*
X172176190Y-73102380D01*
X172509523Y-73816666D01*
X172842857Y-73102380D01*
X172842857Y-74102380D01*
X173319047Y-73102380D02*
X173319047Y-73911904D01*
X173366666Y-74007142D01*
X173414285Y-74054761D01*
X173509523Y-74102380D01*
X173700000Y-74102380D01*
X173795238Y-74054761D01*
X173842857Y-74007142D01*
X173890476Y-73911904D01*
X173890476Y-73102380D01*
X174842857Y-74102380D02*
X174366666Y-74102380D01*
X174366666Y-73102380D01*
X175128571Y-73816666D02*
X175604761Y-73816666D01*
X175033333Y-74102380D02*
X175366666Y-73102380D01*
X175700000Y-74102380D01*
X175890476Y-73102380D02*
X176461904Y-73102380D01*
X176176190Y-74102380D02*
X176176190Y-73102380D01*
X176985714Y-73102380D02*
X177176190Y-73102380D01*
X177271428Y-73150000D01*
X177366666Y-73245238D01*
X177414285Y-73435714D01*
X177414285Y-73769047D01*
X177366666Y-73959523D01*
X177271428Y-74054761D01*
X177176190Y-74102380D01*
X176985714Y-74102380D01*
X176890476Y-74054761D01*
X176795238Y-73959523D01*
X176747619Y-73769047D01*
X176747619Y-73435714D01*
X176795238Y-73245238D01*
X176890476Y-73150000D01*
X176985714Y-73102380D01*
X178414285Y-74102380D02*
X178080952Y-73626190D01*
X177842857Y-74102380D02*
X177842857Y-73102380D01*
X178223809Y-73102380D01*
X178319047Y-73150000D01*
X178366666Y-73197619D01*
X178414285Y-73292857D01*
X178414285Y-73435714D01*
X178366666Y-73530952D01*
X178319047Y-73578571D01*
X178223809Y-73626190D01*
X177842857Y-73626190D01*
X163104761Y-75752380D02*
X163104761Y-75085714D01*
X163104761Y-75180952D02*
X163152380Y-75133333D01*
X163247619Y-75085714D01*
X163390476Y-75085714D01*
X163485714Y-75133333D01*
X163533333Y-75228571D01*
X163533333Y-75752380D01*
X163533333Y-75228571D02*
X163580952Y-75133333D01*
X163676190Y-75085714D01*
X163819047Y-75085714D01*
X163914285Y-75133333D01*
X163961904Y-75228571D01*
X163961904Y-75752380D01*
X164819047Y-75704761D02*
X164723809Y-75752380D01*
X164533333Y-75752380D01*
X164438095Y-75704761D01*
X164390476Y-75609523D01*
X164390476Y-75228571D01*
X164438095Y-75133333D01*
X164533333Y-75085714D01*
X164723809Y-75085714D01*
X164819047Y-75133333D01*
X164866666Y-75228571D01*
X164866666Y-75323809D01*
X164390476Y-75419047D01*
X165295238Y-75085714D02*
X165295238Y-75752380D01*
X165295238Y-75180952D02*
X165342857Y-75133333D01*
X165438095Y-75085714D01*
X165580952Y-75085714D01*
X165676190Y-75133333D01*
X165723809Y-75228571D01*
X165723809Y-75752380D01*
X166628571Y-75752380D02*
X166628571Y-75228571D01*
X166580952Y-75133333D01*
X166485714Y-75085714D01*
X166295238Y-75085714D01*
X166200000Y-75133333D01*
X166628571Y-75704761D02*
X166533333Y-75752380D01*
X166295238Y-75752380D01*
X166200000Y-75704761D01*
X166152380Y-75609523D01*
X166152380Y-75514285D01*
X166200000Y-75419047D01*
X166295238Y-75371428D01*
X166533333Y-75371428D01*
X166628571Y-75323809D01*
X167533333Y-75752380D02*
X167533333Y-74752380D01*
X167533333Y-75704761D02*
X167438095Y-75752380D01*
X167247619Y-75752380D01*
X167152380Y-75704761D01*
X167104761Y-75657142D01*
X167057142Y-75561904D01*
X167057142Y-75276190D01*
X167104761Y-75180952D01*
X167152380Y-75133333D01*
X167247619Y-75085714D01*
X167438095Y-75085714D01*
X167533333Y-75133333D01*
X168438095Y-75085714D02*
X168438095Y-75752380D01*
X168009523Y-75085714D02*
X168009523Y-75609523D01*
X168057142Y-75704761D01*
X168152380Y-75752380D01*
X168295238Y-75752380D01*
X168390476Y-75704761D01*
X168438095Y-75657142D01*
X169295238Y-75704761D02*
X169200000Y-75752380D01*
X169009523Y-75752380D01*
X168914285Y-75704761D01*
X168866666Y-75609523D01*
X168866666Y-75228571D01*
X168914285Y-75133333D01*
X169009523Y-75085714D01*
X169200000Y-75085714D01*
X169295238Y-75133333D01*
X169342857Y-75228571D01*
X169342857Y-75323809D01*
X168866666Y-75419047D01*
X170390476Y-75276190D02*
X170342857Y-75228571D01*
X170247619Y-75180952D01*
X170152380Y-75180952D01*
X170057142Y-75228571D01*
X170009523Y-75276190D01*
X169961904Y-75371428D01*
X169961904Y-75466666D01*
X170009523Y-75561904D01*
X170057142Y-75609523D01*
X170152380Y-75657142D01*
X170247619Y-75657142D01*
X170342857Y-75609523D01*
X170390476Y-75561904D01*
X170390476Y-75180952D02*
X170390476Y-75561904D01*
X170438095Y-75609523D01*
X170485714Y-75609523D01*
X170580952Y-75561904D01*
X170628571Y-75466666D01*
X170628571Y-75228571D01*
X170533333Y-75085714D01*
X170390476Y-74990476D01*
X170200000Y-74942857D01*
X170009523Y-74990476D01*
X169866666Y-75085714D01*
X169771428Y-75228571D01*
X169723809Y-75419047D01*
X169771428Y-75609523D01*
X169866666Y-75752380D01*
X170009523Y-75847619D01*
X170200000Y-75895238D01*
X170390476Y-75847619D01*
X170533333Y-75752380D01*
X171485714Y-75085714D02*
X171485714Y-75895238D01*
X171438095Y-75990476D01*
X171390476Y-76038095D01*
X171295238Y-76085714D01*
X171152380Y-76085714D01*
X171057142Y-76038095D01*
X171485714Y-75704761D02*
X171390476Y-75752380D01*
X171200000Y-75752380D01*
X171104761Y-75704761D01*
X171057142Y-75657142D01*
X171009523Y-75561904D01*
X171009523Y-75276190D01*
X171057142Y-75180952D01*
X171104761Y-75133333D01*
X171200000Y-75085714D01*
X171390476Y-75085714D01*
X171485714Y-75133333D01*
X171961904Y-75752380D02*
X171961904Y-75085714D01*
X171961904Y-75180952D02*
X172009523Y-75133333D01*
X172104761Y-75085714D01*
X172247619Y-75085714D01*
X172342857Y-75133333D01*
X172390476Y-75228571D01*
X172390476Y-75752380D01*
X172390476Y-75228571D02*
X172438095Y-75133333D01*
X172533333Y-75085714D01*
X172676190Y-75085714D01*
X172771428Y-75133333D01*
X172819047Y-75228571D01*
X172819047Y-75752380D01*
X173723809Y-75752380D02*
X173723809Y-75228571D01*
X173676190Y-75133333D01*
X173580952Y-75085714D01*
X173390476Y-75085714D01*
X173295238Y-75133333D01*
X173723809Y-75704761D02*
X173628571Y-75752380D01*
X173390476Y-75752380D01*
X173295238Y-75704761D01*
X173247619Y-75609523D01*
X173247619Y-75514285D01*
X173295238Y-75419047D01*
X173390476Y-75371428D01*
X173628571Y-75371428D01*
X173723809Y-75323809D01*
X174200000Y-75752380D02*
X174200000Y-75085714D01*
X174200000Y-74752380D02*
X174152380Y-74800000D01*
X174200000Y-74847619D01*
X174247619Y-74800000D01*
X174200000Y-74752380D01*
X174200000Y-74847619D01*
X174819047Y-75752380D02*
X174723809Y-75704761D01*
X174676190Y-75609523D01*
X174676190Y-74752380D01*
X175200000Y-75657142D02*
X175247619Y-75704761D01*
X175200000Y-75752380D01*
X175152380Y-75704761D01*
X175200000Y-75657142D01*
X175200000Y-75752380D01*
X176104761Y-75704761D02*
X176009523Y-75752380D01*
X175819047Y-75752380D01*
X175723809Y-75704761D01*
X175676190Y-75657142D01*
X175628571Y-75561904D01*
X175628571Y-75276190D01*
X175676190Y-75180952D01*
X175723809Y-75133333D01*
X175819047Y-75085714D01*
X176009523Y-75085714D01*
X176104761Y-75133333D01*
X176676190Y-75752380D02*
X176580952Y-75704761D01*
X176533333Y-75657142D01*
X176485714Y-75561904D01*
X176485714Y-75276190D01*
X176533333Y-75180952D01*
X176580952Y-75133333D01*
X176676190Y-75085714D01*
X176819047Y-75085714D01*
X176914285Y-75133333D01*
X176961904Y-75180952D01*
X177009523Y-75276190D01*
X177009523Y-75561904D01*
X176961904Y-75657142D01*
X176914285Y-75704761D01*
X176819047Y-75752380D01*
X176676190Y-75752380D01*
X177438095Y-75752380D02*
X177438095Y-75085714D01*
X177438095Y-75180952D02*
X177485714Y-75133333D01*
X177580952Y-75085714D01*
X177723809Y-75085714D01*
X177819047Y-75133333D01*
X177866666Y-75228571D01*
X177866666Y-75752380D01*
X177866666Y-75228571D02*
X177914285Y-75133333D01*
X178009523Y-75085714D01*
X178152380Y-75085714D01*
X178247619Y-75133333D01*
X178295238Y-75228571D01*
X178295238Y-75752380D01*
X165700000Y-76830952D02*
X165604761Y-76783333D01*
X165557142Y-76735714D01*
X165509523Y-76640476D01*
X165509523Y-76592857D01*
X165557142Y-76497619D01*
X165604761Y-76450000D01*
X165700000Y-76402380D01*
X165890476Y-76402380D01*
X165985714Y-76450000D01*
X166033333Y-76497619D01*
X166080952Y-76592857D01*
X166080952Y-76640476D01*
X166033333Y-76735714D01*
X165985714Y-76783333D01*
X165890476Y-76830952D01*
X165700000Y-76830952D01*
X165604761Y-76878571D01*
X165557142Y-76926190D01*
X165509523Y-77021428D01*
X165509523Y-77211904D01*
X165557142Y-77307142D01*
X165604761Y-77354761D01*
X165700000Y-77402380D01*
X165890476Y-77402380D01*
X165985714Y-77354761D01*
X166033333Y-77307142D01*
X166080952Y-77211904D01*
X166080952Y-77021428D01*
X166033333Y-76926190D01*
X165985714Y-76878571D01*
X165890476Y-76830952D01*
X166509523Y-77021428D02*
X167271428Y-77021428D01*
X167700000Y-76497619D02*
X167747619Y-76450000D01*
X167842857Y-76402380D01*
X168080952Y-76402380D01*
X168176190Y-76450000D01*
X168223809Y-76497619D01*
X168271428Y-76592857D01*
X168271428Y-76688095D01*
X168223809Y-76830952D01*
X167652380Y-77402380D01*
X168271428Y-77402380D01*
X168890476Y-76402380D02*
X168985714Y-76402380D01*
X169080952Y-76450000D01*
X169128571Y-76497619D01*
X169176190Y-76592857D01*
X169223809Y-76783333D01*
X169223809Y-77021428D01*
X169176190Y-77211904D01*
X169128571Y-77307142D01*
X169080952Y-77354761D01*
X168985714Y-77402380D01*
X168890476Y-77402380D01*
X168795238Y-77354761D01*
X168747619Y-77307142D01*
X168700000Y-77211904D01*
X168652380Y-77021428D01*
X168652380Y-76783333D01*
X168700000Y-76592857D01*
X168747619Y-76497619D01*
X168795238Y-76450000D01*
X168890476Y-76402380D01*
X169604761Y-76497619D02*
X169652380Y-76450000D01*
X169747619Y-76402380D01*
X169985714Y-76402380D01*
X170080952Y-76450000D01*
X170128571Y-76497619D01*
X170176190Y-76592857D01*
X170176190Y-76688095D01*
X170128571Y-76830952D01*
X169557142Y-77402380D01*
X170176190Y-77402380D01*
X171128571Y-77402380D02*
X170557142Y-77402380D01*
X170842857Y-77402380D02*
X170842857Y-76402380D01*
X170747619Y-76545238D01*
X170652380Y-76640476D01*
X170557142Y-76688095D01*
X172938095Y-76402380D02*
X173271428Y-77402380D01*
X173604761Y-76402380D01*
X174461904Y-77402380D02*
X173890476Y-77402380D01*
X174176190Y-77402380D02*
X174176190Y-76402380D01*
X174080952Y-76545238D01*
X173985714Y-76640476D01*
X173890476Y-76688095D01*
X174890476Y-77307142D02*
X174938095Y-77354761D01*
X174890476Y-77402380D01*
X174842857Y-77354761D01*
X174890476Y-77307142D01*
X174890476Y-77402380D01*
X175557142Y-76402380D02*
X175652380Y-76402380D01*
X175747619Y-76450000D01*
X175795238Y-76497619D01*
X175842857Y-76592857D01*
X175890476Y-76783333D01*
X175890476Y-77021428D01*
X175842857Y-77211904D01*
X175795238Y-77307142D01*
X175747619Y-77354761D01*
X175652380Y-77402380D01*
X175557142Y-77402380D01*
X175461904Y-77354761D01*
X175414285Y-77307142D01*
X175366666Y-77211904D01*
X175319047Y-77021428D01*
X175319047Y-76783333D01*
X175366666Y-76592857D01*
X175414285Y-76497619D01*
X175461904Y-76450000D01*
X175557142Y-76402380D01*
X246900000Y-119261904D02*
X246852380Y-119357142D01*
X246852380Y-119500000D01*
X246900000Y-119642857D01*
X246995238Y-119738095D01*
X247090476Y-119785714D01*
X247280952Y-119833333D01*
X247423809Y-119833333D01*
X247614285Y-119785714D01*
X247709523Y-119738095D01*
X247804761Y-119642857D01*
X247852380Y-119500000D01*
X247852380Y-119404761D01*
X247804761Y-119261904D01*
X247757142Y-119214285D01*
X247423809Y-119214285D01*
X247423809Y-119404761D01*
X247852380Y-118785714D02*
X246852380Y-118785714D01*
X247852380Y-118214285D01*
X246852380Y-118214285D01*
X247852380Y-117738095D02*
X246852380Y-117738095D01*
X246852380Y-117500000D01*
X246900000Y-117357142D01*
X246995238Y-117261904D01*
X247090476Y-117214285D01*
X247280952Y-117166666D01*
X247423809Y-117166666D01*
X247614285Y-117214285D01*
X247709523Y-117261904D01*
X247804761Y-117357142D01*
X247852380Y-117500000D01*
X247852380Y-117738095D01*
X250404761Y-119861904D02*
X250452380Y-119719047D01*
X250452380Y-119480952D01*
X250404761Y-119385714D01*
X250357142Y-119338095D01*
X250261904Y-119290476D01*
X250166666Y-119290476D01*
X250071428Y-119338095D01*
X250023809Y-119385714D01*
X249976190Y-119480952D01*
X249928571Y-119671428D01*
X249880952Y-119766666D01*
X249833333Y-119814285D01*
X249738095Y-119861904D01*
X249642857Y-119861904D01*
X249547619Y-119814285D01*
X249500000Y-119766666D01*
X249452380Y-119671428D01*
X249452380Y-119433333D01*
X249500000Y-119290476D01*
X249452380Y-118957142D02*
X250452380Y-118719047D01*
X249738095Y-118528571D01*
X250452380Y-118338095D01*
X249452380Y-118100000D01*
X250452380Y-117719047D02*
X249452380Y-117719047D01*
X249452380Y-117480952D01*
X249500000Y-117338095D01*
X249595238Y-117242857D01*
X249690476Y-117195238D01*
X249880952Y-117147619D01*
X250023809Y-117147619D01*
X250214285Y-117195238D01*
X250309523Y-117242857D01*
X250404761Y-117338095D01*
X250452380Y-117480952D01*
X250452380Y-117719047D01*
X250357142Y-116147619D02*
X250404761Y-116195238D01*
X250452380Y-116338095D01*
X250452380Y-116433333D01*
X250404761Y-116576190D01*
X250309523Y-116671428D01*
X250214285Y-116719047D01*
X250023809Y-116766666D01*
X249880952Y-116766666D01*
X249690476Y-116719047D01*
X249595238Y-116671428D01*
X249500000Y-116576190D01*
X249452380Y-116433333D01*
X249452380Y-116338095D01*
X249500000Y-116195238D01*
X249547619Y-116147619D01*
X250452380Y-115242857D02*
X250452380Y-115719047D01*
X249452380Y-115719047D01*
X250452380Y-114909523D02*
X249452380Y-114909523D01*
X250452380Y-114338095D02*
X249880952Y-114766666D01*
X249452380Y-114338095D02*
X250023809Y-114909523D01*
X245204761Y-119819047D02*
X245252380Y-119676190D01*
X245252380Y-119438095D01*
X245204761Y-119342857D01*
X245157142Y-119295238D01*
X245061904Y-119247619D01*
X244966666Y-119247619D01*
X244871428Y-119295238D01*
X244823809Y-119342857D01*
X244776190Y-119438095D01*
X244728571Y-119628571D01*
X244680952Y-119723809D01*
X244633333Y-119771428D01*
X244538095Y-119819047D01*
X244442857Y-119819047D01*
X244347619Y-119771428D01*
X244300000Y-119723809D01*
X244252380Y-119628571D01*
X244252380Y-119390476D01*
X244300000Y-119247619D01*
X244252380Y-118914285D02*
X245252380Y-118676190D01*
X244538095Y-118485714D01*
X245252380Y-118295238D01*
X244252380Y-118057142D01*
X245252380Y-117676190D02*
X244252380Y-117676190D01*
X244252380Y-117438095D01*
X244300000Y-117295238D01*
X244395238Y-117200000D01*
X244490476Y-117152380D01*
X244680952Y-117104761D01*
X244823809Y-117104761D01*
X245014285Y-117152380D01*
X245109523Y-117200000D01*
X245204761Y-117295238D01*
X245252380Y-117438095D01*
X245252380Y-117676190D01*
X245252380Y-116676190D02*
X244252380Y-116676190D01*
X244252380Y-116009523D02*
X244252380Y-115819047D01*
X244300000Y-115723809D01*
X244395238Y-115628571D01*
X244585714Y-115580952D01*
X244919047Y-115580952D01*
X245109523Y-115628571D01*
X245204761Y-115723809D01*
X245252380Y-115819047D01*
X245252380Y-116009523D01*
X245204761Y-116104761D01*
X245109523Y-116200000D01*
X244919047Y-116247619D01*
X244585714Y-116247619D01*
X244395238Y-116200000D01*
X244300000Y-116104761D01*
X244252380Y-116009523D01*
X198242857Y-72557142D02*
X198195238Y-72509523D01*
X198147619Y-72366666D01*
X198147619Y-72271428D01*
X198195238Y-72128571D01*
X198290476Y-72033333D01*
X198385714Y-71985714D01*
X198576190Y-71938095D01*
X198719047Y-71938095D01*
X198909523Y-71985714D01*
X199004761Y-72033333D01*
X199100000Y-72128571D01*
X199147619Y-72271428D01*
X199147619Y-72366666D01*
X199100000Y-72509523D01*
X199052380Y-72557142D01*
X198671428Y-72985714D02*
X198671428Y-73319047D01*
X198147619Y-73461904D02*
X198147619Y-72985714D01*
X199147619Y-72985714D01*
X199147619Y-73461904D01*
X201271428Y-72138095D02*
X201271428Y-72471428D01*
X200747619Y-72614285D02*
X200747619Y-72138095D01*
X201747619Y-72138095D01*
X201747619Y-72614285D01*
X200747619Y-73042857D02*
X201747619Y-73042857D01*
X201033333Y-73376190D01*
X201747619Y-73709523D01*
X200747619Y-73709523D01*
X201747619Y-74376190D02*
X201747619Y-74566666D01*
X201700000Y-74661904D01*
X201604761Y-74757142D01*
X201414285Y-74804761D01*
X201080952Y-74804761D01*
X200890476Y-74757142D01*
X200795238Y-74661904D01*
X200747619Y-74566666D01*
X200747619Y-74376190D01*
X200795238Y-74280952D01*
X200890476Y-74185714D01*
X201080952Y-74138095D01*
X201414285Y-74138095D01*
X201604761Y-74185714D01*
X201700000Y-74280952D01*
X201747619Y-74376190D01*
X201271428Y-75233333D02*
X201271428Y-75566666D01*
X200747619Y-75709523D02*
X200747619Y-75233333D01*
X201747619Y-75233333D01*
X201747619Y-75709523D01*
X196071428Y-71976190D02*
X196071428Y-72309523D01*
X195547619Y-72452380D02*
X195547619Y-71976190D01*
X196547619Y-71976190D01*
X196547619Y-72452380D01*
X195547619Y-72880952D02*
X196547619Y-72880952D01*
X195833333Y-73214285D01*
X196547619Y-73547619D01*
X195547619Y-73547619D01*
X195833333Y-73976190D02*
X195833333Y-74452380D01*
X195547619Y-73880952D02*
X196547619Y-74214285D01*
X195547619Y-74547619D01*
X195547619Y-75404761D02*
X195547619Y-74833333D01*
X195547619Y-75119047D02*
X196547619Y-75119047D01*
X196404761Y-75023809D01*
X196309523Y-74928571D01*
X196261904Y-74833333D01*
X196214285Y-76261904D02*
X195547619Y-76261904D01*
X196595238Y-76023809D02*
X195880952Y-75785714D01*
X195880952Y-76404761D01*
X195452380Y-76547619D02*
X195452380Y-77309523D01*
X196547619Y-77738095D02*
X196547619Y-77928571D01*
X196500000Y-78023809D01*
X196404761Y-78119047D01*
X196214285Y-78166666D01*
X195880952Y-78166666D01*
X195690476Y-78119047D01*
X195595238Y-78023809D01*
X195547619Y-77928571D01*
X195547619Y-77738095D01*
X195595238Y-77642857D01*
X195690476Y-77547619D01*
X195880952Y-77500000D01*
X196214285Y-77500000D01*
X196404761Y-77547619D01*
X196500000Y-77642857D01*
X196547619Y-77738095D01*
X196071428Y-78595238D02*
X196071428Y-78928571D01*
X195547619Y-79071428D02*
X195547619Y-78595238D01*
X196547619Y-78595238D01*
X196547619Y-79071428D01*
D11*
X258030000Y-83030000D02*
X256700000Y-83030000D01*
X258030000Y-81700000D02*
X258030000Y-83030000D01*
X258030000Y-80430000D02*
X255370000Y-80430000D01*
X255370000Y-80430000D02*
X255370000Y-75290000D01*
X258030000Y-80430000D02*
X258030000Y-75290000D01*
X258030000Y-75290000D02*
X255370000Y-75290000D01*
X251230000Y-120270000D02*
X251230000Y-121600000D01*
X249900000Y-120270000D02*
X251230000Y-120270000D01*
X248630000Y-120270000D02*
X248630000Y-122930000D01*
X248630000Y-122930000D02*
X243490000Y-122930000D01*
X248630000Y-120270000D02*
X243490000Y-120270000D01*
X243490000Y-120270000D02*
X243490000Y-122930000D01*
X212900000Y-72100000D02*
X233900000Y-72100000D01*
X219700000Y-123100000D02*
X212900000Y-123100000D01*
X212900000Y-74767000D02*
X215907000Y-74767000D01*
X215907000Y-74767000D02*
X215907000Y-72100000D01*
X212900000Y-72100000D02*
X212900000Y-72400000D01*
X212900000Y-74500000D02*
X212900000Y-74900000D01*
X212900000Y-77100000D02*
X212900000Y-77500000D01*
X212900000Y-79600000D02*
X212900000Y-80000000D01*
X212900000Y-82200000D02*
X212900000Y-82600000D01*
X212900000Y-84700000D02*
X212900000Y-85100000D01*
X212900000Y-87200000D02*
X212900000Y-87600000D01*
X212900000Y-89800000D02*
X212900000Y-90200000D01*
X212900000Y-92300000D02*
X212900000Y-92700000D01*
X212900000Y-94900000D02*
X212900000Y-95300000D01*
X212900000Y-97400000D02*
X212900000Y-97800000D01*
X212900000Y-99900000D02*
X212900000Y-100300000D01*
X212900000Y-102500000D02*
X212900000Y-102900000D01*
X212900000Y-105000000D02*
X212900000Y-105400000D01*
X212900000Y-107600000D02*
X212900000Y-108000000D01*
X212900000Y-110100000D02*
X212900000Y-110500000D01*
X212900000Y-112700000D02*
X212900000Y-113100000D01*
X212900000Y-115200000D02*
X212900000Y-115600000D01*
X212900000Y-117700000D02*
X212900000Y-118100000D01*
X212900000Y-120300000D02*
X212900000Y-120700000D01*
X233900000Y-87200000D02*
X233900000Y-87600000D01*
X233900000Y-92300000D02*
X233900000Y-92700000D01*
X233900000Y-99900000D02*
X233900000Y-100300000D01*
X233900000Y-107600000D02*
X233900000Y-108000000D01*
X233900000Y-77100000D02*
X233900000Y-77500000D01*
X233900000Y-74500000D02*
X233900000Y-74900000D01*
X233900000Y-82200000D02*
X233900000Y-82600000D01*
X233900000Y-115200000D02*
X233900000Y-115600000D01*
X233900000Y-120300000D02*
X233900000Y-120700000D01*
X233900000Y-117700000D02*
X233900000Y-118100000D01*
X233900000Y-102500000D02*
X233900000Y-102900000D01*
X233900000Y-97400000D02*
X233900000Y-97800000D01*
X233900000Y-84700000D02*
X233900000Y-85100000D01*
X233900000Y-89800000D02*
X233900000Y-90200000D01*
X233900000Y-110100000D02*
X233900000Y-110500000D01*
X233900000Y-94900000D02*
X233900000Y-95300000D01*
X233900000Y-72100000D02*
X233900000Y-72400000D01*
X233900000Y-79600000D02*
X233900000Y-80000000D01*
X233900000Y-105000000D02*
X233900000Y-105400000D01*
X233900000Y-112700000D02*
X233900000Y-113100000D01*
X233900000Y-123100000D02*
X227100000Y-123100000D01*
X221900000Y-123100000D02*
X222300000Y-123100000D01*
X224500000Y-123100000D02*
X224900000Y-123100000D01*
X190640000Y-106125000D02*
X188825000Y-106125000D01*
X190640000Y-105890000D02*
X190640000Y-106125000D01*
X194500000Y-105890000D02*
X190640000Y-105890000D01*
X198360000Y-105890000D02*
X198360000Y-106125000D01*
X194500000Y-105890000D02*
X198360000Y-105890000D01*
X190640000Y-118910000D02*
X190640000Y-118675000D01*
X194500000Y-118910000D02*
X190640000Y-118910000D01*
X198360000Y-118910000D02*
X198360000Y-118675000D01*
X194500000Y-118910000D02*
X198360000Y-118910000D01*
X190740000Y-78325000D02*
X188925000Y-78325000D01*
X190740000Y-78090000D02*
X190740000Y-78325000D01*
X194600000Y-78090000D02*
X190740000Y-78090000D01*
X198460000Y-78090000D02*
X198460000Y-78325000D01*
X194600000Y-78090000D02*
X198460000Y-78090000D01*
X190740000Y-91110000D02*
X190740000Y-90875000D01*
X194600000Y-91110000D02*
X190740000Y-91110000D01*
X198460000Y-91110000D02*
X198460000Y-90875000D01*
X194600000Y-91110000D02*
X198460000Y-91110000D01*
X173680000Y-84270000D02*
X168220000Y-84270000D01*
X173680000Y-119950000D02*
X173680000Y-84270000D01*
X160760000Y-119950000D02*
X173680000Y-119950000D01*
X160760000Y-84270000D02*
X160760000Y-119950000D01*
X166220000Y-84270000D02*
X160760000Y-84270000D01*
X168220000Y-84270000D02*
G75*
G02X166220000Y-84270000I-1000000J0D01*
G01*
X244240000Y-98625000D02*
X242425000Y-98625000D01*
X244240000Y-98390000D02*
X244240000Y-98625000D01*
X248100000Y-98390000D02*
X244240000Y-98390000D01*
X251960000Y-98390000D02*
X251960000Y-98625000D01*
X248100000Y-98390000D02*
X251960000Y-98390000D01*
X244240000Y-111410000D02*
X244240000Y-111175000D01*
X248100000Y-111410000D02*
X244240000Y-111410000D01*
X251960000Y-111410000D02*
X251960000Y-111175000D01*
X248100000Y-111410000D02*
X251960000Y-111410000D01*
X243340000Y-73425000D02*
X241525000Y-73425000D01*
X243340000Y-73190000D02*
X243340000Y-73425000D01*
X247200000Y-73190000D02*
X243340000Y-73190000D01*
X251060000Y-73190000D02*
X251060000Y-73425000D01*
X247200000Y-73190000D02*
X251060000Y-73190000D01*
X243340000Y-86210000D02*
X243340000Y-85975000D01*
X247200000Y-86210000D02*
X243340000Y-86210000D01*
X251060000Y-86210000D02*
X251060000Y-85975000D01*
X247200000Y-86210000D02*
X251060000Y-86210000D01*
X203310000Y-106961252D02*
X203310000Y-106438748D01*
X201890000Y-106961252D02*
X201890000Y-106438748D01*
X191161252Y-102690000D02*
X190638748Y-102690000D01*
X191161252Y-104110000D02*
X190638748Y-104110000D01*
X255990000Y-101563748D02*
X255990000Y-102086252D01*
X257410000Y-101563748D02*
X257410000Y-102086252D01*
X246961252Y-69790000D02*
X246438748Y-69790000D01*
X246961252Y-71210000D02*
X246438748Y-71210000D01*
X242790000Y-95438748D02*
X242790000Y-95961252D01*
X244210000Y-95438748D02*
X244210000Y-95961252D01*
X202470000Y-68870000D02*
X202470000Y-70200000D01*
X201140000Y-68870000D02*
X202470000Y-68870000D01*
X199870000Y-68870000D02*
X199870000Y-71530000D01*
X199870000Y-71530000D02*
X194730000Y-71530000D01*
X199870000Y-68870000D02*
X194730000Y-68870000D01*
X194730000Y-68870000D02*
X194730000Y-71530000D01*
D10*
X256366666Y-83482380D02*
X256366666Y-84196666D01*
X256319047Y-84339523D01*
X256223809Y-84434761D01*
X256080952Y-84482380D01*
X255985714Y-84482380D01*
X256747619Y-83482380D02*
X257366666Y-83482380D01*
X257033333Y-83863333D01*
X257176190Y-83863333D01*
X257271428Y-83910952D01*
X257319047Y-83958571D01*
X257366666Y-84053809D01*
X257366666Y-84291904D01*
X257319047Y-84387142D01*
X257271428Y-84434761D01*
X257176190Y-84482380D01*
X256890476Y-84482380D01*
X256795238Y-84434761D01*
X256747619Y-84387142D01*
X251682380Y-121933333D02*
X252396666Y-121933333D01*
X252539523Y-121980952D01*
X252634761Y-122076190D01*
X252682380Y-122219047D01*
X252682380Y-122314285D01*
X251777619Y-121504761D02*
X251730000Y-121457142D01*
X251682380Y-121361904D01*
X251682380Y-121123809D01*
X251730000Y-121028571D01*
X251777619Y-120980952D01*
X251872857Y-120933333D01*
X251968095Y-120933333D01*
X252110952Y-120980952D01*
X252682380Y-121552380D01*
X252682380Y-120933333D01*
X222638095Y-97052380D02*
X222638095Y-97861904D01*
X222685714Y-97957142D01*
X222733333Y-98004761D01*
X222828571Y-98052380D01*
X223019047Y-98052380D01*
X223114285Y-98004761D01*
X223161904Y-97957142D01*
X223209523Y-97861904D01*
X223209523Y-97052380D01*
X224114285Y-97052380D02*
X223923809Y-97052380D01*
X223828571Y-97100000D01*
X223780952Y-97147619D01*
X223685714Y-97290476D01*
X223638095Y-97480952D01*
X223638095Y-97861904D01*
X223685714Y-97957142D01*
X223733333Y-98004761D01*
X223828571Y-98052380D01*
X224019047Y-98052380D01*
X224114285Y-98004761D01*
X224161904Y-97957142D01*
X224209523Y-97861904D01*
X224209523Y-97623809D01*
X224161904Y-97528571D01*
X224114285Y-97480952D01*
X224019047Y-97433333D01*
X223828571Y-97433333D01*
X223733333Y-97480952D01*
X223685714Y-97528571D01*
X223638095Y-97623809D01*
X227304761Y-124123809D02*
X227419047Y-124161904D01*
X227609523Y-124161904D01*
X227685714Y-124123809D01*
X227723809Y-124085714D01*
X227761904Y-124009523D01*
X227761904Y-123933333D01*
X227723809Y-123857142D01*
X227685714Y-123819047D01*
X227609523Y-123780952D01*
X227457142Y-123742857D01*
X227380952Y-123704761D01*
X227342857Y-123666666D01*
X227304761Y-123590476D01*
X227304761Y-123514285D01*
X227342857Y-123438095D01*
X227380952Y-123400000D01*
X227457142Y-123361904D01*
X227647619Y-123361904D01*
X227761904Y-123400000D01*
X228028571Y-123361904D02*
X228219047Y-124161904D01*
X228371428Y-123590476D01*
X228523809Y-124161904D01*
X228714285Y-123361904D01*
X229019047Y-124161904D02*
X229019047Y-123361904D01*
X229209523Y-123361904D01*
X229323809Y-123400000D01*
X229400000Y-123476190D01*
X229438095Y-123552380D01*
X229476190Y-123704761D01*
X229476190Y-123819047D01*
X229438095Y-123971428D01*
X229400000Y-124047619D01*
X229323809Y-124123809D01*
X229209523Y-124161904D01*
X229019047Y-124161904D01*
X229819047Y-124161904D02*
X229819047Y-123361904D01*
X230352380Y-123361904D02*
X230504761Y-123361904D01*
X230580952Y-123400000D01*
X230657142Y-123476190D01*
X230695238Y-123628571D01*
X230695238Y-123895238D01*
X230657142Y-124047619D01*
X230580952Y-124123809D01*
X230504761Y-124161904D01*
X230352380Y-124161904D01*
X230276190Y-124123809D01*
X230200000Y-124047619D01*
X230161904Y-123895238D01*
X230161904Y-123628571D01*
X230200000Y-123476190D01*
X230276190Y-123400000D01*
X230352380Y-123361904D01*
X215890476Y-124123809D02*
X216004761Y-124161904D01*
X216195238Y-124161904D01*
X216271428Y-124123809D01*
X216309523Y-124085714D01*
X216347619Y-124009523D01*
X216347619Y-123933333D01*
X216309523Y-123857142D01*
X216271428Y-123819047D01*
X216195238Y-123780952D01*
X216042857Y-123742857D01*
X215966666Y-123704761D01*
X215928571Y-123666666D01*
X215890476Y-123590476D01*
X215890476Y-123514285D01*
X215928571Y-123438095D01*
X215966666Y-123400000D01*
X216042857Y-123361904D01*
X216233333Y-123361904D01*
X216347619Y-123400000D01*
X216614285Y-123361904D02*
X216804761Y-124161904D01*
X216957142Y-123590476D01*
X217109523Y-124161904D01*
X217300000Y-123361904D01*
X218061904Y-124085714D02*
X218023809Y-124123809D01*
X217909523Y-124161904D01*
X217833333Y-124161904D01*
X217719047Y-124123809D01*
X217642857Y-124047619D01*
X217604761Y-123971428D01*
X217566666Y-123819047D01*
X217566666Y-123704761D01*
X217604761Y-123552380D01*
X217642857Y-123476190D01*
X217719047Y-123400000D01*
X217833333Y-123361904D01*
X217909523Y-123361904D01*
X218023809Y-123400000D01*
X218061904Y-123438095D01*
X218785714Y-124161904D02*
X218404761Y-124161904D01*
X218404761Y-123361904D01*
X219052380Y-124161904D02*
X219052380Y-123361904D01*
X219509523Y-124161904D02*
X219166666Y-123704761D01*
X219509523Y-123361904D02*
X219052380Y-123819047D01*
X235551597Y-92340964D02*
X235820971Y-92071590D01*
X235659346Y-92556463D02*
X235282223Y-91802216D01*
X236036470Y-92179340D01*
X235982595Y-91155719D02*
X235901783Y-91182656D01*
X235820971Y-91263468D01*
X235767096Y-91371218D01*
X235767096Y-91478967D01*
X235794033Y-91559780D01*
X235874845Y-91694467D01*
X235955658Y-91775279D01*
X236090345Y-91856091D01*
X236171157Y-91883028D01*
X236278906Y-91883028D01*
X236386656Y-91829154D01*
X236440531Y-91775279D01*
X236494406Y-91667529D01*
X236494406Y-91613654D01*
X236305844Y-91425093D01*
X236198094Y-91532842D01*
X236790717Y-91425093D02*
X236225032Y-90859407D01*
X237113966Y-91101844D01*
X236548280Y-90536158D01*
X237383340Y-90832470D02*
X236817654Y-90266784D01*
X236952341Y-90132097D01*
X237060091Y-90078223D01*
X237167841Y-90078223D01*
X237248653Y-90105160D01*
X237383340Y-90185972D01*
X237464152Y-90266784D01*
X237544964Y-90401471D01*
X237571902Y-90482284D01*
X237571902Y-90590033D01*
X237518027Y-90697783D01*
X237383340Y-90832470D01*
X235486158Y-78698155D02*
X235405346Y-78725093D01*
X235324534Y-78805905D01*
X235270659Y-78913654D01*
X235270659Y-79021404D01*
X235297597Y-79102216D01*
X235378409Y-79236903D01*
X235459221Y-79317715D01*
X235593908Y-79398528D01*
X235674720Y-79425465D01*
X235782470Y-79425465D01*
X235890219Y-79371590D01*
X235944094Y-79317715D01*
X235997969Y-79209966D01*
X235997969Y-79156091D01*
X235809407Y-78967529D01*
X235701658Y-79075279D01*
X236294280Y-78967529D02*
X235728595Y-78401844D01*
X236617529Y-78644280D01*
X236051844Y-78078595D01*
X236886903Y-78374906D02*
X236321218Y-77809221D01*
X236455905Y-77674534D01*
X236563654Y-77620659D01*
X236671404Y-77620659D01*
X236752216Y-77647597D01*
X236886903Y-77728409D01*
X236967715Y-77809221D01*
X237048528Y-77943908D01*
X237075465Y-78024720D01*
X237075465Y-78132470D01*
X237021590Y-78240219D01*
X236886903Y-78374906D01*
X235486158Y-104098155D02*
X235405346Y-104125093D01*
X235324534Y-104205905D01*
X235270659Y-104313654D01*
X235270659Y-104421404D01*
X235297597Y-104502216D01*
X235378409Y-104636903D01*
X235459221Y-104717715D01*
X235593908Y-104798528D01*
X235674720Y-104825465D01*
X235782470Y-104825465D01*
X235890219Y-104771590D01*
X235944094Y-104717715D01*
X235997969Y-104609966D01*
X235997969Y-104556091D01*
X235809407Y-104367529D01*
X235701658Y-104475279D01*
X236294280Y-104367529D02*
X235728595Y-103801844D01*
X236617529Y-104044280D01*
X236051844Y-103478595D01*
X236886903Y-103774906D02*
X236321218Y-103209221D01*
X236455905Y-103074534D01*
X236563654Y-103020659D01*
X236671404Y-103020659D01*
X236752216Y-103047597D01*
X236886903Y-103128409D01*
X236967715Y-103209221D01*
X237048528Y-103343908D01*
X237075465Y-103424720D01*
X237075465Y-103532470D01*
X237021590Y-103640219D01*
X236886903Y-103774906D01*
X235486158Y-116798155D02*
X235405346Y-116825093D01*
X235324534Y-116905905D01*
X235270659Y-117013654D01*
X235270659Y-117121404D01*
X235297597Y-117202216D01*
X235378409Y-117336903D01*
X235459221Y-117417715D01*
X235593908Y-117498528D01*
X235674720Y-117525465D01*
X235782470Y-117525465D01*
X235890219Y-117471590D01*
X235944094Y-117417715D01*
X235997969Y-117309966D01*
X235997969Y-117256091D01*
X235809407Y-117067529D01*
X235701658Y-117175279D01*
X236294280Y-117067529D02*
X235728595Y-116501844D01*
X236617529Y-116744280D01*
X236051844Y-116178595D01*
X236886903Y-116474906D02*
X236321218Y-115909221D01*
X236455905Y-115774534D01*
X236563654Y-115720659D01*
X236671404Y-115720659D01*
X236752216Y-115747597D01*
X236886903Y-115828409D01*
X236967715Y-115909221D01*
X237048528Y-116043908D01*
X237075465Y-116124720D01*
X237075465Y-116232470D01*
X237021590Y-116340219D01*
X236886903Y-116474906D01*
X209886158Y-116798155D02*
X209805346Y-116825093D01*
X209724534Y-116905905D01*
X209670659Y-117013654D01*
X209670659Y-117121404D01*
X209697597Y-117202216D01*
X209778409Y-117336903D01*
X209859221Y-117417715D01*
X209993908Y-117498528D01*
X210074720Y-117525465D01*
X210182470Y-117525465D01*
X210290219Y-117471590D01*
X210344094Y-117417715D01*
X210397969Y-117309966D01*
X210397969Y-117256091D01*
X210209407Y-117067529D01*
X210101658Y-117175279D01*
X210694280Y-117067529D02*
X210128595Y-116501844D01*
X211017529Y-116744280D01*
X210451844Y-116178595D01*
X211286903Y-116474906D02*
X210721218Y-115909221D01*
X210855905Y-115774534D01*
X210963654Y-115720659D01*
X211071404Y-115720659D01*
X211152216Y-115747597D01*
X211286903Y-115828409D01*
X211367715Y-115909221D01*
X211448528Y-116043908D01*
X211475465Y-116124720D01*
X211475465Y-116232470D01*
X211421590Y-116340219D01*
X211286903Y-116474906D01*
X209886158Y-104098155D02*
X209805346Y-104125093D01*
X209724534Y-104205905D01*
X209670659Y-104313654D01*
X209670659Y-104421404D01*
X209697597Y-104502216D01*
X209778409Y-104636903D01*
X209859221Y-104717715D01*
X209993908Y-104798528D01*
X210074720Y-104825465D01*
X210182470Y-104825465D01*
X210290219Y-104771590D01*
X210344094Y-104717715D01*
X210397969Y-104609966D01*
X210397969Y-104556091D01*
X210209407Y-104367529D01*
X210101658Y-104475279D01*
X210694280Y-104367529D02*
X210128595Y-103801844D01*
X211017529Y-104044280D01*
X210451844Y-103478595D01*
X211286903Y-103774906D02*
X210721218Y-103209221D01*
X210855905Y-103074534D01*
X210963654Y-103020659D01*
X211071404Y-103020659D01*
X211152216Y-103047597D01*
X211286903Y-103128409D01*
X211367715Y-103209221D01*
X211448528Y-103343908D01*
X211475465Y-103424720D01*
X211475465Y-103532470D01*
X211421590Y-103640219D01*
X211286903Y-103774906D01*
X209886158Y-91398155D02*
X209805346Y-91425093D01*
X209724534Y-91505905D01*
X209670659Y-91613654D01*
X209670659Y-91721404D01*
X209697597Y-91802216D01*
X209778409Y-91936903D01*
X209859221Y-92017715D01*
X209993908Y-92098528D01*
X210074720Y-92125465D01*
X210182470Y-92125465D01*
X210290219Y-92071590D01*
X210344094Y-92017715D01*
X210397969Y-91909966D01*
X210397969Y-91856091D01*
X210209407Y-91667529D01*
X210101658Y-91775279D01*
X210694280Y-91667529D02*
X210128595Y-91101844D01*
X211017529Y-91344280D01*
X210451844Y-90778595D01*
X211286903Y-91074906D02*
X210721218Y-90509221D01*
X210855905Y-90374534D01*
X210963654Y-90320659D01*
X211071404Y-90320659D01*
X211152216Y-90347597D01*
X211286903Y-90428409D01*
X211367715Y-90509221D01*
X211448528Y-90643908D01*
X211475465Y-90724720D01*
X211475465Y-90832470D01*
X211421590Y-90940219D01*
X211286903Y-91074906D01*
X209886158Y-78698155D02*
X209805346Y-78725093D01*
X209724534Y-78805905D01*
X209670659Y-78913654D01*
X209670659Y-79021404D01*
X209697597Y-79102216D01*
X209778409Y-79236903D01*
X209859221Y-79317715D01*
X209993908Y-79398528D01*
X210074720Y-79425465D01*
X210182470Y-79425465D01*
X210290219Y-79371590D01*
X210344094Y-79317715D01*
X210397969Y-79209966D01*
X210397969Y-79156091D01*
X210209407Y-78967529D01*
X210101658Y-79075279D01*
X210694280Y-78967529D02*
X210128595Y-78401844D01*
X211017529Y-78644280D01*
X210451844Y-78078595D01*
X211286903Y-78374906D02*
X210721218Y-77809221D01*
X210855905Y-77674534D01*
X210963654Y-77620659D01*
X211071404Y-77620659D01*
X211152216Y-77647597D01*
X211286903Y-77728409D01*
X211367715Y-77809221D01*
X211448528Y-77943908D01*
X211475465Y-78024720D01*
X211475465Y-78132470D01*
X211421590Y-78240219D01*
X211286903Y-78374906D01*
X235353129Y-74127309D02*
X236107377Y-74504433D01*
X235730253Y-73750186D01*
X236376751Y-73642436D02*
X236484500Y-73588561D01*
X236538375Y-73588561D01*
X236619187Y-73615499D01*
X236700000Y-73696311D01*
X236726937Y-73777123D01*
X236726937Y-73830998D01*
X236700000Y-73911810D01*
X236484500Y-74127309D01*
X235918815Y-73561624D01*
X236107377Y-73373062D01*
X236188189Y-73346125D01*
X236242064Y-73346125D01*
X236322876Y-73373062D01*
X236376751Y-73426937D01*
X236403688Y-73507749D01*
X236403688Y-73561624D01*
X236376751Y-73642436D01*
X236188189Y-73830998D01*
X236484500Y-72995938D02*
X236942436Y-73453874D01*
X237023248Y-73480812D01*
X237077123Y-73480812D01*
X237157935Y-73453874D01*
X237265685Y-73346125D01*
X237292622Y-73265312D01*
X237292622Y-73211438D01*
X237265685Y-73130625D01*
X236807749Y-72672690D01*
X237588934Y-72969001D02*
X237696683Y-72915126D01*
X237831370Y-72780439D01*
X237858308Y-72699627D01*
X237858308Y-72645752D01*
X237831370Y-72564940D01*
X237777496Y-72511065D01*
X237696683Y-72484128D01*
X237642809Y-72484128D01*
X237561996Y-72511065D01*
X237427309Y-72591877D01*
X237346497Y-72618815D01*
X237292622Y-72618815D01*
X237211810Y-72591877D01*
X237157935Y-72538003D01*
X237130998Y-72457190D01*
X237130998Y-72403316D01*
X237157935Y-72322503D01*
X237292622Y-72187816D01*
X237400372Y-72133942D01*
X235320473Y-76669966D02*
X236074720Y-77047089D01*
X235697597Y-76292842D01*
X236397969Y-76669966D02*
X236505719Y-76616091D01*
X236640406Y-76481404D01*
X236667343Y-76400592D01*
X236667343Y-76346717D01*
X236640406Y-76265905D01*
X236586531Y-76212030D01*
X236505719Y-76185093D01*
X236451844Y-76185093D01*
X236371032Y-76212030D01*
X236236345Y-76292842D01*
X236155532Y-76319780D01*
X236101658Y-76319780D01*
X236020845Y-76292842D01*
X235966971Y-76238967D01*
X235940033Y-76158155D01*
X235940033Y-76104280D01*
X235966971Y-76023468D01*
X236101658Y-75888781D01*
X236209407Y-75834906D01*
X236828967Y-75754094D02*
X237098341Y-76023468D01*
X236344094Y-75646345D02*
X236828967Y-75754094D01*
X236721218Y-75269221D01*
X237421590Y-75646345D02*
X237529340Y-75592470D01*
X237664027Y-75457783D01*
X237690964Y-75376971D01*
X237690964Y-75323096D01*
X237664027Y-75242284D01*
X237610152Y-75188409D01*
X237529340Y-75161471D01*
X237475465Y-75161471D01*
X237394653Y-75188409D01*
X237259966Y-75269221D01*
X237179154Y-75296158D01*
X237125279Y-75296158D01*
X237044467Y-75269221D01*
X236990592Y-75215346D01*
X236963654Y-75134534D01*
X236963654Y-75080659D01*
X236990592Y-74999847D01*
X237125279Y-74865160D01*
X237233028Y-74811285D01*
X235322131Y-81558308D02*
X235672317Y-81208122D01*
X235699255Y-81612183D01*
X235780067Y-81531370D01*
X235860879Y-81504433D01*
X235914754Y-81504433D01*
X235995566Y-81531370D01*
X236130253Y-81666057D01*
X236157190Y-81746870D01*
X236157190Y-81800744D01*
X236130253Y-81881557D01*
X235968629Y-82043181D01*
X235887816Y-82070118D01*
X235833942Y-82070118D01*
X235833942Y-81046497D02*
X236588189Y-81423621D01*
X236211065Y-80669374D01*
X236345752Y-80534687D02*
X236695938Y-80184500D01*
X236722876Y-80588561D01*
X236803688Y-80507749D01*
X236884500Y-80480812D01*
X236938375Y-80480812D01*
X237019187Y-80507749D01*
X237153874Y-80642436D01*
X237180812Y-80723248D01*
X237180812Y-80777123D01*
X237153874Y-80857935D01*
X236992250Y-81019560D01*
X236911438Y-81046497D01*
X236857563Y-81046497D01*
X237423248Y-80696311D02*
X237854247Y-80265312D01*
X237638748Y-79780439D02*
X237827309Y-79591877D01*
X238204433Y-79807377D02*
X237935059Y-80076751D01*
X237369374Y-79511065D01*
X237638748Y-79241691D01*
X238446870Y-79564940D02*
X237881184Y-78999255D01*
X238770118Y-79241691D01*
X238204433Y-78676006D01*
X235289847Y-84090592D02*
X235640033Y-83740406D01*
X235666971Y-84144467D01*
X235747783Y-84063654D01*
X235828595Y-84036717D01*
X235882470Y-84036717D01*
X235963282Y-84063654D01*
X236097969Y-84198341D01*
X236124906Y-84279154D01*
X236124906Y-84333028D01*
X236097969Y-84413841D01*
X235936345Y-84575465D01*
X235855532Y-84602402D01*
X235801658Y-84602402D01*
X235801658Y-83578781D02*
X236555905Y-83955905D01*
X236178781Y-83201658D01*
X236313468Y-83066971D02*
X236663654Y-82716784D01*
X236690592Y-83120845D01*
X236771404Y-83040033D01*
X236852216Y-83013096D01*
X236906091Y-83013096D01*
X236986903Y-83040033D01*
X237121590Y-83174720D01*
X237148528Y-83255532D01*
X237148528Y-83309407D01*
X237121590Y-83390219D01*
X236959966Y-83551844D01*
X236879154Y-83578781D01*
X236825279Y-83578781D01*
X235554788Y-87133773D02*
X235824162Y-86864399D01*
X235662537Y-87349272D02*
X235285414Y-86595025D01*
X236039661Y-86972149D01*
X236228223Y-86783587D02*
X235662537Y-86217902D01*
X235797224Y-86083215D01*
X235904974Y-86029340D01*
X236012723Y-86029340D01*
X236093536Y-86056277D01*
X236228223Y-86137089D01*
X236309035Y-86217902D01*
X236389847Y-86352589D01*
X236416784Y-86433401D01*
X236416784Y-86541150D01*
X236362910Y-86648900D01*
X236228223Y-86783587D01*
X237063282Y-85840778D02*
X237063282Y-85894653D01*
X237009407Y-86002402D01*
X236955532Y-86056277D01*
X236847783Y-86110152D01*
X236740033Y-86110152D01*
X236659221Y-86083215D01*
X236524534Y-86002402D01*
X236443722Y-85921590D01*
X236362910Y-85786903D01*
X236335972Y-85706091D01*
X236335972Y-85598341D01*
X236389847Y-85490592D01*
X236443722Y-85436717D01*
X236551471Y-85382842D01*
X236605346Y-85382842D01*
X237278781Y-85840778D02*
X237709780Y-85409780D01*
X237144094Y-84736345D02*
X237898341Y-85113468D01*
X237521218Y-84359221D01*
X238598714Y-84413096D02*
X238140778Y-84332284D01*
X238275465Y-84736345D02*
X237709780Y-84170659D01*
X237925279Y-83955160D01*
X238006091Y-83928223D01*
X238059966Y-83928223D01*
X238140778Y-83955160D01*
X238221590Y-84035972D01*
X238248528Y-84116784D01*
X238248528Y-84170659D01*
X238221590Y-84251471D01*
X238006091Y-84466971D01*
X238544839Y-83874348D02*
X238733401Y-83685786D01*
X239110524Y-83901285D02*
X238841150Y-84170659D01*
X238275465Y-83604974D01*
X238544839Y-83335600D01*
X239245211Y-83173975D02*
X239056650Y-83362537D01*
X239352961Y-83658849D02*
X238787276Y-83093163D01*
X239056650Y-82823789D01*
X235497722Y-88846592D02*
X235416910Y-88873529D01*
X235336097Y-88954341D01*
X235282223Y-89062091D01*
X235282223Y-89169841D01*
X235309160Y-89250653D01*
X235389972Y-89385340D01*
X235470784Y-89466152D01*
X235605471Y-89546964D01*
X235686284Y-89573902D01*
X235794033Y-89573902D01*
X235901783Y-89520027D01*
X235955658Y-89466152D01*
X236009532Y-89358402D01*
X236009532Y-89304528D01*
X235820971Y-89115966D01*
X235713221Y-89223715D01*
X236305844Y-89115966D02*
X235740158Y-88550280D01*
X235955658Y-88334781D01*
X236036470Y-88307844D01*
X236090345Y-88307844D01*
X236171157Y-88334781D01*
X236251969Y-88415593D01*
X236278906Y-88496406D01*
X236278906Y-88550280D01*
X236251969Y-88631093D01*
X236036470Y-88846592D01*
X236332781Y-88065407D02*
X236332781Y-88011532D01*
X236359719Y-87930720D01*
X236494406Y-87796033D01*
X236575218Y-87769096D01*
X236629093Y-87769096D01*
X236709905Y-87796033D01*
X236763780Y-87849908D01*
X236817654Y-87957658D01*
X236817654Y-88604155D01*
X237167841Y-88253969D01*
X237167841Y-87607471D02*
X237087028Y-87634409D01*
X237033154Y-87634409D01*
X236952341Y-87607471D01*
X236925404Y-87580534D01*
X236898467Y-87499722D01*
X236898467Y-87445847D01*
X236925404Y-87365035D01*
X237033154Y-87257285D01*
X237113966Y-87230348D01*
X237167841Y-87230348D01*
X237248653Y-87257285D01*
X237275590Y-87284223D01*
X237302528Y-87365035D01*
X237302528Y-87418910D01*
X237275590Y-87499722D01*
X237167841Y-87607471D01*
X237140903Y-87688284D01*
X237140903Y-87742158D01*
X237167841Y-87822971D01*
X237275590Y-87930720D01*
X237356402Y-87957658D01*
X237410277Y-87957658D01*
X237491089Y-87930720D01*
X237598839Y-87822971D01*
X237625776Y-87742158D01*
X237625776Y-87688284D01*
X237598839Y-87607471D01*
X237491089Y-87499722D01*
X237410277Y-87472784D01*
X237356402Y-87472784D01*
X237275590Y-87499722D01*
X235497722Y-94190592D02*
X235416910Y-94217529D01*
X235336097Y-94298341D01*
X235282223Y-94406091D01*
X235282223Y-94513841D01*
X235309160Y-94594653D01*
X235389972Y-94729340D01*
X235470784Y-94810152D01*
X235605471Y-94890964D01*
X235686284Y-94917902D01*
X235794033Y-94917902D01*
X235901783Y-94864027D01*
X235955658Y-94810152D01*
X236009532Y-94702402D01*
X236009532Y-94648528D01*
X235820971Y-94459966D01*
X235713221Y-94567715D01*
X236305844Y-94459966D02*
X235740158Y-93894280D01*
X235955658Y-93678781D01*
X236036470Y-93651844D01*
X236090345Y-93651844D01*
X236171157Y-93678781D01*
X236251969Y-93759593D01*
X236278906Y-93840406D01*
X236278906Y-93894280D01*
X236251969Y-93975093D01*
X236036470Y-94190592D01*
X236332781Y-93409407D02*
X236332781Y-93355532D01*
X236359719Y-93274720D01*
X236494406Y-93140033D01*
X236575218Y-93113096D01*
X236629093Y-93113096D01*
X236709905Y-93140033D01*
X236763780Y-93193908D01*
X236817654Y-93301658D01*
X236817654Y-93948155D01*
X237167841Y-93597969D01*
X236790717Y-92843722D02*
X237167841Y-92466598D01*
X237491089Y-93274720D01*
X235497722Y-96720592D02*
X235416910Y-96747529D01*
X235336097Y-96828341D01*
X235282223Y-96936091D01*
X235282223Y-97043841D01*
X235309160Y-97124653D01*
X235389972Y-97259340D01*
X235470784Y-97340152D01*
X235605471Y-97420964D01*
X235686284Y-97447902D01*
X235794033Y-97447902D01*
X235901783Y-97394027D01*
X235955658Y-97340152D01*
X236009532Y-97232402D01*
X236009532Y-97178528D01*
X235820971Y-96989966D01*
X235713221Y-97097715D01*
X236305844Y-96989966D02*
X235740158Y-96424280D01*
X235955658Y-96208781D01*
X236036470Y-96181844D01*
X236090345Y-96181844D01*
X236171157Y-96208781D01*
X236251969Y-96289593D01*
X236278906Y-96370406D01*
X236278906Y-96424280D01*
X236251969Y-96505093D01*
X236036470Y-96720592D01*
X236332781Y-95939407D02*
X236332781Y-95885532D01*
X236359719Y-95804720D01*
X236494406Y-95670033D01*
X236575218Y-95643096D01*
X236629093Y-95643096D01*
X236709905Y-95670033D01*
X236763780Y-95723908D01*
X236817654Y-95831658D01*
X236817654Y-96478155D01*
X237167841Y-96127969D01*
X237087028Y-95077410D02*
X236979279Y-95185160D01*
X236952341Y-95265972D01*
X236952341Y-95319847D01*
X236979279Y-95454534D01*
X237060091Y-95589221D01*
X237275590Y-95804720D01*
X237356402Y-95831658D01*
X237410277Y-95831658D01*
X237491089Y-95804720D01*
X237598839Y-95696971D01*
X237625776Y-95616158D01*
X237625776Y-95562284D01*
X237598839Y-95481471D01*
X237464152Y-95346784D01*
X237383340Y-95319847D01*
X237329465Y-95319847D01*
X237248653Y-95346784D01*
X237140903Y-95454534D01*
X237113966Y-95535346D01*
X237113966Y-95589221D01*
X237140903Y-95670033D01*
X236238375Y-99543435D02*
X235780439Y-99462622D01*
X235915126Y-99866683D02*
X235349441Y-99300998D01*
X235564940Y-99085499D01*
X235645752Y-99058561D01*
X235699627Y-99058561D01*
X235780439Y-99085499D01*
X235861251Y-99166311D01*
X235888189Y-99247123D01*
X235888189Y-99300998D01*
X235861251Y-99381810D01*
X235645752Y-99597309D01*
X235915126Y-98735312D02*
X236373062Y-99193248D01*
X236453874Y-99220186D01*
X236507749Y-99220186D01*
X236588561Y-99193248D01*
X236696311Y-99085499D01*
X236723248Y-99004687D01*
X236723248Y-98950812D01*
X236696311Y-98869999D01*
X236238375Y-98412064D01*
X237073435Y-98708375D02*
X236507749Y-98142690D01*
X237396683Y-98385126D01*
X236830998Y-97819441D01*
X235497722Y-101800592D02*
X235416910Y-101827529D01*
X235336097Y-101908341D01*
X235282223Y-102016091D01*
X235282223Y-102123841D01*
X235309160Y-102204653D01*
X235389972Y-102339340D01*
X235470784Y-102420152D01*
X235605471Y-102500964D01*
X235686284Y-102527902D01*
X235794033Y-102527902D01*
X235901783Y-102474027D01*
X235955658Y-102420152D01*
X236009532Y-102312402D01*
X236009532Y-102258528D01*
X235820971Y-102069966D01*
X235713221Y-102177715D01*
X236305844Y-102069966D02*
X235740158Y-101504280D01*
X235955658Y-101288781D01*
X236036470Y-101261844D01*
X236090345Y-101261844D01*
X236171157Y-101288781D01*
X236251969Y-101369593D01*
X236278906Y-101450406D01*
X236278906Y-101504280D01*
X236251969Y-101585093D01*
X236036470Y-101800592D01*
X236332781Y-101019407D02*
X236332781Y-100965532D01*
X236359719Y-100884720D01*
X236494406Y-100750033D01*
X236575218Y-100723096D01*
X236629093Y-100723096D01*
X236709905Y-100750033D01*
X236763780Y-100803908D01*
X236817654Y-100911658D01*
X236817654Y-101558155D01*
X237167841Y-101207969D01*
X236871529Y-100480659D02*
X236871529Y-100426784D01*
X236898467Y-100345972D01*
X237033154Y-100211285D01*
X237113966Y-100184348D01*
X237167841Y-100184348D01*
X237248653Y-100211285D01*
X237302528Y-100265160D01*
X237356402Y-100372910D01*
X237356402Y-101019407D01*
X237706589Y-100669221D01*
X235497722Y-106890592D02*
X235416910Y-106917529D01*
X235336097Y-106998341D01*
X235282223Y-107106091D01*
X235282223Y-107213841D01*
X235309160Y-107294653D01*
X235389972Y-107429340D01*
X235470784Y-107510152D01*
X235605471Y-107590964D01*
X235686284Y-107617902D01*
X235794033Y-107617902D01*
X235901783Y-107564027D01*
X235955658Y-107510152D01*
X236009532Y-107402402D01*
X236009532Y-107348528D01*
X235820971Y-107159966D01*
X235713221Y-107267715D01*
X236305844Y-107159966D02*
X235740158Y-106594280D01*
X235955658Y-106378781D01*
X236036470Y-106351844D01*
X236090345Y-106351844D01*
X236171157Y-106378781D01*
X236251969Y-106459593D01*
X236278906Y-106540406D01*
X236278906Y-106594280D01*
X236251969Y-106675093D01*
X236036470Y-106890592D01*
X236332781Y-106109407D02*
X236332781Y-106055532D01*
X236359719Y-105974720D01*
X236494406Y-105840033D01*
X236575218Y-105813096D01*
X236629093Y-105813096D01*
X236709905Y-105840033D01*
X236763780Y-105893908D01*
X236817654Y-106001658D01*
X236817654Y-106648155D01*
X237167841Y-106297969D01*
X237706589Y-105759221D02*
X237383340Y-106082470D01*
X237544964Y-105920845D02*
X236979279Y-105355160D01*
X237006216Y-105489847D01*
X237006216Y-105597597D01*
X236979279Y-105678409D01*
X235497722Y-109420592D02*
X235416910Y-109447529D01*
X235336097Y-109528341D01*
X235282223Y-109636091D01*
X235282223Y-109743841D01*
X235309160Y-109824653D01*
X235389972Y-109959340D01*
X235470784Y-110040152D01*
X235605471Y-110120964D01*
X235686284Y-110147902D01*
X235794033Y-110147902D01*
X235901783Y-110094027D01*
X235955658Y-110040152D01*
X236009532Y-109932402D01*
X236009532Y-109878528D01*
X235820971Y-109689966D01*
X235713221Y-109797715D01*
X236305844Y-109689966D02*
X235740158Y-109124280D01*
X235955658Y-108908781D01*
X236036470Y-108881844D01*
X236090345Y-108881844D01*
X236171157Y-108908781D01*
X236251969Y-108989593D01*
X236278906Y-109070406D01*
X236278906Y-109124280D01*
X236251969Y-109205093D01*
X236036470Y-109420592D01*
X236332781Y-108639407D02*
X236332781Y-108585532D01*
X236359719Y-108504720D01*
X236494406Y-108370033D01*
X236575218Y-108343096D01*
X236629093Y-108343096D01*
X236709905Y-108370033D01*
X236763780Y-108423908D01*
X236817654Y-108531658D01*
X236817654Y-109178155D01*
X237167841Y-108827969D01*
X236952341Y-107912097D02*
X237006216Y-107858223D01*
X237087028Y-107831285D01*
X237140903Y-107831285D01*
X237221715Y-107858223D01*
X237356402Y-107939035D01*
X237491089Y-108073722D01*
X237571902Y-108208409D01*
X237598839Y-108289221D01*
X237598839Y-108343096D01*
X237571902Y-108423908D01*
X237518027Y-108477783D01*
X237437215Y-108504720D01*
X237383340Y-108504720D01*
X237302528Y-108477783D01*
X237167841Y-108396971D01*
X237033154Y-108262284D01*
X236952341Y-108127597D01*
X236925404Y-108046784D01*
X236925404Y-107992910D01*
X236952341Y-107912097D01*
X235497722Y-111960592D02*
X235416910Y-111987529D01*
X235336097Y-112068341D01*
X235282223Y-112176091D01*
X235282223Y-112283841D01*
X235309160Y-112364653D01*
X235389972Y-112499340D01*
X235470784Y-112580152D01*
X235605471Y-112660964D01*
X235686284Y-112687902D01*
X235794033Y-112687902D01*
X235901783Y-112634027D01*
X235955658Y-112580152D01*
X236009532Y-112472402D01*
X236009532Y-112418528D01*
X235820971Y-112229966D01*
X235713221Y-112337715D01*
X236305844Y-112229966D02*
X235740158Y-111664280D01*
X235955658Y-111448781D01*
X236036470Y-111421844D01*
X236090345Y-111421844D01*
X236171157Y-111448781D01*
X236251969Y-111529593D01*
X236278906Y-111610406D01*
X236278906Y-111664280D01*
X236251969Y-111745093D01*
X236036470Y-111960592D01*
X237167841Y-111367969D02*
X236844592Y-111691218D01*
X237006216Y-111529593D02*
X236440531Y-110963908D01*
X236467468Y-111098595D01*
X236467468Y-111206345D01*
X236440531Y-111287157D01*
X237437215Y-111098595D02*
X237544964Y-110990845D01*
X237571902Y-110910033D01*
X237571902Y-110856158D01*
X237544964Y-110721471D01*
X237464152Y-110586784D01*
X237248653Y-110371285D01*
X237167841Y-110344348D01*
X237113966Y-110344348D01*
X237033154Y-110371285D01*
X236925404Y-110479035D01*
X236898467Y-110559847D01*
X236898467Y-110613722D01*
X236925404Y-110694534D01*
X237060091Y-110829221D01*
X237140903Y-110856158D01*
X237194778Y-110856158D01*
X237275590Y-110829221D01*
X237383340Y-110721471D01*
X237410277Y-110640659D01*
X237410277Y-110586784D01*
X237383340Y-110505972D01*
X235497722Y-114500592D02*
X235416910Y-114527529D01*
X235336097Y-114608341D01*
X235282223Y-114716091D01*
X235282223Y-114823841D01*
X235309160Y-114904653D01*
X235389972Y-115039340D01*
X235470784Y-115120152D01*
X235605471Y-115200964D01*
X235686284Y-115227902D01*
X235794033Y-115227902D01*
X235901783Y-115174027D01*
X235955658Y-115120152D01*
X236009532Y-115012402D01*
X236009532Y-114958528D01*
X235820971Y-114769966D01*
X235713221Y-114877715D01*
X236305844Y-114769966D02*
X235740158Y-114204280D01*
X235955658Y-113988781D01*
X236036470Y-113961844D01*
X236090345Y-113961844D01*
X236171157Y-113988781D01*
X236251969Y-114069593D01*
X236278906Y-114150406D01*
X236278906Y-114204280D01*
X236251969Y-114285093D01*
X236036470Y-114500592D01*
X237167841Y-113907969D02*
X236844592Y-114231218D01*
X237006216Y-114069593D02*
X236440531Y-113503908D01*
X236467468Y-113638595D01*
X236467468Y-113746345D01*
X236440531Y-113827157D01*
X237167841Y-113261471D02*
X237087028Y-113288409D01*
X237033154Y-113288409D01*
X236952341Y-113261471D01*
X236925404Y-113234534D01*
X236898467Y-113153722D01*
X236898467Y-113099847D01*
X236925404Y-113019035D01*
X237033154Y-112911285D01*
X237113966Y-112884348D01*
X237167841Y-112884348D01*
X237248653Y-112911285D01*
X237275590Y-112938223D01*
X237302528Y-113019035D01*
X237302528Y-113072910D01*
X237275590Y-113153722D01*
X237167841Y-113261471D01*
X237140903Y-113342284D01*
X237140903Y-113396158D01*
X237167841Y-113476971D01*
X237275590Y-113584720D01*
X237356402Y-113611658D01*
X237410277Y-113611658D01*
X237491089Y-113584720D01*
X237598839Y-113476971D01*
X237625776Y-113396158D01*
X237625776Y-113342284D01*
X237598839Y-113261471D01*
X237491089Y-113153722D01*
X237410277Y-113126784D01*
X237356402Y-113126784D01*
X237275590Y-113153722D01*
X235497722Y-119580592D02*
X235416910Y-119607529D01*
X235336097Y-119688341D01*
X235282223Y-119796091D01*
X235282223Y-119903841D01*
X235309160Y-119984653D01*
X235389972Y-120119340D01*
X235470784Y-120200152D01*
X235605471Y-120280964D01*
X235686284Y-120307902D01*
X235794033Y-120307902D01*
X235901783Y-120254027D01*
X235955658Y-120200152D01*
X236009532Y-120092402D01*
X236009532Y-120038528D01*
X235820971Y-119849966D01*
X235713221Y-119957715D01*
X236305844Y-119849966D02*
X235740158Y-119284280D01*
X235955658Y-119068781D01*
X236036470Y-119041844D01*
X236090345Y-119041844D01*
X236171157Y-119068781D01*
X236251969Y-119149593D01*
X236278906Y-119230406D01*
X236278906Y-119284280D01*
X236251969Y-119365093D01*
X236036470Y-119580592D01*
X237167841Y-118987969D02*
X236844592Y-119311218D01*
X237006216Y-119149593D02*
X236440531Y-118583908D01*
X236467468Y-118718595D01*
X236467468Y-118826345D01*
X236440531Y-118907157D01*
X236790717Y-118233722D02*
X237167841Y-117856598D01*
X237491089Y-118664720D01*
X235497722Y-122120592D02*
X235416910Y-122147529D01*
X235336097Y-122228341D01*
X235282223Y-122336091D01*
X235282223Y-122443841D01*
X235309160Y-122524653D01*
X235389972Y-122659340D01*
X235470784Y-122740152D01*
X235605471Y-122820964D01*
X235686284Y-122847902D01*
X235794033Y-122847902D01*
X235901783Y-122794027D01*
X235955658Y-122740152D01*
X236009532Y-122632402D01*
X236009532Y-122578528D01*
X235820971Y-122389966D01*
X235713221Y-122497715D01*
X236305844Y-122389966D02*
X235740158Y-121824280D01*
X235955658Y-121608781D01*
X236036470Y-121581844D01*
X236090345Y-121581844D01*
X236171157Y-121608781D01*
X236251969Y-121689593D01*
X236278906Y-121770406D01*
X236278906Y-121824280D01*
X236251969Y-121905093D01*
X236036470Y-122120592D01*
X237167841Y-121527969D02*
X236844592Y-121851218D01*
X237006216Y-121689593D02*
X236440531Y-121123908D01*
X236467468Y-121258595D01*
X236467468Y-121366345D01*
X236440531Y-121447157D01*
X237087028Y-120477410D02*
X236979279Y-120585160D01*
X236952341Y-120665972D01*
X236952341Y-120719847D01*
X236979279Y-120854534D01*
X237060091Y-120989221D01*
X237275590Y-121204720D01*
X237356402Y-121231658D01*
X237410277Y-121231658D01*
X237491089Y-121204720D01*
X237598839Y-121096971D01*
X237625776Y-121016158D01*
X237625776Y-120962284D01*
X237598839Y-120881471D01*
X237464152Y-120746784D01*
X237383340Y-120719847D01*
X237329465Y-120719847D01*
X237248653Y-120746784D01*
X237140903Y-120854534D01*
X237113966Y-120935346D01*
X237113966Y-120989221D01*
X237140903Y-121070033D01*
X209389722Y-122120592D02*
X209308910Y-122147529D01*
X209228097Y-122228341D01*
X209174223Y-122336091D01*
X209174223Y-122443841D01*
X209201160Y-122524653D01*
X209281972Y-122659340D01*
X209362784Y-122740152D01*
X209497471Y-122820964D01*
X209578284Y-122847902D01*
X209686033Y-122847902D01*
X209793783Y-122794027D01*
X209847658Y-122740152D01*
X209901532Y-122632402D01*
X209901532Y-122578528D01*
X209712971Y-122389966D01*
X209605221Y-122497715D01*
X210197844Y-122389966D02*
X209632158Y-121824280D01*
X209847658Y-121608781D01*
X209928470Y-121581844D01*
X209982345Y-121581844D01*
X210063157Y-121608781D01*
X210143969Y-121689593D01*
X210170906Y-121770406D01*
X210170906Y-121824280D01*
X210143969Y-121905093D01*
X209928470Y-122120592D01*
X211059841Y-121527969D02*
X210736592Y-121851218D01*
X210898216Y-121689593D02*
X210332531Y-121123908D01*
X210359468Y-121258595D01*
X210359468Y-121366345D01*
X210332531Y-121447157D01*
X211005966Y-120450473D02*
X210736592Y-120719847D01*
X210979028Y-121016158D01*
X210979028Y-120962284D01*
X211005966Y-120881471D01*
X211140653Y-120746784D01*
X211221465Y-120719847D01*
X211275340Y-120719847D01*
X211356152Y-120746784D01*
X211490839Y-120881471D01*
X211517776Y-120962284D01*
X211517776Y-121016158D01*
X211490839Y-121096971D01*
X211356152Y-121231658D01*
X211275340Y-121258595D01*
X211221465Y-121258595D01*
X209343722Y-119580592D02*
X209262910Y-119607529D01*
X209182097Y-119688341D01*
X209128223Y-119796091D01*
X209128223Y-119903841D01*
X209155160Y-119984653D01*
X209235972Y-120119340D01*
X209316784Y-120200152D01*
X209451471Y-120280964D01*
X209532284Y-120307902D01*
X209640033Y-120307902D01*
X209747783Y-120254027D01*
X209801658Y-120200152D01*
X209855532Y-120092402D01*
X209855532Y-120038528D01*
X209666971Y-119849966D01*
X209559221Y-119957715D01*
X210151844Y-119849966D02*
X209586158Y-119284280D01*
X209801658Y-119068781D01*
X209882470Y-119041844D01*
X209936345Y-119041844D01*
X210017157Y-119068781D01*
X210097969Y-119149593D01*
X210124906Y-119230406D01*
X210124906Y-119284280D01*
X210097969Y-119365093D01*
X209882470Y-119580592D01*
X211013841Y-118987969D02*
X210690592Y-119311218D01*
X210852216Y-119149593D02*
X210286531Y-118583908D01*
X210313468Y-118718595D01*
X210313468Y-118826345D01*
X210286531Y-118907157D01*
X211121590Y-118125972D02*
X211498714Y-118503096D01*
X210771404Y-118045160D02*
X211040778Y-118583908D01*
X211390964Y-118233722D01*
X209389722Y-114500592D02*
X209308910Y-114527529D01*
X209228097Y-114608341D01*
X209174223Y-114716091D01*
X209174223Y-114823841D01*
X209201160Y-114904653D01*
X209281972Y-115039340D01*
X209362784Y-115120152D01*
X209497471Y-115200964D01*
X209578284Y-115227902D01*
X209686033Y-115227902D01*
X209793783Y-115174027D01*
X209847658Y-115120152D01*
X209901532Y-115012402D01*
X209901532Y-114958528D01*
X209712971Y-114769966D01*
X209605221Y-114877715D01*
X210197844Y-114769966D02*
X209632158Y-114204280D01*
X209847658Y-113988781D01*
X209928470Y-113961844D01*
X209982345Y-113961844D01*
X210063157Y-113988781D01*
X210143969Y-114069593D01*
X210170906Y-114150406D01*
X210170906Y-114204280D01*
X210143969Y-114285093D01*
X209928470Y-114500592D01*
X211059841Y-113907969D02*
X210736592Y-114231218D01*
X210898216Y-114069593D02*
X210332531Y-113503908D01*
X210359468Y-113638595D01*
X210359468Y-113746345D01*
X210332531Y-113827157D01*
X210682717Y-113153722D02*
X211032903Y-112803536D01*
X211059841Y-113207597D01*
X211140653Y-113126784D01*
X211221465Y-113099847D01*
X211275340Y-113099847D01*
X211356152Y-113126784D01*
X211490839Y-113261471D01*
X211517776Y-113342284D01*
X211517776Y-113396158D01*
X211490839Y-113476971D01*
X211329215Y-113638595D01*
X211248402Y-113665532D01*
X211194528Y-113665532D01*
X209243722Y-111960592D02*
X209162910Y-111987529D01*
X209082097Y-112068341D01*
X209028223Y-112176091D01*
X209028223Y-112283841D01*
X209055160Y-112364653D01*
X209135972Y-112499340D01*
X209216784Y-112580152D01*
X209351471Y-112660964D01*
X209432284Y-112687902D01*
X209540033Y-112687902D01*
X209647783Y-112634027D01*
X209701658Y-112580152D01*
X209755532Y-112472402D01*
X209755532Y-112418528D01*
X209566971Y-112229966D01*
X209459221Y-112337715D01*
X210051844Y-112229966D02*
X209486158Y-111664280D01*
X209701658Y-111448781D01*
X209782470Y-111421844D01*
X209836345Y-111421844D01*
X209917157Y-111448781D01*
X209997969Y-111529593D01*
X210024906Y-111610406D01*
X210024906Y-111664280D01*
X209997969Y-111745093D01*
X209782470Y-111960592D01*
X210913841Y-111367969D02*
X210590592Y-111691218D01*
X210752216Y-111529593D02*
X210186531Y-110963908D01*
X210213468Y-111098595D01*
X210213468Y-111206345D01*
X210186531Y-111287157D01*
X210617529Y-110640659D02*
X210617529Y-110586784D01*
X210644467Y-110505972D01*
X210779154Y-110371285D01*
X210859966Y-110344348D01*
X210913841Y-110344348D01*
X210994653Y-110371285D01*
X211048528Y-110425160D01*
X211102402Y-110532910D01*
X211102402Y-111179407D01*
X211452589Y-110829221D01*
X209243722Y-109420592D02*
X209162910Y-109447529D01*
X209082097Y-109528341D01*
X209028223Y-109636091D01*
X209028223Y-109743841D01*
X209055160Y-109824653D01*
X209135972Y-109959340D01*
X209216784Y-110040152D01*
X209351471Y-110120964D01*
X209432284Y-110147902D01*
X209540033Y-110147902D01*
X209647783Y-110094027D01*
X209701658Y-110040152D01*
X209755532Y-109932402D01*
X209755532Y-109878528D01*
X209566971Y-109689966D01*
X209459221Y-109797715D01*
X210051844Y-109689966D02*
X209486158Y-109124280D01*
X209701658Y-108908781D01*
X209782470Y-108881844D01*
X209836345Y-108881844D01*
X209917157Y-108908781D01*
X209997969Y-108989593D01*
X210024906Y-109070406D01*
X210024906Y-109124280D01*
X209997969Y-109205093D01*
X209782470Y-109420592D01*
X210913841Y-108827969D02*
X210590592Y-109151218D01*
X210752216Y-108989593D02*
X210186531Y-108423908D01*
X210213468Y-108558595D01*
X210213468Y-108666345D01*
X210186531Y-108747157D01*
X211452589Y-108289221D02*
X211129340Y-108612470D01*
X211290964Y-108450845D02*
X210725279Y-107885160D01*
X210752216Y-108019847D01*
X210752216Y-108127597D01*
X210725279Y-108208409D01*
X209389722Y-106880592D02*
X209308910Y-106907529D01*
X209228097Y-106988341D01*
X209174223Y-107096091D01*
X209174223Y-107203841D01*
X209201160Y-107284653D01*
X209281972Y-107419340D01*
X209362784Y-107500152D01*
X209497471Y-107580964D01*
X209578284Y-107607902D01*
X209686033Y-107607902D01*
X209793783Y-107554027D01*
X209847658Y-107500152D01*
X209901532Y-107392402D01*
X209901532Y-107338528D01*
X209712971Y-107149966D01*
X209605221Y-107257715D01*
X210197844Y-107149966D02*
X209632158Y-106584280D01*
X209847658Y-106368781D01*
X209928470Y-106341844D01*
X209982345Y-106341844D01*
X210063157Y-106368781D01*
X210143969Y-106449593D01*
X210170906Y-106530406D01*
X210170906Y-106584280D01*
X210143969Y-106665093D01*
X209928470Y-106880592D01*
X211059841Y-106287969D02*
X210736592Y-106611218D01*
X210898216Y-106449593D02*
X210332531Y-105883908D01*
X210359468Y-106018595D01*
X210359468Y-106126345D01*
X210332531Y-106207157D01*
X210844341Y-105372097D02*
X210898216Y-105318223D01*
X210979028Y-105291285D01*
X211032903Y-105291285D01*
X211113715Y-105318223D01*
X211248402Y-105399035D01*
X211383089Y-105533722D01*
X211463902Y-105668409D01*
X211490839Y-105749221D01*
X211490839Y-105803096D01*
X211463902Y-105883908D01*
X211410027Y-105937783D01*
X211329215Y-105964720D01*
X211275340Y-105964720D01*
X211194528Y-105937783D01*
X211059841Y-105856971D01*
X210925154Y-105722284D01*
X210844341Y-105587597D01*
X210817404Y-105506784D01*
X210817404Y-105452910D01*
X210844341Y-105372097D01*
X209913096Y-101531218D02*
X209832284Y-101558155D01*
X209751471Y-101638967D01*
X209697597Y-101746717D01*
X209697597Y-101854467D01*
X209724534Y-101935279D01*
X209805346Y-102069966D01*
X209886158Y-102150778D01*
X210020845Y-102231590D01*
X210101658Y-102258528D01*
X210209407Y-102258528D01*
X210317157Y-102204653D01*
X210371032Y-102150778D01*
X210424906Y-102043028D01*
X210424906Y-101989154D01*
X210236345Y-101800592D01*
X210128595Y-101908341D01*
X210721218Y-101800592D02*
X210155532Y-101234906D01*
X210371032Y-101019407D01*
X210451844Y-100992470D01*
X210505719Y-100992470D01*
X210586531Y-101019407D01*
X210667343Y-101100219D01*
X210694280Y-101181032D01*
X210694280Y-101234906D01*
X210667343Y-101315719D01*
X210451844Y-101531218D01*
X211313841Y-101207969D02*
X211421590Y-101100219D01*
X211448528Y-101019407D01*
X211448528Y-100965532D01*
X211421590Y-100830845D01*
X211340778Y-100696158D01*
X211125279Y-100480659D01*
X211044467Y-100453722D01*
X210990592Y-100453722D01*
X210909780Y-100480659D01*
X210802030Y-100588409D01*
X210775093Y-100669221D01*
X210775093Y-100723096D01*
X210802030Y-100803908D01*
X210936717Y-100938595D01*
X211017529Y-100965532D01*
X211071404Y-100965532D01*
X211152216Y-100938595D01*
X211259966Y-100830845D01*
X211286903Y-100750033D01*
X211286903Y-100696158D01*
X211259966Y-100615346D01*
X209913096Y-98991218D02*
X209832284Y-99018155D01*
X209751471Y-99098967D01*
X209697597Y-99206717D01*
X209697597Y-99314467D01*
X209724534Y-99395279D01*
X209805346Y-99529966D01*
X209886158Y-99610778D01*
X210020845Y-99691590D01*
X210101658Y-99718528D01*
X210209407Y-99718528D01*
X210317157Y-99664653D01*
X210371032Y-99610778D01*
X210424906Y-99503028D01*
X210424906Y-99449154D01*
X210236345Y-99260592D01*
X210128595Y-99368341D01*
X210721218Y-99260592D02*
X210155532Y-98694906D01*
X210371032Y-98479407D01*
X210451844Y-98452470D01*
X210505719Y-98452470D01*
X210586531Y-98479407D01*
X210667343Y-98560219D01*
X210694280Y-98641032D01*
X210694280Y-98694906D01*
X210667343Y-98775719D01*
X210451844Y-98991218D01*
X211044467Y-98290845D02*
X210963654Y-98317783D01*
X210909780Y-98317783D01*
X210828967Y-98290845D01*
X210802030Y-98263908D01*
X210775093Y-98183096D01*
X210775093Y-98129221D01*
X210802030Y-98048409D01*
X210909780Y-97940659D01*
X210990592Y-97913722D01*
X211044467Y-97913722D01*
X211125279Y-97940659D01*
X211152216Y-97967597D01*
X211179154Y-98048409D01*
X211179154Y-98102284D01*
X211152216Y-98183096D01*
X211044467Y-98290845D01*
X211017529Y-98371658D01*
X211017529Y-98425532D01*
X211044467Y-98506345D01*
X211152216Y-98614094D01*
X211233028Y-98641032D01*
X211286903Y-98641032D01*
X211367715Y-98614094D01*
X211475465Y-98506345D01*
X211502402Y-98425532D01*
X211502402Y-98371658D01*
X211475465Y-98290845D01*
X211367715Y-98183096D01*
X211286903Y-98156158D01*
X211233028Y-98156158D01*
X211152216Y-98183096D01*
X210013096Y-96421218D02*
X209932284Y-96448155D01*
X209851471Y-96528967D01*
X209797597Y-96636717D01*
X209797597Y-96744467D01*
X209824534Y-96825279D01*
X209905346Y-96959966D01*
X209986158Y-97040778D01*
X210120845Y-97121590D01*
X210201658Y-97148528D01*
X210309407Y-97148528D01*
X210417157Y-97094653D01*
X210471032Y-97040778D01*
X210524906Y-96933028D01*
X210524906Y-96879154D01*
X210336345Y-96690592D01*
X210228595Y-96798341D01*
X210821218Y-96690592D02*
X210255532Y-96124906D01*
X210471032Y-95909407D01*
X210551844Y-95882470D01*
X210605719Y-95882470D01*
X210686531Y-95909407D01*
X210767343Y-95990219D01*
X210794280Y-96071032D01*
X210794280Y-96124906D01*
X210767343Y-96205719D01*
X210551844Y-96421218D01*
X210767343Y-95613096D02*
X211144467Y-95235972D01*
X211467715Y-96044094D01*
X209913096Y-93911218D02*
X209832284Y-93938155D01*
X209751471Y-94018967D01*
X209697597Y-94126717D01*
X209697597Y-94234467D01*
X209724534Y-94315279D01*
X209805346Y-94449966D01*
X209886158Y-94530778D01*
X210020845Y-94611590D01*
X210101658Y-94638528D01*
X210209407Y-94638528D01*
X210317157Y-94584653D01*
X210371032Y-94530778D01*
X210424906Y-94423028D01*
X210424906Y-94369154D01*
X210236345Y-94180592D01*
X210128595Y-94288341D01*
X210721218Y-94180592D02*
X210155532Y-93614906D01*
X210371032Y-93399407D01*
X210451844Y-93372470D01*
X210505719Y-93372470D01*
X210586531Y-93399407D01*
X210667343Y-93480219D01*
X210694280Y-93561032D01*
X210694280Y-93614906D01*
X210667343Y-93695719D01*
X210451844Y-93911218D01*
X210963654Y-92806784D02*
X210855905Y-92914534D01*
X210828967Y-92995346D01*
X210828967Y-93049221D01*
X210855905Y-93183908D01*
X210936717Y-93318595D01*
X211152216Y-93534094D01*
X211233028Y-93561032D01*
X211286903Y-93561032D01*
X211367715Y-93534094D01*
X211475465Y-93426345D01*
X211502402Y-93345532D01*
X211502402Y-93291658D01*
X211475465Y-93210845D01*
X211340778Y-93076158D01*
X211259966Y-93049221D01*
X211206091Y-93049221D01*
X211125279Y-93076158D01*
X211017529Y-93183908D01*
X210990592Y-93264720D01*
X210990592Y-93318595D01*
X211017529Y-93399407D01*
X209913096Y-88831218D02*
X209832284Y-88858155D01*
X209751471Y-88938967D01*
X209697597Y-89046717D01*
X209697597Y-89154467D01*
X209724534Y-89235279D01*
X209805346Y-89369966D01*
X209886158Y-89450778D01*
X210020845Y-89531590D01*
X210101658Y-89558528D01*
X210209407Y-89558528D01*
X210317157Y-89504653D01*
X210371032Y-89450778D01*
X210424906Y-89343028D01*
X210424906Y-89289154D01*
X210236345Y-89100592D01*
X210128595Y-89208341D01*
X210721218Y-89100592D02*
X210155532Y-88534906D01*
X210371032Y-88319407D01*
X210451844Y-88292470D01*
X210505719Y-88292470D01*
X210586531Y-88319407D01*
X210667343Y-88400219D01*
X210694280Y-88481032D01*
X210694280Y-88534906D01*
X210667343Y-88615719D01*
X210451844Y-88831218D01*
X210990592Y-87699847D02*
X210721218Y-87969221D01*
X210963654Y-88265532D01*
X210963654Y-88211658D01*
X210990592Y-88130845D01*
X211125279Y-87996158D01*
X211206091Y-87969221D01*
X211259966Y-87969221D01*
X211340778Y-87996158D01*
X211475465Y-88130845D01*
X211502402Y-88211658D01*
X211502402Y-88265532D01*
X211475465Y-88346345D01*
X211340778Y-88481032D01*
X211259966Y-88507969D01*
X211206091Y-88507969D01*
X209913096Y-86291218D02*
X209832284Y-86318155D01*
X209751471Y-86398967D01*
X209697597Y-86506717D01*
X209697597Y-86614467D01*
X209724534Y-86695279D01*
X209805346Y-86829966D01*
X209886158Y-86910778D01*
X210020845Y-86991590D01*
X210101658Y-87018528D01*
X210209407Y-87018528D01*
X210317157Y-86964653D01*
X210371032Y-86910778D01*
X210424906Y-86803028D01*
X210424906Y-86749154D01*
X210236345Y-86560592D01*
X210128595Y-86668341D01*
X210721218Y-86560592D02*
X210155532Y-85994906D01*
X210371032Y-85779407D01*
X210451844Y-85752470D01*
X210505719Y-85752470D01*
X210586531Y-85779407D01*
X210667343Y-85860219D01*
X210694280Y-85941032D01*
X210694280Y-85994906D01*
X210667343Y-86075719D01*
X210451844Y-86291218D01*
X211152216Y-85375346D02*
X211529340Y-85752470D01*
X210802030Y-85294534D02*
X211071404Y-85833282D01*
X211421590Y-85483096D01*
X209913096Y-83751218D02*
X209832284Y-83778155D01*
X209751471Y-83858967D01*
X209697597Y-83966717D01*
X209697597Y-84074467D01*
X209724534Y-84155279D01*
X209805346Y-84289966D01*
X209886158Y-84370778D01*
X210020845Y-84451590D01*
X210101658Y-84478528D01*
X210209407Y-84478528D01*
X210317157Y-84424653D01*
X210371032Y-84370778D01*
X210424906Y-84263028D01*
X210424906Y-84209154D01*
X210236345Y-84020592D01*
X210128595Y-84128341D01*
X210721218Y-84020592D02*
X210155532Y-83454906D01*
X210371032Y-83239407D01*
X210451844Y-83212470D01*
X210505719Y-83212470D01*
X210586531Y-83239407D01*
X210667343Y-83320219D01*
X210694280Y-83401032D01*
X210694280Y-83454906D01*
X210667343Y-83535719D01*
X210451844Y-83751218D01*
X210667343Y-82943096D02*
X211017529Y-82592910D01*
X211044467Y-82996971D01*
X211125279Y-82916158D01*
X211206091Y-82889221D01*
X211259966Y-82889221D01*
X211340778Y-82916158D01*
X211475465Y-83050845D01*
X211502402Y-83131658D01*
X211502402Y-83185532D01*
X211475465Y-83266345D01*
X211313841Y-83427969D01*
X211233028Y-83454906D01*
X211179154Y-83454906D01*
X209913096Y-73591218D02*
X209832284Y-73618155D01*
X209751471Y-73698967D01*
X209697597Y-73806717D01*
X209697597Y-73914467D01*
X209724534Y-73995279D01*
X209805346Y-74129966D01*
X209886158Y-74210778D01*
X210020845Y-74291590D01*
X210101658Y-74318528D01*
X210209407Y-74318528D01*
X210317157Y-74264653D01*
X210371032Y-74210778D01*
X210424906Y-74103028D01*
X210424906Y-74049154D01*
X210236345Y-73860592D01*
X210128595Y-73968341D01*
X210721218Y-73860592D02*
X210155532Y-73294906D01*
X210371032Y-73079407D01*
X210451844Y-73052470D01*
X210505719Y-73052470D01*
X210586531Y-73079407D01*
X210667343Y-73160219D01*
X210694280Y-73241032D01*
X210694280Y-73294906D01*
X210667343Y-73375719D01*
X210451844Y-73591218D01*
X210828967Y-72621471D02*
X210882842Y-72567597D01*
X210963654Y-72540659D01*
X211017529Y-72540659D01*
X211098341Y-72567597D01*
X211233028Y-72648409D01*
X211367715Y-72783096D01*
X211448528Y-72917783D01*
X211475465Y-72998595D01*
X211475465Y-73052470D01*
X211448528Y-73133282D01*
X211394653Y-73187157D01*
X211313841Y-73214094D01*
X211259966Y-73214094D01*
X211179154Y-73187157D01*
X211044467Y-73106345D01*
X210909780Y-72971658D01*
X210828967Y-72836971D01*
X210802030Y-72756158D01*
X210802030Y-72702284D01*
X210828967Y-72621471D01*
X209813096Y-81211218D02*
X209732284Y-81238155D01*
X209651471Y-81318967D01*
X209597597Y-81426717D01*
X209597597Y-81534467D01*
X209624534Y-81615279D01*
X209705346Y-81749966D01*
X209786158Y-81830778D01*
X209920845Y-81911590D01*
X210001658Y-81938528D01*
X210109407Y-81938528D01*
X210217157Y-81884653D01*
X210271032Y-81830778D01*
X210324906Y-81723028D01*
X210324906Y-81669154D01*
X210136345Y-81480592D01*
X210028595Y-81588341D01*
X210621218Y-81480592D02*
X210055532Y-80914906D01*
X210271032Y-80699407D01*
X210351844Y-80672470D01*
X210405719Y-80672470D01*
X210486531Y-80699407D01*
X210567343Y-80780219D01*
X210594280Y-80861032D01*
X210594280Y-80914906D01*
X210567343Y-80995719D01*
X210351844Y-81211218D01*
X210648155Y-80430033D02*
X210648155Y-80376158D01*
X210675093Y-80295346D01*
X210809780Y-80160659D01*
X210890592Y-80133722D01*
X210944467Y-80133722D01*
X211025279Y-80160659D01*
X211079154Y-80214534D01*
X211133028Y-80322284D01*
X211133028Y-80968781D01*
X211483215Y-80618595D01*
X209813096Y-76121218D02*
X209732284Y-76148155D01*
X209651471Y-76228967D01*
X209597597Y-76336717D01*
X209597597Y-76444467D01*
X209624534Y-76525279D01*
X209705346Y-76659966D01*
X209786158Y-76740778D01*
X209920845Y-76821590D01*
X210001658Y-76848528D01*
X210109407Y-76848528D01*
X210217157Y-76794653D01*
X210271032Y-76740778D01*
X210324906Y-76633028D01*
X210324906Y-76579154D01*
X210136345Y-76390592D01*
X210028595Y-76498341D01*
X210621218Y-76390592D02*
X210055532Y-75824906D01*
X210271032Y-75609407D01*
X210351844Y-75582470D01*
X210405719Y-75582470D01*
X210486531Y-75609407D01*
X210567343Y-75690219D01*
X210594280Y-75771032D01*
X210594280Y-75824906D01*
X210567343Y-75905719D01*
X210351844Y-76121218D01*
X211483215Y-75528595D02*
X211159966Y-75851844D01*
X211321590Y-75690219D02*
X210755905Y-75124534D01*
X210782842Y-75259221D01*
X210782842Y-75366971D01*
X210755905Y-75447783D01*
X193738095Y-104502380D02*
X193738095Y-105311904D01*
X193785714Y-105407142D01*
X193833333Y-105454761D01*
X193928571Y-105502380D01*
X194119047Y-105502380D01*
X194214285Y-105454761D01*
X194261904Y-105407142D01*
X194309523Y-105311904D01*
X194309523Y-104502380D01*
X195261904Y-104502380D02*
X194785714Y-104502380D01*
X194738095Y-104978571D01*
X194785714Y-104930952D01*
X194880952Y-104883333D01*
X195119047Y-104883333D01*
X195214285Y-104930952D01*
X195261904Y-104978571D01*
X195309523Y-105073809D01*
X195309523Y-105311904D01*
X195261904Y-105407142D01*
X195214285Y-105454761D01*
X195119047Y-105502380D01*
X194880952Y-105502380D01*
X194785714Y-105454761D01*
X194738095Y-105407142D01*
X193838095Y-76702380D02*
X193838095Y-77511904D01*
X193885714Y-77607142D01*
X193933333Y-77654761D01*
X194028571Y-77702380D01*
X194219047Y-77702380D01*
X194314285Y-77654761D01*
X194361904Y-77607142D01*
X194409523Y-77511904D01*
X194409523Y-76702380D01*
X195314285Y-77035714D02*
X195314285Y-77702380D01*
X195076190Y-76654761D02*
X194838095Y-77369047D01*
X195457142Y-77369047D01*
X166458095Y-82722380D02*
X166458095Y-83531904D01*
X166505714Y-83627142D01*
X166553333Y-83674761D01*
X166648571Y-83722380D01*
X166839047Y-83722380D01*
X166934285Y-83674761D01*
X166981904Y-83627142D01*
X167029523Y-83531904D01*
X167029523Y-82722380D01*
X167410476Y-82722380D02*
X168029523Y-82722380D01*
X167696190Y-83103333D01*
X167839047Y-83103333D01*
X167934285Y-83150952D01*
X167981904Y-83198571D01*
X168029523Y-83293809D01*
X168029523Y-83531904D01*
X167981904Y-83627142D01*
X167934285Y-83674761D01*
X167839047Y-83722380D01*
X167553333Y-83722380D01*
X167458095Y-83674761D01*
X167410476Y-83627142D01*
X247338095Y-97002380D02*
X247338095Y-97811904D01*
X247385714Y-97907142D01*
X247433333Y-97954761D01*
X247528571Y-98002380D01*
X247719047Y-98002380D01*
X247814285Y-97954761D01*
X247861904Y-97907142D01*
X247909523Y-97811904D01*
X247909523Y-97002380D01*
X248338095Y-97097619D02*
X248385714Y-97050000D01*
X248480952Y-97002380D01*
X248719047Y-97002380D01*
X248814285Y-97050000D01*
X248861904Y-97097619D01*
X248909523Y-97192857D01*
X248909523Y-97288095D01*
X248861904Y-97430952D01*
X248290476Y-98002380D01*
X248909523Y-98002380D01*
X251838095Y-71152380D02*
X251838095Y-71961904D01*
X251885714Y-72057142D01*
X251933333Y-72104761D01*
X252028571Y-72152380D01*
X252219047Y-72152380D01*
X252314285Y-72104761D01*
X252361904Y-72057142D01*
X252409523Y-71961904D01*
X252409523Y-71152380D01*
X253409523Y-72152380D02*
X252838095Y-72152380D01*
X253123809Y-72152380D02*
X253123809Y-71152380D01*
X253028571Y-71295238D01*
X252933333Y-71390476D01*
X252838095Y-71438095D01*
X201402380Y-106866666D02*
X200926190Y-107200000D01*
X201402380Y-107438095D02*
X200402380Y-107438095D01*
X200402380Y-107057142D01*
X200450000Y-106961904D01*
X200497619Y-106914285D01*
X200592857Y-106866666D01*
X200735714Y-106866666D01*
X200830952Y-106914285D01*
X200878571Y-106961904D01*
X200926190Y-107057142D01*
X200926190Y-107438095D01*
X200402380Y-106009523D02*
X200402380Y-106200000D01*
X200450000Y-106295238D01*
X200497619Y-106342857D01*
X200640476Y-106438095D01*
X200830952Y-106485714D01*
X201211904Y-106485714D01*
X201307142Y-106438095D01*
X201354761Y-106390476D01*
X201402380Y-106295238D01*
X201402380Y-106104761D01*
X201354761Y-106009523D01*
X201307142Y-105961904D01*
X201211904Y-105914285D01*
X200973809Y-105914285D01*
X200878571Y-105961904D01*
X200830952Y-106009523D01*
X200783333Y-106104761D01*
X200783333Y-106295238D01*
X200830952Y-106390476D01*
X200878571Y-106438095D01*
X200973809Y-106485714D01*
X190733333Y-105502380D02*
X190400000Y-105026190D01*
X190161904Y-105502380D02*
X190161904Y-104502380D01*
X190542857Y-104502380D01*
X190638095Y-104550000D01*
X190685714Y-104597619D01*
X190733333Y-104692857D01*
X190733333Y-104835714D01*
X190685714Y-104930952D01*
X190638095Y-104978571D01*
X190542857Y-105026190D01*
X190161904Y-105026190D01*
X191638095Y-104502380D02*
X191161904Y-104502380D01*
X191114285Y-104978571D01*
X191161904Y-104930952D01*
X191257142Y-104883333D01*
X191495238Y-104883333D01*
X191590476Y-104930952D01*
X191638095Y-104978571D01*
X191685714Y-105073809D01*
X191685714Y-105311904D01*
X191638095Y-105407142D01*
X191590476Y-105454761D01*
X191495238Y-105502380D01*
X191257142Y-105502380D01*
X191161904Y-105454761D01*
X191114285Y-105407142D01*
X258802380Y-101991666D02*
X258326190Y-102325000D01*
X258802380Y-102563095D02*
X257802380Y-102563095D01*
X257802380Y-102182142D01*
X257850000Y-102086904D01*
X257897619Y-102039285D01*
X257992857Y-101991666D01*
X258135714Y-101991666D01*
X258230952Y-102039285D01*
X258278571Y-102086904D01*
X258326190Y-102182142D01*
X258326190Y-102563095D01*
X258135714Y-101134523D02*
X258802380Y-101134523D01*
X257754761Y-101372619D02*
X258469047Y-101610714D01*
X258469047Y-100991666D01*
X246533333Y-69052380D02*
X246200000Y-68576190D01*
X245961904Y-69052380D02*
X245961904Y-68052380D01*
X246342857Y-68052380D01*
X246438095Y-68100000D01*
X246485714Y-68147619D01*
X246533333Y-68242857D01*
X246533333Y-68385714D01*
X246485714Y-68480952D01*
X246438095Y-68528571D01*
X246342857Y-68576190D01*
X245961904Y-68576190D01*
X246914285Y-68147619D02*
X246961904Y-68100000D01*
X247057142Y-68052380D01*
X247295238Y-68052380D01*
X247390476Y-68100000D01*
X247438095Y-68147619D01*
X247485714Y-68242857D01*
X247485714Y-68338095D01*
X247438095Y-68480952D01*
X246866666Y-69052380D01*
X247485714Y-69052380D01*
X245602380Y-95866666D02*
X245126190Y-96200000D01*
X245602380Y-96438095D02*
X244602380Y-96438095D01*
X244602380Y-96057142D01*
X244650000Y-95961904D01*
X244697619Y-95914285D01*
X244792857Y-95866666D01*
X244935714Y-95866666D01*
X245030952Y-95914285D01*
X245078571Y-95961904D01*
X245126190Y-96057142D01*
X245126190Y-96438095D01*
X245602380Y-94914285D02*
X245602380Y-95485714D01*
X245602380Y-95200000D02*
X244602380Y-95200000D01*
X244745238Y-95295238D01*
X244840476Y-95390476D01*
X244888095Y-95485714D01*
X202922380Y-70533333D02*
X203636666Y-70533333D01*
X203779523Y-70580952D01*
X203874761Y-70676190D01*
X203922380Y-70819047D01*
X203922380Y-70914285D01*
X203922380Y-69533333D02*
X203922380Y-70104761D01*
X203922380Y-69819047D02*
X202922380Y-69819047D01*
X203065238Y-69914285D01*
X203160476Y-70009523D01*
X203208095Y-70104761D01*
M02*
