G04 #@! TF.GenerationSoftware,KiCad,Pcbnew,5.1.5+dfsg1-2build2*
G04 #@! TF.CreationDate,2021-08-20T21:12:25+01:00*
G04 #@! TF.ProjectId,pico-rom-emulator-1,7069636f-2d72-46f6-9d2d-656d756c6174,rev?*
G04 #@! TF.SameCoordinates,Original*
G04 #@! TF.FileFunction,Legend,Bot*
G04 #@! TF.FilePolarity,Positive*
%FSLAX46Y46*%
G04 Gerber Fmt 4.6, Leading zero omitted, Abs format (unit mm)*
G04 Created by KiCad (PCBNEW 5.1.5+dfsg1-2build2) date 2021-08-20 21:12:25*
%MOMM*%
%LPD*%
G04 APERTURE LIST*
%ADD10C,0.120000*%
%ADD11C,0.150000*%
G04 APERTURE END LIST*
D10*
X238138748Y-75090000D02*
X238661252Y-75090000D01*
X238138748Y-76510000D02*
X238661252Y-76510000D01*
X247638748Y-103790000D02*
X248161252Y-103790000D01*
X247638748Y-105210000D02*
X248161252Y-105210000D01*
X167738748Y-97190000D02*
X168261252Y-97190000D01*
X167738748Y-98610000D02*
X168261252Y-98610000D01*
X246638748Y-79690000D02*
X247161252Y-79690000D01*
X246638748Y-81110000D02*
X247161252Y-81110000D01*
X194238748Y-112290000D02*
X194761252Y-112290000D01*
X194238748Y-113710000D02*
X194761252Y-113710000D01*
X195210000Y-84938748D02*
X195210000Y-85461252D01*
X193790000Y-84938748D02*
X193790000Y-85461252D01*
X248361252Y-76610000D02*
X247838748Y-76610000D01*
X248361252Y-75190000D02*
X247838748Y-75190000D01*
D11*
X238566666Y-77902380D02*
X238900000Y-77426190D01*
X239138095Y-77902380D02*
X239138095Y-76902380D01*
X238757142Y-76902380D01*
X238661904Y-76950000D01*
X238614285Y-76997619D01*
X238566666Y-77092857D01*
X238566666Y-77235714D01*
X238614285Y-77330952D01*
X238661904Y-77378571D01*
X238757142Y-77426190D01*
X239138095Y-77426190D01*
X238233333Y-76902380D02*
X237566666Y-76902380D01*
X237995238Y-77902380D01*
X248066666Y-106507142D02*
X248114285Y-106554761D01*
X248257142Y-106602380D01*
X248352380Y-106602380D01*
X248495238Y-106554761D01*
X248590476Y-106459523D01*
X248638095Y-106364285D01*
X248685714Y-106173809D01*
X248685714Y-106030952D01*
X248638095Y-105840476D01*
X248590476Y-105745238D01*
X248495238Y-105650000D01*
X248352380Y-105602380D01*
X248257142Y-105602380D01*
X248114285Y-105650000D01*
X248066666Y-105697619D01*
X247161904Y-105602380D02*
X247638095Y-105602380D01*
X247685714Y-106078571D01*
X247638095Y-106030952D01*
X247542857Y-105983333D01*
X247304761Y-105983333D01*
X247209523Y-106030952D01*
X247161904Y-106078571D01*
X247114285Y-106173809D01*
X247114285Y-106411904D01*
X247161904Y-106507142D01*
X247209523Y-106554761D01*
X247304761Y-106602380D01*
X247542857Y-106602380D01*
X247638095Y-106554761D01*
X247685714Y-106507142D01*
X168166666Y-99907142D02*
X168214285Y-99954761D01*
X168357142Y-100002380D01*
X168452380Y-100002380D01*
X168595238Y-99954761D01*
X168690476Y-99859523D01*
X168738095Y-99764285D01*
X168785714Y-99573809D01*
X168785714Y-99430952D01*
X168738095Y-99240476D01*
X168690476Y-99145238D01*
X168595238Y-99050000D01*
X168452380Y-99002380D01*
X168357142Y-99002380D01*
X168214285Y-99050000D01*
X168166666Y-99097619D01*
X167309523Y-99335714D02*
X167309523Y-100002380D01*
X167547619Y-98954761D02*
X167785714Y-99669047D01*
X167166666Y-99669047D01*
X247066666Y-82407142D02*
X247114285Y-82454761D01*
X247257142Y-82502380D01*
X247352380Y-82502380D01*
X247495238Y-82454761D01*
X247590476Y-82359523D01*
X247638095Y-82264285D01*
X247685714Y-82073809D01*
X247685714Y-81930952D01*
X247638095Y-81740476D01*
X247590476Y-81645238D01*
X247495238Y-81550000D01*
X247352380Y-81502380D01*
X247257142Y-81502380D01*
X247114285Y-81550000D01*
X247066666Y-81597619D01*
X246733333Y-81502380D02*
X246114285Y-81502380D01*
X246447619Y-81883333D01*
X246304761Y-81883333D01*
X246209523Y-81930952D01*
X246161904Y-81978571D01*
X246114285Y-82073809D01*
X246114285Y-82311904D01*
X246161904Y-82407142D01*
X246209523Y-82454761D01*
X246304761Y-82502380D01*
X246590476Y-82502380D01*
X246685714Y-82454761D01*
X246733333Y-82407142D01*
X194666666Y-115007142D02*
X194714285Y-115054761D01*
X194857142Y-115102380D01*
X194952380Y-115102380D01*
X195095238Y-115054761D01*
X195190476Y-114959523D01*
X195238095Y-114864285D01*
X195285714Y-114673809D01*
X195285714Y-114530952D01*
X195238095Y-114340476D01*
X195190476Y-114245238D01*
X195095238Y-114150000D01*
X194952380Y-114102380D01*
X194857142Y-114102380D01*
X194714285Y-114150000D01*
X194666666Y-114197619D01*
X194285714Y-114197619D02*
X194238095Y-114150000D01*
X194142857Y-114102380D01*
X193904761Y-114102380D01*
X193809523Y-114150000D01*
X193761904Y-114197619D01*
X193714285Y-114292857D01*
X193714285Y-114388095D01*
X193761904Y-114530952D01*
X194333333Y-115102380D01*
X193714285Y-115102380D01*
X193207142Y-85033333D02*
X193254761Y-84985714D01*
X193302380Y-84842857D01*
X193302380Y-84747619D01*
X193254761Y-84604761D01*
X193159523Y-84509523D01*
X193064285Y-84461904D01*
X192873809Y-84414285D01*
X192730952Y-84414285D01*
X192540476Y-84461904D01*
X192445238Y-84509523D01*
X192350000Y-84604761D01*
X192302380Y-84747619D01*
X192302380Y-84842857D01*
X192350000Y-84985714D01*
X192397619Y-85033333D01*
X193302380Y-85985714D02*
X193302380Y-85414285D01*
X193302380Y-85700000D02*
X192302380Y-85700000D01*
X192445238Y-85604761D01*
X192540476Y-85509523D01*
X192588095Y-85414285D01*
X248266666Y-74702380D02*
X248600000Y-74226190D01*
X248838095Y-74702380D02*
X248838095Y-73702380D01*
X248457142Y-73702380D01*
X248361904Y-73750000D01*
X248314285Y-73797619D01*
X248266666Y-73892857D01*
X248266666Y-74035714D01*
X248314285Y-74130952D01*
X248361904Y-74178571D01*
X248457142Y-74226190D01*
X248838095Y-74226190D01*
X247933333Y-73702380D02*
X247314285Y-73702380D01*
X247647619Y-74083333D01*
X247504761Y-74083333D01*
X247409523Y-74130952D01*
X247361904Y-74178571D01*
X247314285Y-74273809D01*
X247314285Y-74511904D01*
X247361904Y-74607142D01*
X247409523Y-74654761D01*
X247504761Y-74702380D01*
X247790476Y-74702380D01*
X247885714Y-74654761D01*
X247933333Y-74607142D01*
M02*
