G04 #@! TF.GenerationSoftware,KiCad,Pcbnew,5.1.5+dfsg1-2build2*
G04 #@! TF.CreationDate,2021-08-20T21:12:25+01:00*
G04 #@! TF.ProjectId,pico-rom-emulator-1,7069636f-2d72-46f6-9d2d-656d756c6174,rev?*
G04 #@! TF.SameCoordinates,Original*
G04 #@! TF.FileFunction,Soldermask,Top*
G04 #@! TF.FilePolarity,Negative*
%FSLAX46Y46*%
G04 Gerber Fmt 4.6, Leading zero omitted, Abs format (unit mm)*
G04 Created by KiCad (PCBNEW 5.1.5+dfsg1-2build2) date 2021-08-20 21:12:25*
%MOMM*%
%LPD*%
G04 APERTURE LIST*
%ADD10C,0.100000*%
G04 APERTURE END LIST*
D10*
G36*
X221761000Y-124201000D02*
G01*
X219959000Y-124201000D01*
X219959000Y-120599000D01*
X221761000Y-120599000D01*
X221761000Y-124201000D01*
G37*
G36*
X224301000Y-124201000D02*
G01*
X222499000Y-124201000D01*
X222499000Y-120599000D01*
X224301000Y-120599000D01*
X224301000Y-124201000D01*
G37*
G36*
X226841000Y-124201000D02*
G01*
X225039000Y-124201000D01*
X225039000Y-120599000D01*
X226841000Y-120599000D01*
X226841000Y-124201000D01*
G37*
G36*
X234991000Y-122631000D02*
G01*
X231389000Y-122631000D01*
X231389000Y-120829000D01*
X234991000Y-120829000D01*
X234991000Y-122631000D01*
G37*
G36*
X215411000Y-122631000D02*
G01*
X211809000Y-122631000D01*
X211809000Y-120829000D01*
X215411000Y-120829000D01*
X215411000Y-122631000D01*
G37*
G36*
X244921531Y-120701544D02*
G01*
X245082812Y-120733624D01*
X245246784Y-120801544D01*
X245394354Y-120900147D01*
X245519853Y-121025646D01*
X245618456Y-121173216D01*
X245686376Y-121337188D01*
X245721000Y-121511259D01*
X245721000Y-121688741D01*
X245686376Y-121862812D01*
X245618456Y-122026784D01*
X245519853Y-122174354D01*
X245394354Y-122299853D01*
X245246784Y-122398456D01*
X245082812Y-122466376D01*
X244933512Y-122496073D01*
X244908742Y-122501000D01*
X244731258Y-122501000D01*
X244706488Y-122496073D01*
X244557188Y-122466376D01*
X244393216Y-122398456D01*
X244245646Y-122299853D01*
X244120147Y-122174354D01*
X244021544Y-122026784D01*
X243953624Y-121862812D01*
X243919000Y-121688741D01*
X243919000Y-121511259D01*
X243953624Y-121337188D01*
X244021544Y-121173216D01*
X244120147Y-121025646D01*
X244245646Y-120900147D01*
X244393216Y-120801544D01*
X244557188Y-120733624D01*
X244718469Y-120701544D01*
X244731258Y-120699000D01*
X244908742Y-120699000D01*
X244921531Y-120701544D01*
G37*
G36*
X250801000Y-122501000D02*
G01*
X248999000Y-122501000D01*
X248999000Y-120699000D01*
X250801000Y-120699000D01*
X250801000Y-122501000D01*
G37*
G36*
X247461531Y-120701544D02*
G01*
X247622812Y-120733624D01*
X247786784Y-120801544D01*
X247934354Y-120900147D01*
X248059853Y-121025646D01*
X248158456Y-121173216D01*
X248226376Y-121337188D01*
X248261000Y-121511259D01*
X248261000Y-121688741D01*
X248226376Y-121862812D01*
X248158456Y-122026784D01*
X248059853Y-122174354D01*
X247934354Y-122299853D01*
X247786784Y-122398456D01*
X247622812Y-122466376D01*
X247473512Y-122496073D01*
X247448742Y-122501000D01*
X247271258Y-122501000D01*
X247246488Y-122496073D01*
X247097188Y-122466376D01*
X246933216Y-122398456D01*
X246785646Y-122299853D01*
X246660147Y-122174354D01*
X246561544Y-122026784D01*
X246493624Y-121862812D01*
X246459000Y-121688741D01*
X246459000Y-121511259D01*
X246493624Y-121337188D01*
X246561544Y-121173216D01*
X246660147Y-121025646D01*
X246785646Y-120900147D01*
X246933216Y-120801544D01*
X247097188Y-120733624D01*
X247258469Y-120701544D01*
X247271258Y-120699000D01*
X247448742Y-120699000D01*
X247461531Y-120701544D01*
G37*
G36*
X215411000Y-120091000D02*
G01*
X211809000Y-120091000D01*
X211809000Y-118289000D01*
X215411000Y-118289000D01*
X215411000Y-120091000D01*
G37*
G36*
X234991000Y-120091000D02*
G01*
X231389000Y-120091000D01*
X231389000Y-118289000D01*
X234991000Y-118289000D01*
X234991000Y-120091000D01*
G37*
G36*
X175088228Y-117801703D02*
G01*
X175243100Y-117865853D01*
X175382481Y-117958985D01*
X175501015Y-118077519D01*
X175594147Y-118216900D01*
X175658297Y-118371772D01*
X175691000Y-118536184D01*
X175691000Y-118703816D01*
X175658297Y-118868228D01*
X175594147Y-119023100D01*
X175501015Y-119162481D01*
X175382481Y-119281015D01*
X175243100Y-119374147D01*
X175088228Y-119438297D01*
X174923816Y-119471000D01*
X174756184Y-119471000D01*
X174591772Y-119438297D01*
X174436900Y-119374147D01*
X174297519Y-119281015D01*
X174178985Y-119162481D01*
X174085853Y-119023100D01*
X174021703Y-118868228D01*
X173989000Y-118703816D01*
X173989000Y-118536184D01*
X174021703Y-118371772D01*
X174085853Y-118216900D01*
X174178985Y-118077519D01*
X174297519Y-117958985D01*
X174436900Y-117865853D01*
X174591772Y-117801703D01*
X174756184Y-117769000D01*
X174923816Y-117769000D01*
X175088228Y-117801703D01*
G37*
G36*
X159848228Y-117801703D02*
G01*
X160003100Y-117865853D01*
X160142481Y-117958985D01*
X160261015Y-118077519D01*
X160354147Y-118216900D01*
X160418297Y-118371772D01*
X160451000Y-118536184D01*
X160451000Y-118703816D01*
X160418297Y-118868228D01*
X160354147Y-119023100D01*
X160261015Y-119162481D01*
X160142481Y-119281015D01*
X160003100Y-119374147D01*
X159848228Y-119438297D01*
X159683816Y-119471000D01*
X159516184Y-119471000D01*
X159351772Y-119438297D01*
X159196900Y-119374147D01*
X159057519Y-119281015D01*
X158938985Y-119162481D01*
X158845853Y-119023100D01*
X158781703Y-118868228D01*
X158749000Y-118703816D01*
X158749000Y-118536184D01*
X158781703Y-118371772D01*
X158845853Y-118216900D01*
X158938985Y-118077519D01*
X159057519Y-117958985D01*
X159196900Y-117865853D01*
X159351772Y-117801703D01*
X159516184Y-117769000D01*
X159683816Y-117769000D01*
X159848228Y-117801703D01*
G37*
G36*
X190834928Y-117766764D02*
G01*
X190856009Y-117773160D01*
X190875445Y-117783548D01*
X190892476Y-117797524D01*
X190906452Y-117814555D01*
X190916840Y-117833991D01*
X190923236Y-117855072D01*
X190926000Y-117883140D01*
X190926000Y-118346860D01*
X190923236Y-118374928D01*
X190916840Y-118396009D01*
X190906452Y-118415445D01*
X190892476Y-118432476D01*
X190875445Y-118446452D01*
X190856009Y-118456840D01*
X190834928Y-118463236D01*
X190806860Y-118466000D01*
X188893140Y-118466000D01*
X188865072Y-118463236D01*
X188843991Y-118456840D01*
X188824555Y-118446452D01*
X188807524Y-118432476D01*
X188793548Y-118415445D01*
X188783160Y-118396009D01*
X188776764Y-118374928D01*
X188774000Y-118346860D01*
X188774000Y-117883140D01*
X188776764Y-117855072D01*
X188783160Y-117833991D01*
X188793548Y-117814555D01*
X188807524Y-117797524D01*
X188824555Y-117783548D01*
X188843991Y-117773160D01*
X188865072Y-117766764D01*
X188893140Y-117764000D01*
X190806860Y-117764000D01*
X190834928Y-117766764D01*
G37*
G36*
X200134928Y-117766764D02*
G01*
X200156009Y-117773160D01*
X200175445Y-117783548D01*
X200192476Y-117797524D01*
X200206452Y-117814555D01*
X200216840Y-117833991D01*
X200223236Y-117855072D01*
X200226000Y-117883140D01*
X200226000Y-118346860D01*
X200223236Y-118374928D01*
X200216840Y-118396009D01*
X200206452Y-118415445D01*
X200192476Y-118432476D01*
X200175445Y-118446452D01*
X200156009Y-118456840D01*
X200134928Y-118463236D01*
X200106860Y-118466000D01*
X198193140Y-118466000D01*
X198165072Y-118463236D01*
X198143991Y-118456840D01*
X198124555Y-118446452D01*
X198107524Y-118432476D01*
X198093548Y-118415445D01*
X198083160Y-118396009D01*
X198076764Y-118374928D01*
X198074000Y-118346860D01*
X198074000Y-117883140D01*
X198076764Y-117855072D01*
X198083160Y-117833991D01*
X198093548Y-117814555D01*
X198107524Y-117797524D01*
X198124555Y-117783548D01*
X198143991Y-117773160D01*
X198165072Y-117766764D01*
X198193140Y-117764000D01*
X200106860Y-117764000D01*
X200134928Y-117766764D01*
G37*
G36*
X234991000Y-117551000D02*
G01*
X231389000Y-117551000D01*
X231389000Y-115749000D01*
X234991000Y-115749000D01*
X234991000Y-117551000D01*
G37*
G36*
X215411000Y-117551000D02*
G01*
X211809000Y-117551000D01*
X211809000Y-115749000D01*
X215411000Y-115749000D01*
X215411000Y-117551000D01*
G37*
G36*
X200134928Y-116496764D02*
G01*
X200156009Y-116503160D01*
X200175445Y-116513548D01*
X200192476Y-116527524D01*
X200206452Y-116544555D01*
X200216840Y-116563991D01*
X200223236Y-116585072D01*
X200226000Y-116613140D01*
X200226000Y-117076860D01*
X200223236Y-117104928D01*
X200216840Y-117126009D01*
X200206452Y-117145445D01*
X200192476Y-117162476D01*
X200175445Y-117176452D01*
X200156009Y-117186840D01*
X200134928Y-117193236D01*
X200106860Y-117196000D01*
X198193140Y-117196000D01*
X198165072Y-117193236D01*
X198143991Y-117186840D01*
X198124555Y-117176452D01*
X198107524Y-117162476D01*
X198093548Y-117145445D01*
X198083160Y-117126009D01*
X198076764Y-117104928D01*
X198074000Y-117076860D01*
X198074000Y-116613140D01*
X198076764Y-116585072D01*
X198083160Y-116563991D01*
X198093548Y-116544555D01*
X198107524Y-116527524D01*
X198124555Y-116513548D01*
X198143991Y-116503160D01*
X198165072Y-116496764D01*
X198193140Y-116494000D01*
X200106860Y-116494000D01*
X200134928Y-116496764D01*
G37*
G36*
X190834928Y-116496764D02*
G01*
X190856009Y-116503160D01*
X190875445Y-116513548D01*
X190892476Y-116527524D01*
X190906452Y-116544555D01*
X190916840Y-116563991D01*
X190923236Y-116585072D01*
X190926000Y-116613140D01*
X190926000Y-117076860D01*
X190923236Y-117104928D01*
X190916840Y-117126009D01*
X190906452Y-117145445D01*
X190892476Y-117162476D01*
X190875445Y-117176452D01*
X190856009Y-117186840D01*
X190834928Y-117193236D01*
X190806860Y-117196000D01*
X188893140Y-117196000D01*
X188865072Y-117193236D01*
X188843991Y-117186840D01*
X188824555Y-117176452D01*
X188807524Y-117162476D01*
X188793548Y-117145445D01*
X188783160Y-117126009D01*
X188776764Y-117104928D01*
X188774000Y-117076860D01*
X188774000Y-116613140D01*
X188776764Y-116585072D01*
X188783160Y-116563991D01*
X188793548Y-116544555D01*
X188807524Y-116527524D01*
X188824555Y-116513548D01*
X188843991Y-116503160D01*
X188865072Y-116496764D01*
X188893140Y-116494000D01*
X190806860Y-116494000D01*
X190834928Y-116496764D01*
G37*
G36*
X159848228Y-115261703D02*
G01*
X160003100Y-115325853D01*
X160142481Y-115418985D01*
X160261015Y-115537519D01*
X160354147Y-115676900D01*
X160418297Y-115831772D01*
X160451000Y-115996184D01*
X160451000Y-116163816D01*
X160418297Y-116328228D01*
X160354147Y-116483100D01*
X160261015Y-116622481D01*
X160142481Y-116741015D01*
X160003100Y-116834147D01*
X159848228Y-116898297D01*
X159683816Y-116931000D01*
X159516184Y-116931000D01*
X159351772Y-116898297D01*
X159196900Y-116834147D01*
X159057519Y-116741015D01*
X158938985Y-116622481D01*
X158845853Y-116483100D01*
X158781703Y-116328228D01*
X158749000Y-116163816D01*
X158749000Y-115996184D01*
X158781703Y-115831772D01*
X158845853Y-115676900D01*
X158938985Y-115537519D01*
X159057519Y-115418985D01*
X159196900Y-115325853D01*
X159351772Y-115261703D01*
X159516184Y-115229000D01*
X159683816Y-115229000D01*
X159848228Y-115261703D01*
G37*
G36*
X175088228Y-115261703D02*
G01*
X175243100Y-115325853D01*
X175382481Y-115418985D01*
X175501015Y-115537519D01*
X175594147Y-115676900D01*
X175658297Y-115831772D01*
X175691000Y-115996184D01*
X175691000Y-116163816D01*
X175658297Y-116328228D01*
X175594147Y-116483100D01*
X175501015Y-116622481D01*
X175382481Y-116741015D01*
X175243100Y-116834147D01*
X175088228Y-116898297D01*
X174923816Y-116931000D01*
X174756184Y-116931000D01*
X174591772Y-116898297D01*
X174436900Y-116834147D01*
X174297519Y-116741015D01*
X174178985Y-116622481D01*
X174085853Y-116483100D01*
X174021703Y-116328228D01*
X173989000Y-116163816D01*
X173989000Y-115996184D01*
X174021703Y-115831772D01*
X174085853Y-115676900D01*
X174178985Y-115537519D01*
X174297519Y-115418985D01*
X174436900Y-115325853D01*
X174591772Y-115261703D01*
X174756184Y-115229000D01*
X174923816Y-115229000D01*
X175088228Y-115261703D01*
G37*
G36*
X200134928Y-115226764D02*
G01*
X200156009Y-115233160D01*
X200175445Y-115243548D01*
X200192476Y-115257524D01*
X200206452Y-115274555D01*
X200216840Y-115293991D01*
X200223236Y-115315072D01*
X200226000Y-115343140D01*
X200226000Y-115806860D01*
X200223236Y-115834928D01*
X200216840Y-115856009D01*
X200206452Y-115875445D01*
X200192476Y-115892476D01*
X200175445Y-115906452D01*
X200156009Y-115916840D01*
X200134928Y-115923236D01*
X200106860Y-115926000D01*
X198193140Y-115926000D01*
X198165072Y-115923236D01*
X198143991Y-115916840D01*
X198124555Y-115906452D01*
X198107524Y-115892476D01*
X198093548Y-115875445D01*
X198083160Y-115856009D01*
X198076764Y-115834928D01*
X198074000Y-115806860D01*
X198074000Y-115343140D01*
X198076764Y-115315072D01*
X198083160Y-115293991D01*
X198093548Y-115274555D01*
X198107524Y-115257524D01*
X198124555Y-115243548D01*
X198143991Y-115233160D01*
X198165072Y-115226764D01*
X198193140Y-115224000D01*
X200106860Y-115224000D01*
X200134928Y-115226764D01*
G37*
G36*
X190834928Y-115226764D02*
G01*
X190856009Y-115233160D01*
X190875445Y-115243548D01*
X190892476Y-115257524D01*
X190906452Y-115274555D01*
X190916840Y-115293991D01*
X190923236Y-115315072D01*
X190926000Y-115343140D01*
X190926000Y-115806860D01*
X190923236Y-115834928D01*
X190916840Y-115856009D01*
X190906452Y-115875445D01*
X190892476Y-115892476D01*
X190875445Y-115906452D01*
X190856009Y-115916840D01*
X190834928Y-115923236D01*
X190806860Y-115926000D01*
X188893140Y-115926000D01*
X188865072Y-115923236D01*
X188843991Y-115916840D01*
X188824555Y-115906452D01*
X188807524Y-115892476D01*
X188793548Y-115875445D01*
X188783160Y-115856009D01*
X188776764Y-115834928D01*
X188774000Y-115806860D01*
X188774000Y-115343140D01*
X188776764Y-115315072D01*
X188783160Y-115293991D01*
X188793548Y-115274555D01*
X188807524Y-115257524D01*
X188824555Y-115243548D01*
X188843991Y-115233160D01*
X188865072Y-115226764D01*
X188893140Y-115224000D01*
X190806860Y-115224000D01*
X190834928Y-115226764D01*
G37*
G36*
X215411000Y-115011000D02*
G01*
X211809000Y-115011000D01*
X211809000Y-113209000D01*
X215411000Y-113209000D01*
X215411000Y-115011000D01*
G37*
G36*
X234991000Y-115011000D02*
G01*
X231389000Y-115011000D01*
X231389000Y-113209000D01*
X234991000Y-113209000D01*
X234991000Y-115011000D01*
G37*
G36*
X190834928Y-113956764D02*
G01*
X190856009Y-113963160D01*
X190875445Y-113973548D01*
X190892476Y-113987524D01*
X190906452Y-114004555D01*
X190916840Y-114023991D01*
X190923236Y-114045072D01*
X190926000Y-114073140D01*
X190926000Y-114536860D01*
X190923236Y-114564928D01*
X190916840Y-114586009D01*
X190906452Y-114605445D01*
X190892476Y-114622476D01*
X190875445Y-114636452D01*
X190856009Y-114646840D01*
X190834928Y-114653236D01*
X190806860Y-114656000D01*
X188893140Y-114656000D01*
X188865072Y-114653236D01*
X188843991Y-114646840D01*
X188824555Y-114636452D01*
X188807524Y-114622476D01*
X188793548Y-114605445D01*
X188783160Y-114586009D01*
X188776764Y-114564928D01*
X188774000Y-114536860D01*
X188774000Y-114073140D01*
X188776764Y-114045072D01*
X188783160Y-114023991D01*
X188793548Y-114004555D01*
X188807524Y-113987524D01*
X188824555Y-113973548D01*
X188843991Y-113963160D01*
X188865072Y-113956764D01*
X188893140Y-113954000D01*
X190806860Y-113954000D01*
X190834928Y-113956764D01*
G37*
G36*
X200134928Y-113956764D02*
G01*
X200156009Y-113963160D01*
X200175445Y-113973548D01*
X200192476Y-113987524D01*
X200206452Y-114004555D01*
X200216840Y-114023991D01*
X200223236Y-114045072D01*
X200226000Y-114073140D01*
X200226000Y-114536860D01*
X200223236Y-114564928D01*
X200216840Y-114586009D01*
X200206452Y-114605445D01*
X200192476Y-114622476D01*
X200175445Y-114636452D01*
X200156009Y-114646840D01*
X200134928Y-114653236D01*
X200106860Y-114656000D01*
X198193140Y-114656000D01*
X198165072Y-114653236D01*
X198143991Y-114646840D01*
X198124555Y-114636452D01*
X198107524Y-114622476D01*
X198093548Y-114605445D01*
X198083160Y-114586009D01*
X198076764Y-114564928D01*
X198074000Y-114536860D01*
X198074000Y-114073140D01*
X198076764Y-114045072D01*
X198083160Y-114023991D01*
X198093548Y-114004555D01*
X198107524Y-113987524D01*
X198124555Y-113973548D01*
X198143991Y-113963160D01*
X198165072Y-113956764D01*
X198193140Y-113954000D01*
X200106860Y-113954000D01*
X200134928Y-113956764D01*
G37*
G36*
X159848228Y-112721703D02*
G01*
X160003100Y-112785853D01*
X160142481Y-112878985D01*
X160261015Y-112997519D01*
X160354147Y-113136900D01*
X160418297Y-113291772D01*
X160451000Y-113456184D01*
X160451000Y-113623816D01*
X160418297Y-113788228D01*
X160354147Y-113943100D01*
X160261015Y-114082481D01*
X160142481Y-114201015D01*
X160003100Y-114294147D01*
X159848228Y-114358297D01*
X159683816Y-114391000D01*
X159516184Y-114391000D01*
X159351772Y-114358297D01*
X159196900Y-114294147D01*
X159057519Y-114201015D01*
X158938985Y-114082481D01*
X158845853Y-113943100D01*
X158781703Y-113788228D01*
X158749000Y-113623816D01*
X158749000Y-113456184D01*
X158781703Y-113291772D01*
X158845853Y-113136900D01*
X158938985Y-112997519D01*
X159057519Y-112878985D01*
X159196900Y-112785853D01*
X159351772Y-112721703D01*
X159516184Y-112689000D01*
X159683816Y-112689000D01*
X159848228Y-112721703D01*
G37*
G36*
X175088228Y-112721703D02*
G01*
X175243100Y-112785853D01*
X175382481Y-112878985D01*
X175501015Y-112997519D01*
X175594147Y-113136900D01*
X175658297Y-113291772D01*
X175691000Y-113456184D01*
X175691000Y-113623816D01*
X175658297Y-113788228D01*
X175594147Y-113943100D01*
X175501015Y-114082481D01*
X175382481Y-114201015D01*
X175243100Y-114294147D01*
X175088228Y-114358297D01*
X174923816Y-114391000D01*
X174756184Y-114391000D01*
X174591772Y-114358297D01*
X174436900Y-114294147D01*
X174297519Y-114201015D01*
X174178985Y-114082481D01*
X174085853Y-113943100D01*
X174021703Y-113788228D01*
X173989000Y-113623816D01*
X173989000Y-113456184D01*
X174021703Y-113291772D01*
X174085853Y-113136900D01*
X174178985Y-112997519D01*
X174297519Y-112878985D01*
X174436900Y-112785853D01*
X174591772Y-112721703D01*
X174756184Y-112689000D01*
X174923816Y-112689000D01*
X175088228Y-112721703D01*
G37*
G36*
X200134928Y-112686764D02*
G01*
X200156009Y-112693160D01*
X200175445Y-112703548D01*
X200192476Y-112717524D01*
X200206452Y-112734555D01*
X200216840Y-112753991D01*
X200223236Y-112775072D01*
X200226000Y-112803140D01*
X200226000Y-113266860D01*
X200223236Y-113294928D01*
X200216840Y-113316009D01*
X200206452Y-113335445D01*
X200192476Y-113352476D01*
X200175445Y-113366452D01*
X200156009Y-113376840D01*
X200134928Y-113383236D01*
X200106860Y-113386000D01*
X198193140Y-113386000D01*
X198165072Y-113383236D01*
X198143991Y-113376840D01*
X198124555Y-113366452D01*
X198107524Y-113352476D01*
X198093548Y-113335445D01*
X198083160Y-113316009D01*
X198076764Y-113294928D01*
X198074000Y-113266860D01*
X198074000Y-112803140D01*
X198076764Y-112775072D01*
X198083160Y-112753991D01*
X198093548Y-112734555D01*
X198107524Y-112717524D01*
X198124555Y-112703548D01*
X198143991Y-112693160D01*
X198165072Y-112686764D01*
X198193140Y-112684000D01*
X200106860Y-112684000D01*
X200134928Y-112686764D01*
G37*
G36*
X190834928Y-112686764D02*
G01*
X190856009Y-112693160D01*
X190875445Y-112703548D01*
X190892476Y-112717524D01*
X190906452Y-112734555D01*
X190916840Y-112753991D01*
X190923236Y-112775072D01*
X190926000Y-112803140D01*
X190926000Y-113266860D01*
X190923236Y-113294928D01*
X190916840Y-113316009D01*
X190906452Y-113335445D01*
X190892476Y-113352476D01*
X190875445Y-113366452D01*
X190856009Y-113376840D01*
X190834928Y-113383236D01*
X190806860Y-113386000D01*
X188893140Y-113386000D01*
X188865072Y-113383236D01*
X188843991Y-113376840D01*
X188824555Y-113366452D01*
X188807524Y-113352476D01*
X188793548Y-113335445D01*
X188783160Y-113316009D01*
X188776764Y-113294928D01*
X188774000Y-113266860D01*
X188774000Y-112803140D01*
X188776764Y-112775072D01*
X188783160Y-112753991D01*
X188793548Y-112734555D01*
X188807524Y-112717524D01*
X188824555Y-112703548D01*
X188843991Y-112693160D01*
X188865072Y-112686764D01*
X188893140Y-112684000D01*
X190806860Y-112684000D01*
X190834928Y-112686764D01*
G37*
G36*
X215411000Y-112471000D02*
G01*
X211809000Y-112471000D01*
X211809000Y-110669000D01*
X215411000Y-110669000D01*
X215411000Y-112471000D01*
G37*
G36*
X234991000Y-112471000D02*
G01*
X231389000Y-112471000D01*
X231389000Y-110669000D01*
X234991000Y-110669000D01*
X234991000Y-112471000D01*
G37*
G36*
X200134928Y-111416764D02*
G01*
X200156009Y-111423160D01*
X200175445Y-111433548D01*
X200192476Y-111447524D01*
X200206452Y-111464555D01*
X200216840Y-111483991D01*
X200223236Y-111505072D01*
X200226000Y-111533140D01*
X200226000Y-111996860D01*
X200223236Y-112024928D01*
X200216840Y-112046009D01*
X200206452Y-112065445D01*
X200192476Y-112082476D01*
X200175445Y-112096452D01*
X200156009Y-112106840D01*
X200134928Y-112113236D01*
X200106860Y-112116000D01*
X198193140Y-112116000D01*
X198165072Y-112113236D01*
X198143991Y-112106840D01*
X198124555Y-112096452D01*
X198107524Y-112082476D01*
X198093548Y-112065445D01*
X198083160Y-112046009D01*
X198076764Y-112024928D01*
X198074000Y-111996860D01*
X198074000Y-111533140D01*
X198076764Y-111505072D01*
X198083160Y-111483991D01*
X198093548Y-111464555D01*
X198107524Y-111447524D01*
X198124555Y-111433548D01*
X198143991Y-111423160D01*
X198165072Y-111416764D01*
X198193140Y-111414000D01*
X200106860Y-111414000D01*
X200134928Y-111416764D01*
G37*
G36*
X190834928Y-111416764D02*
G01*
X190856009Y-111423160D01*
X190875445Y-111433548D01*
X190892476Y-111447524D01*
X190906452Y-111464555D01*
X190916840Y-111483991D01*
X190923236Y-111505072D01*
X190926000Y-111533140D01*
X190926000Y-111996860D01*
X190923236Y-112024928D01*
X190916840Y-112046009D01*
X190906452Y-112065445D01*
X190892476Y-112082476D01*
X190875445Y-112096452D01*
X190856009Y-112106840D01*
X190834928Y-112113236D01*
X190806860Y-112116000D01*
X188893140Y-112116000D01*
X188865072Y-112113236D01*
X188843991Y-112106840D01*
X188824555Y-112096452D01*
X188807524Y-112082476D01*
X188793548Y-112065445D01*
X188783160Y-112046009D01*
X188776764Y-112024928D01*
X188774000Y-111996860D01*
X188774000Y-111533140D01*
X188776764Y-111505072D01*
X188783160Y-111483991D01*
X188793548Y-111464555D01*
X188807524Y-111447524D01*
X188824555Y-111433548D01*
X188843991Y-111423160D01*
X188865072Y-111416764D01*
X188893140Y-111414000D01*
X190806860Y-111414000D01*
X190834928Y-111416764D01*
G37*
G36*
X159848228Y-110181703D02*
G01*
X160003100Y-110245853D01*
X160142481Y-110338985D01*
X160261015Y-110457519D01*
X160354147Y-110596900D01*
X160418297Y-110751772D01*
X160451000Y-110916184D01*
X160451000Y-111083816D01*
X160418297Y-111248228D01*
X160354147Y-111403100D01*
X160261015Y-111542481D01*
X160142481Y-111661015D01*
X160003100Y-111754147D01*
X159848228Y-111818297D01*
X159683816Y-111851000D01*
X159516184Y-111851000D01*
X159351772Y-111818297D01*
X159196900Y-111754147D01*
X159057519Y-111661015D01*
X158938985Y-111542481D01*
X158845853Y-111403100D01*
X158781703Y-111248228D01*
X158749000Y-111083816D01*
X158749000Y-110916184D01*
X158781703Y-110751772D01*
X158845853Y-110596900D01*
X158938985Y-110457519D01*
X159057519Y-110338985D01*
X159196900Y-110245853D01*
X159351772Y-110181703D01*
X159516184Y-110149000D01*
X159683816Y-110149000D01*
X159848228Y-110181703D01*
G37*
G36*
X175088228Y-110181703D02*
G01*
X175243100Y-110245853D01*
X175382481Y-110338985D01*
X175501015Y-110457519D01*
X175594147Y-110596900D01*
X175658297Y-110751772D01*
X175691000Y-110916184D01*
X175691000Y-111083816D01*
X175658297Y-111248228D01*
X175594147Y-111403100D01*
X175501015Y-111542481D01*
X175382481Y-111661015D01*
X175243100Y-111754147D01*
X175088228Y-111818297D01*
X174923816Y-111851000D01*
X174756184Y-111851000D01*
X174591772Y-111818297D01*
X174436900Y-111754147D01*
X174297519Y-111661015D01*
X174178985Y-111542481D01*
X174085853Y-111403100D01*
X174021703Y-111248228D01*
X173989000Y-111083816D01*
X173989000Y-110916184D01*
X174021703Y-110751772D01*
X174085853Y-110596900D01*
X174178985Y-110457519D01*
X174297519Y-110338985D01*
X174436900Y-110245853D01*
X174591772Y-110181703D01*
X174756184Y-110149000D01*
X174923816Y-110149000D01*
X175088228Y-110181703D01*
G37*
G36*
X253734928Y-110266764D02*
G01*
X253756009Y-110273160D01*
X253775445Y-110283548D01*
X253792476Y-110297524D01*
X253806452Y-110314555D01*
X253816840Y-110333991D01*
X253823236Y-110355072D01*
X253826000Y-110383140D01*
X253826000Y-110846860D01*
X253823236Y-110874928D01*
X253816840Y-110896009D01*
X253806452Y-110915445D01*
X253792476Y-110932476D01*
X253775445Y-110946452D01*
X253756009Y-110956840D01*
X253734928Y-110963236D01*
X253706860Y-110966000D01*
X251793140Y-110966000D01*
X251765072Y-110963236D01*
X251743991Y-110956840D01*
X251724555Y-110946452D01*
X251707524Y-110932476D01*
X251693548Y-110915445D01*
X251683160Y-110896009D01*
X251676764Y-110874928D01*
X251674000Y-110846860D01*
X251674000Y-110383140D01*
X251676764Y-110355072D01*
X251683160Y-110333991D01*
X251693548Y-110314555D01*
X251707524Y-110297524D01*
X251724555Y-110283548D01*
X251743991Y-110273160D01*
X251765072Y-110266764D01*
X251793140Y-110264000D01*
X253706860Y-110264000D01*
X253734928Y-110266764D01*
G37*
G36*
X244434928Y-110266764D02*
G01*
X244456009Y-110273160D01*
X244475445Y-110283548D01*
X244492476Y-110297524D01*
X244506452Y-110314555D01*
X244516840Y-110333991D01*
X244523236Y-110355072D01*
X244526000Y-110383140D01*
X244526000Y-110846860D01*
X244523236Y-110874928D01*
X244516840Y-110896009D01*
X244506452Y-110915445D01*
X244492476Y-110932476D01*
X244475445Y-110946452D01*
X244456009Y-110956840D01*
X244434928Y-110963236D01*
X244406860Y-110966000D01*
X242493140Y-110966000D01*
X242465072Y-110963236D01*
X242443991Y-110956840D01*
X242424555Y-110946452D01*
X242407524Y-110932476D01*
X242393548Y-110915445D01*
X242383160Y-110896009D01*
X242376764Y-110874928D01*
X242374000Y-110846860D01*
X242374000Y-110383140D01*
X242376764Y-110355072D01*
X242383160Y-110333991D01*
X242393548Y-110314555D01*
X242407524Y-110297524D01*
X242424555Y-110283548D01*
X242443991Y-110273160D01*
X242465072Y-110266764D01*
X242493140Y-110264000D01*
X244406860Y-110264000D01*
X244434928Y-110266764D01*
G37*
G36*
X200134928Y-110146764D02*
G01*
X200156009Y-110153160D01*
X200175445Y-110163548D01*
X200192476Y-110177524D01*
X200206452Y-110194555D01*
X200216840Y-110213991D01*
X200223236Y-110235072D01*
X200226000Y-110263140D01*
X200226000Y-110726860D01*
X200223236Y-110754928D01*
X200216840Y-110776009D01*
X200206452Y-110795445D01*
X200192476Y-110812476D01*
X200175445Y-110826452D01*
X200156009Y-110836840D01*
X200134928Y-110843236D01*
X200106860Y-110846000D01*
X198193140Y-110846000D01*
X198165072Y-110843236D01*
X198143991Y-110836840D01*
X198124555Y-110826452D01*
X198107524Y-110812476D01*
X198093548Y-110795445D01*
X198083160Y-110776009D01*
X198076764Y-110754928D01*
X198074000Y-110726860D01*
X198074000Y-110263140D01*
X198076764Y-110235072D01*
X198083160Y-110213991D01*
X198093548Y-110194555D01*
X198107524Y-110177524D01*
X198124555Y-110163548D01*
X198143991Y-110153160D01*
X198165072Y-110146764D01*
X198193140Y-110144000D01*
X200106860Y-110144000D01*
X200134928Y-110146764D01*
G37*
G36*
X190834928Y-110146764D02*
G01*
X190856009Y-110153160D01*
X190875445Y-110163548D01*
X190892476Y-110177524D01*
X190906452Y-110194555D01*
X190916840Y-110213991D01*
X190923236Y-110235072D01*
X190926000Y-110263140D01*
X190926000Y-110726860D01*
X190923236Y-110754928D01*
X190916840Y-110776009D01*
X190906452Y-110795445D01*
X190892476Y-110812476D01*
X190875445Y-110826452D01*
X190856009Y-110836840D01*
X190834928Y-110843236D01*
X190806860Y-110846000D01*
X188893140Y-110846000D01*
X188865072Y-110843236D01*
X188843991Y-110836840D01*
X188824555Y-110826452D01*
X188807524Y-110812476D01*
X188793548Y-110795445D01*
X188783160Y-110776009D01*
X188776764Y-110754928D01*
X188774000Y-110726860D01*
X188774000Y-110263140D01*
X188776764Y-110235072D01*
X188783160Y-110213991D01*
X188793548Y-110194555D01*
X188807524Y-110177524D01*
X188824555Y-110163548D01*
X188843991Y-110153160D01*
X188865072Y-110146764D01*
X188893140Y-110144000D01*
X190806860Y-110144000D01*
X190834928Y-110146764D01*
G37*
G36*
X215411000Y-109931000D02*
G01*
X211809000Y-109931000D01*
X211809000Y-108129000D01*
X215411000Y-108129000D01*
X215411000Y-109931000D01*
G37*
G36*
X234991000Y-109931000D02*
G01*
X231389000Y-109931000D01*
X231389000Y-108129000D01*
X234991000Y-108129000D01*
X234991000Y-109931000D01*
G37*
G36*
X253734928Y-108996764D02*
G01*
X253756009Y-109003160D01*
X253775445Y-109013548D01*
X253792476Y-109027524D01*
X253806452Y-109044555D01*
X253816840Y-109063991D01*
X253823236Y-109085072D01*
X253826000Y-109113140D01*
X253826000Y-109576860D01*
X253823236Y-109604928D01*
X253816840Y-109626009D01*
X253806452Y-109645445D01*
X253792476Y-109662476D01*
X253775445Y-109676452D01*
X253756009Y-109686840D01*
X253734928Y-109693236D01*
X253706860Y-109696000D01*
X251793140Y-109696000D01*
X251765072Y-109693236D01*
X251743991Y-109686840D01*
X251724555Y-109676452D01*
X251707524Y-109662476D01*
X251693548Y-109645445D01*
X251683160Y-109626009D01*
X251676764Y-109604928D01*
X251674000Y-109576860D01*
X251674000Y-109113140D01*
X251676764Y-109085072D01*
X251683160Y-109063991D01*
X251693548Y-109044555D01*
X251707524Y-109027524D01*
X251724555Y-109013548D01*
X251743991Y-109003160D01*
X251765072Y-108996764D01*
X251793140Y-108994000D01*
X253706860Y-108994000D01*
X253734928Y-108996764D01*
G37*
G36*
X244434928Y-108996764D02*
G01*
X244456009Y-109003160D01*
X244475445Y-109013548D01*
X244492476Y-109027524D01*
X244506452Y-109044555D01*
X244516840Y-109063991D01*
X244523236Y-109085072D01*
X244526000Y-109113140D01*
X244526000Y-109576860D01*
X244523236Y-109604928D01*
X244516840Y-109626009D01*
X244506452Y-109645445D01*
X244492476Y-109662476D01*
X244475445Y-109676452D01*
X244456009Y-109686840D01*
X244434928Y-109693236D01*
X244406860Y-109696000D01*
X242493140Y-109696000D01*
X242465072Y-109693236D01*
X242443991Y-109686840D01*
X242424555Y-109676452D01*
X242407524Y-109662476D01*
X242393548Y-109645445D01*
X242383160Y-109626009D01*
X242376764Y-109604928D01*
X242374000Y-109576860D01*
X242374000Y-109113140D01*
X242376764Y-109085072D01*
X242383160Y-109063991D01*
X242393548Y-109044555D01*
X242407524Y-109027524D01*
X242424555Y-109013548D01*
X242443991Y-109003160D01*
X242465072Y-108996764D01*
X242493140Y-108994000D01*
X244406860Y-108994000D01*
X244434928Y-108996764D01*
G37*
G36*
X190834928Y-108876764D02*
G01*
X190856009Y-108883160D01*
X190875445Y-108893548D01*
X190892476Y-108907524D01*
X190906452Y-108924555D01*
X190916840Y-108943991D01*
X190923236Y-108965072D01*
X190926000Y-108993140D01*
X190926000Y-109456860D01*
X190923236Y-109484928D01*
X190916840Y-109506009D01*
X190906452Y-109525445D01*
X190892476Y-109542476D01*
X190875445Y-109556452D01*
X190856009Y-109566840D01*
X190834928Y-109573236D01*
X190806860Y-109576000D01*
X188893140Y-109576000D01*
X188865072Y-109573236D01*
X188843991Y-109566840D01*
X188824555Y-109556452D01*
X188807524Y-109542476D01*
X188793548Y-109525445D01*
X188783160Y-109506009D01*
X188776764Y-109484928D01*
X188774000Y-109456860D01*
X188774000Y-108993140D01*
X188776764Y-108965072D01*
X188783160Y-108943991D01*
X188793548Y-108924555D01*
X188807524Y-108907524D01*
X188824555Y-108893548D01*
X188843991Y-108883160D01*
X188865072Y-108876764D01*
X188893140Y-108874000D01*
X190806860Y-108874000D01*
X190834928Y-108876764D01*
G37*
G36*
X200134928Y-108876764D02*
G01*
X200156009Y-108883160D01*
X200175445Y-108893548D01*
X200192476Y-108907524D01*
X200206452Y-108924555D01*
X200216840Y-108943991D01*
X200223236Y-108965072D01*
X200226000Y-108993140D01*
X200226000Y-109456860D01*
X200223236Y-109484928D01*
X200216840Y-109506009D01*
X200206452Y-109525445D01*
X200192476Y-109542476D01*
X200175445Y-109556452D01*
X200156009Y-109566840D01*
X200134928Y-109573236D01*
X200106860Y-109576000D01*
X198193140Y-109576000D01*
X198165072Y-109573236D01*
X198143991Y-109566840D01*
X198124555Y-109556452D01*
X198107524Y-109542476D01*
X198093548Y-109525445D01*
X198083160Y-109506009D01*
X198076764Y-109484928D01*
X198074000Y-109456860D01*
X198074000Y-108993140D01*
X198076764Y-108965072D01*
X198083160Y-108943991D01*
X198093548Y-108924555D01*
X198107524Y-108907524D01*
X198124555Y-108893548D01*
X198143991Y-108883160D01*
X198165072Y-108876764D01*
X198193140Y-108874000D01*
X200106860Y-108874000D01*
X200134928Y-108876764D01*
G37*
G36*
X159848228Y-107641703D02*
G01*
X160003100Y-107705853D01*
X160142481Y-107798985D01*
X160261015Y-107917519D01*
X160354147Y-108056900D01*
X160418297Y-108211772D01*
X160451000Y-108376184D01*
X160451000Y-108543816D01*
X160418297Y-108708228D01*
X160354147Y-108863100D01*
X160261015Y-109002481D01*
X160142481Y-109121015D01*
X160003100Y-109214147D01*
X159848228Y-109278297D01*
X159683816Y-109311000D01*
X159516184Y-109311000D01*
X159351772Y-109278297D01*
X159196900Y-109214147D01*
X159057519Y-109121015D01*
X158938985Y-109002481D01*
X158845853Y-108863100D01*
X158781703Y-108708228D01*
X158749000Y-108543816D01*
X158749000Y-108376184D01*
X158781703Y-108211772D01*
X158845853Y-108056900D01*
X158938985Y-107917519D01*
X159057519Y-107798985D01*
X159196900Y-107705853D01*
X159351772Y-107641703D01*
X159516184Y-107609000D01*
X159683816Y-107609000D01*
X159848228Y-107641703D01*
G37*
G36*
X175088228Y-107641703D02*
G01*
X175243100Y-107705853D01*
X175382481Y-107798985D01*
X175501015Y-107917519D01*
X175594147Y-108056900D01*
X175658297Y-108211772D01*
X175691000Y-108376184D01*
X175691000Y-108543816D01*
X175658297Y-108708228D01*
X175594147Y-108863100D01*
X175501015Y-109002481D01*
X175382481Y-109121015D01*
X175243100Y-109214147D01*
X175088228Y-109278297D01*
X174923816Y-109311000D01*
X174756184Y-109311000D01*
X174591772Y-109278297D01*
X174436900Y-109214147D01*
X174297519Y-109121015D01*
X174178985Y-109002481D01*
X174085853Y-108863100D01*
X174021703Y-108708228D01*
X173989000Y-108543816D01*
X173989000Y-108376184D01*
X174021703Y-108211772D01*
X174085853Y-108056900D01*
X174178985Y-107917519D01*
X174297519Y-107798985D01*
X174436900Y-107705853D01*
X174591772Y-107641703D01*
X174756184Y-107609000D01*
X174923816Y-107609000D01*
X175088228Y-107641703D01*
G37*
G36*
X253734928Y-107726764D02*
G01*
X253756009Y-107733160D01*
X253775445Y-107743548D01*
X253792476Y-107757524D01*
X253806452Y-107774555D01*
X253816840Y-107793991D01*
X253823236Y-107815072D01*
X253826000Y-107843140D01*
X253826000Y-108306860D01*
X253823236Y-108334928D01*
X253816840Y-108356009D01*
X253806452Y-108375445D01*
X253792476Y-108392476D01*
X253775445Y-108406452D01*
X253756009Y-108416840D01*
X253734928Y-108423236D01*
X253706860Y-108426000D01*
X251793140Y-108426000D01*
X251765072Y-108423236D01*
X251743991Y-108416840D01*
X251724555Y-108406452D01*
X251707524Y-108392476D01*
X251693548Y-108375445D01*
X251683160Y-108356009D01*
X251676764Y-108334928D01*
X251674000Y-108306860D01*
X251674000Y-107843140D01*
X251676764Y-107815072D01*
X251683160Y-107793991D01*
X251693548Y-107774555D01*
X251707524Y-107757524D01*
X251724555Y-107743548D01*
X251743991Y-107733160D01*
X251765072Y-107726764D01*
X251793140Y-107724000D01*
X253706860Y-107724000D01*
X253734928Y-107726764D01*
G37*
G36*
X244434928Y-107726764D02*
G01*
X244456009Y-107733160D01*
X244475445Y-107743548D01*
X244492476Y-107757524D01*
X244506452Y-107774555D01*
X244516840Y-107793991D01*
X244523236Y-107815072D01*
X244526000Y-107843140D01*
X244526000Y-108306860D01*
X244523236Y-108334928D01*
X244516840Y-108356009D01*
X244506452Y-108375445D01*
X244492476Y-108392476D01*
X244475445Y-108406452D01*
X244456009Y-108416840D01*
X244434928Y-108423236D01*
X244406860Y-108426000D01*
X242493140Y-108426000D01*
X242465072Y-108423236D01*
X242443991Y-108416840D01*
X242424555Y-108406452D01*
X242407524Y-108392476D01*
X242393548Y-108375445D01*
X242383160Y-108356009D01*
X242376764Y-108334928D01*
X242374000Y-108306860D01*
X242374000Y-107843140D01*
X242376764Y-107815072D01*
X242383160Y-107793991D01*
X242393548Y-107774555D01*
X242407524Y-107757524D01*
X242424555Y-107743548D01*
X242443991Y-107733160D01*
X242465072Y-107726764D01*
X242493140Y-107724000D01*
X244406860Y-107724000D01*
X244434928Y-107726764D01*
G37*
G36*
X203188674Y-107103465D02*
G01*
X203226367Y-107114899D01*
X203261103Y-107133466D01*
X203291548Y-107158452D01*
X203316534Y-107188897D01*
X203335101Y-107223633D01*
X203346535Y-107261326D01*
X203351000Y-107306661D01*
X203351000Y-108143339D01*
X203346535Y-108188674D01*
X203335101Y-108226367D01*
X203316534Y-108261103D01*
X203291548Y-108291548D01*
X203261103Y-108316534D01*
X203226367Y-108335101D01*
X203188674Y-108346535D01*
X203143339Y-108351000D01*
X202056661Y-108351000D01*
X202011326Y-108346535D01*
X201973633Y-108335101D01*
X201938897Y-108316534D01*
X201908452Y-108291548D01*
X201883466Y-108261103D01*
X201864899Y-108226367D01*
X201853465Y-108188674D01*
X201849000Y-108143339D01*
X201849000Y-107306661D01*
X201853465Y-107261326D01*
X201864899Y-107223633D01*
X201883466Y-107188897D01*
X201908452Y-107158452D01*
X201938897Y-107133466D01*
X201973633Y-107114899D01*
X202011326Y-107103465D01*
X202056661Y-107099000D01*
X203143339Y-107099000D01*
X203188674Y-107103465D01*
G37*
G36*
X190834928Y-107606764D02*
G01*
X190856009Y-107613160D01*
X190875445Y-107623548D01*
X190892476Y-107637524D01*
X190906452Y-107654555D01*
X190916840Y-107673991D01*
X190923236Y-107695072D01*
X190926000Y-107723140D01*
X190926000Y-108186860D01*
X190923236Y-108214928D01*
X190916840Y-108236009D01*
X190906452Y-108255445D01*
X190892476Y-108272476D01*
X190875445Y-108286452D01*
X190856009Y-108296840D01*
X190834928Y-108303236D01*
X190806860Y-108306000D01*
X188893140Y-108306000D01*
X188865072Y-108303236D01*
X188843991Y-108296840D01*
X188824555Y-108286452D01*
X188807524Y-108272476D01*
X188793548Y-108255445D01*
X188783160Y-108236009D01*
X188776764Y-108214928D01*
X188774000Y-108186860D01*
X188774000Y-107723140D01*
X188776764Y-107695072D01*
X188783160Y-107673991D01*
X188793548Y-107654555D01*
X188807524Y-107637524D01*
X188824555Y-107623548D01*
X188843991Y-107613160D01*
X188865072Y-107606764D01*
X188893140Y-107604000D01*
X190806860Y-107604000D01*
X190834928Y-107606764D01*
G37*
G36*
X200134928Y-107606764D02*
G01*
X200156009Y-107613160D01*
X200175445Y-107623548D01*
X200192476Y-107637524D01*
X200206452Y-107654555D01*
X200216840Y-107673991D01*
X200223236Y-107695072D01*
X200226000Y-107723140D01*
X200226000Y-108186860D01*
X200223236Y-108214928D01*
X200216840Y-108236009D01*
X200206452Y-108255445D01*
X200192476Y-108272476D01*
X200175445Y-108286452D01*
X200156009Y-108296840D01*
X200134928Y-108303236D01*
X200106860Y-108306000D01*
X198193140Y-108306000D01*
X198165072Y-108303236D01*
X198143991Y-108296840D01*
X198124555Y-108286452D01*
X198107524Y-108272476D01*
X198093548Y-108255445D01*
X198083160Y-108236009D01*
X198076764Y-108214928D01*
X198074000Y-108186860D01*
X198074000Y-107723140D01*
X198076764Y-107695072D01*
X198083160Y-107673991D01*
X198093548Y-107654555D01*
X198107524Y-107637524D01*
X198124555Y-107623548D01*
X198143991Y-107613160D01*
X198165072Y-107606764D01*
X198193140Y-107604000D01*
X200106860Y-107604000D01*
X200134928Y-107606764D01*
G37*
G36*
X234991000Y-107391000D02*
G01*
X231389000Y-107391000D01*
X231389000Y-105589000D01*
X234991000Y-105589000D01*
X234991000Y-107391000D01*
G37*
G36*
X215411000Y-107391000D02*
G01*
X211809000Y-107391000D01*
X211809000Y-105589000D01*
X215411000Y-105589000D01*
X215411000Y-107391000D01*
G37*
G36*
X253734928Y-106456764D02*
G01*
X253756009Y-106463160D01*
X253775445Y-106473548D01*
X253792476Y-106487524D01*
X253806452Y-106504555D01*
X253816840Y-106523991D01*
X253823236Y-106545072D01*
X253826000Y-106573140D01*
X253826000Y-107036860D01*
X253823236Y-107064928D01*
X253816840Y-107086009D01*
X253806452Y-107105445D01*
X253792476Y-107122476D01*
X253775445Y-107136452D01*
X253756009Y-107146840D01*
X253734928Y-107153236D01*
X253706860Y-107156000D01*
X251793140Y-107156000D01*
X251765072Y-107153236D01*
X251743991Y-107146840D01*
X251724555Y-107136452D01*
X251707524Y-107122476D01*
X251693548Y-107105445D01*
X251683160Y-107086009D01*
X251676764Y-107064928D01*
X251674000Y-107036860D01*
X251674000Y-106573140D01*
X251676764Y-106545072D01*
X251683160Y-106523991D01*
X251693548Y-106504555D01*
X251707524Y-106487524D01*
X251724555Y-106473548D01*
X251743991Y-106463160D01*
X251765072Y-106456764D01*
X251793140Y-106454000D01*
X253706860Y-106454000D01*
X253734928Y-106456764D01*
G37*
G36*
X244434928Y-106456764D02*
G01*
X244456009Y-106463160D01*
X244475445Y-106473548D01*
X244492476Y-106487524D01*
X244506452Y-106504555D01*
X244516840Y-106523991D01*
X244523236Y-106545072D01*
X244526000Y-106573140D01*
X244526000Y-107036860D01*
X244523236Y-107064928D01*
X244516840Y-107086009D01*
X244506452Y-107105445D01*
X244492476Y-107122476D01*
X244475445Y-107136452D01*
X244456009Y-107146840D01*
X244434928Y-107153236D01*
X244406860Y-107156000D01*
X242493140Y-107156000D01*
X242465072Y-107153236D01*
X242443991Y-107146840D01*
X242424555Y-107136452D01*
X242407524Y-107122476D01*
X242393548Y-107105445D01*
X242383160Y-107086009D01*
X242376764Y-107064928D01*
X242374000Y-107036860D01*
X242374000Y-106573140D01*
X242376764Y-106545072D01*
X242383160Y-106523991D01*
X242393548Y-106504555D01*
X242407524Y-106487524D01*
X242424555Y-106473548D01*
X242443991Y-106463160D01*
X242465072Y-106456764D01*
X242493140Y-106454000D01*
X244406860Y-106454000D01*
X244434928Y-106456764D01*
G37*
G36*
X200134928Y-106336764D02*
G01*
X200156009Y-106343160D01*
X200175445Y-106353548D01*
X200192476Y-106367524D01*
X200206452Y-106384555D01*
X200216840Y-106403991D01*
X200223236Y-106425072D01*
X200226000Y-106453140D01*
X200226000Y-106916860D01*
X200223236Y-106944928D01*
X200216840Y-106966009D01*
X200206452Y-106985445D01*
X200192476Y-107002476D01*
X200175445Y-107016452D01*
X200156009Y-107026840D01*
X200134928Y-107033236D01*
X200106860Y-107036000D01*
X198193140Y-107036000D01*
X198165072Y-107033236D01*
X198143991Y-107026840D01*
X198124555Y-107016452D01*
X198107524Y-107002476D01*
X198093548Y-106985445D01*
X198083160Y-106966009D01*
X198076764Y-106944928D01*
X198074000Y-106916860D01*
X198074000Y-106453140D01*
X198076764Y-106425072D01*
X198083160Y-106403991D01*
X198093548Y-106384555D01*
X198107524Y-106367524D01*
X198124555Y-106353548D01*
X198143991Y-106343160D01*
X198165072Y-106336764D01*
X198193140Y-106334000D01*
X200106860Y-106334000D01*
X200134928Y-106336764D01*
G37*
G36*
X190834928Y-106336764D02*
G01*
X190856009Y-106343160D01*
X190875445Y-106353548D01*
X190892476Y-106367524D01*
X190906452Y-106384555D01*
X190916840Y-106403991D01*
X190923236Y-106425072D01*
X190926000Y-106453140D01*
X190926000Y-106916860D01*
X190923236Y-106944928D01*
X190916840Y-106966009D01*
X190906452Y-106985445D01*
X190892476Y-107002476D01*
X190875445Y-107016452D01*
X190856009Y-107026840D01*
X190834928Y-107033236D01*
X190806860Y-107036000D01*
X188893140Y-107036000D01*
X188865072Y-107033236D01*
X188843991Y-107026840D01*
X188824555Y-107016452D01*
X188807524Y-107002476D01*
X188793548Y-106985445D01*
X188783160Y-106966009D01*
X188776764Y-106944928D01*
X188774000Y-106916860D01*
X188774000Y-106453140D01*
X188776764Y-106425072D01*
X188783160Y-106403991D01*
X188793548Y-106384555D01*
X188807524Y-106367524D01*
X188824555Y-106353548D01*
X188843991Y-106343160D01*
X188865072Y-106336764D01*
X188893140Y-106334000D01*
X190806860Y-106334000D01*
X190834928Y-106336764D01*
G37*
G36*
X175088228Y-105101703D02*
G01*
X175243100Y-105165853D01*
X175382481Y-105258985D01*
X175501015Y-105377519D01*
X175594147Y-105516900D01*
X175658297Y-105671772D01*
X175691000Y-105836184D01*
X175691000Y-106003816D01*
X175658297Y-106168228D01*
X175594147Y-106323100D01*
X175501015Y-106462481D01*
X175382481Y-106581015D01*
X175243100Y-106674147D01*
X175088228Y-106738297D01*
X174923816Y-106771000D01*
X174756184Y-106771000D01*
X174591772Y-106738297D01*
X174436900Y-106674147D01*
X174297519Y-106581015D01*
X174178985Y-106462481D01*
X174085853Y-106323100D01*
X174021703Y-106168228D01*
X173989000Y-106003816D01*
X173989000Y-105836184D01*
X174021703Y-105671772D01*
X174085853Y-105516900D01*
X174178985Y-105377519D01*
X174297519Y-105258985D01*
X174436900Y-105165853D01*
X174591772Y-105101703D01*
X174756184Y-105069000D01*
X174923816Y-105069000D01*
X175088228Y-105101703D01*
G37*
G36*
X159848228Y-105101703D02*
G01*
X160003100Y-105165853D01*
X160142481Y-105258985D01*
X160261015Y-105377519D01*
X160354147Y-105516900D01*
X160418297Y-105671772D01*
X160451000Y-105836184D01*
X160451000Y-106003816D01*
X160418297Y-106168228D01*
X160354147Y-106323100D01*
X160261015Y-106462481D01*
X160142481Y-106581015D01*
X160003100Y-106674147D01*
X159848228Y-106738297D01*
X159683816Y-106771000D01*
X159516184Y-106771000D01*
X159351772Y-106738297D01*
X159196900Y-106674147D01*
X159057519Y-106581015D01*
X158938985Y-106462481D01*
X158845853Y-106323100D01*
X158781703Y-106168228D01*
X158749000Y-106003816D01*
X158749000Y-105836184D01*
X158781703Y-105671772D01*
X158845853Y-105516900D01*
X158938985Y-105377519D01*
X159057519Y-105258985D01*
X159196900Y-105165853D01*
X159351772Y-105101703D01*
X159516184Y-105069000D01*
X159683816Y-105069000D01*
X159848228Y-105101703D01*
G37*
G36*
X203188674Y-105053465D02*
G01*
X203226367Y-105064899D01*
X203261103Y-105083466D01*
X203291548Y-105108452D01*
X203316534Y-105138897D01*
X203335101Y-105173633D01*
X203346535Y-105211326D01*
X203351000Y-105256661D01*
X203351000Y-106093339D01*
X203346535Y-106138674D01*
X203335101Y-106176367D01*
X203316534Y-106211103D01*
X203291548Y-106241548D01*
X203261103Y-106266534D01*
X203226367Y-106285101D01*
X203188674Y-106296535D01*
X203143339Y-106301000D01*
X202056661Y-106301000D01*
X202011326Y-106296535D01*
X201973633Y-106285101D01*
X201938897Y-106266534D01*
X201908452Y-106241548D01*
X201883466Y-106211103D01*
X201864899Y-106176367D01*
X201853465Y-106138674D01*
X201849000Y-106093339D01*
X201849000Y-105256661D01*
X201853465Y-105211326D01*
X201864899Y-105173633D01*
X201883466Y-105138897D01*
X201908452Y-105108452D01*
X201938897Y-105083466D01*
X201973633Y-105064899D01*
X202011326Y-105053465D01*
X202056661Y-105049000D01*
X203143339Y-105049000D01*
X203188674Y-105053465D01*
G37*
G36*
X244434928Y-105186764D02*
G01*
X244456009Y-105193160D01*
X244475445Y-105203548D01*
X244492476Y-105217524D01*
X244506452Y-105234555D01*
X244516840Y-105253991D01*
X244523236Y-105275072D01*
X244526000Y-105303140D01*
X244526000Y-105766860D01*
X244523236Y-105794928D01*
X244516840Y-105816009D01*
X244506452Y-105835445D01*
X244492476Y-105852476D01*
X244475445Y-105866452D01*
X244456009Y-105876840D01*
X244434928Y-105883236D01*
X244406860Y-105886000D01*
X242493140Y-105886000D01*
X242465072Y-105883236D01*
X242443991Y-105876840D01*
X242424555Y-105866452D01*
X242407524Y-105852476D01*
X242393548Y-105835445D01*
X242383160Y-105816009D01*
X242376764Y-105794928D01*
X242374000Y-105766860D01*
X242374000Y-105303140D01*
X242376764Y-105275072D01*
X242383160Y-105253991D01*
X242393548Y-105234555D01*
X242407524Y-105217524D01*
X242424555Y-105203548D01*
X242443991Y-105193160D01*
X242465072Y-105186764D01*
X242493140Y-105184000D01*
X244406860Y-105184000D01*
X244434928Y-105186764D01*
G37*
G36*
X253734928Y-105186764D02*
G01*
X253756009Y-105193160D01*
X253775445Y-105203548D01*
X253792476Y-105217524D01*
X253806452Y-105234555D01*
X253816840Y-105253991D01*
X253823236Y-105275072D01*
X253826000Y-105303140D01*
X253826000Y-105766860D01*
X253823236Y-105794928D01*
X253816840Y-105816009D01*
X253806452Y-105835445D01*
X253792476Y-105852476D01*
X253775445Y-105866452D01*
X253756009Y-105876840D01*
X253734928Y-105883236D01*
X253706860Y-105886000D01*
X251793140Y-105886000D01*
X251765072Y-105883236D01*
X251743991Y-105876840D01*
X251724555Y-105866452D01*
X251707524Y-105852476D01*
X251693548Y-105835445D01*
X251683160Y-105816009D01*
X251676764Y-105794928D01*
X251674000Y-105766860D01*
X251674000Y-105303140D01*
X251676764Y-105275072D01*
X251683160Y-105253991D01*
X251693548Y-105234555D01*
X251707524Y-105217524D01*
X251724555Y-105203548D01*
X251743991Y-105193160D01*
X251765072Y-105186764D01*
X251793140Y-105184000D01*
X253706860Y-105184000D01*
X253734928Y-105186764D01*
G37*
G36*
X215411000Y-104851000D02*
G01*
X211809000Y-104851000D01*
X211809000Y-103049000D01*
X215411000Y-103049000D01*
X215411000Y-104851000D01*
G37*
G36*
X234991000Y-104851000D02*
G01*
X231389000Y-104851000D01*
X231389000Y-103049000D01*
X234991000Y-103049000D01*
X234991000Y-104851000D01*
G37*
G36*
X244434928Y-103916764D02*
G01*
X244456009Y-103923160D01*
X244475445Y-103933548D01*
X244492476Y-103947524D01*
X244506452Y-103964555D01*
X244516840Y-103983991D01*
X244523236Y-104005072D01*
X244526000Y-104033140D01*
X244526000Y-104496860D01*
X244523236Y-104524928D01*
X244516840Y-104546009D01*
X244506452Y-104565445D01*
X244492476Y-104582476D01*
X244475445Y-104596452D01*
X244456009Y-104606840D01*
X244434928Y-104613236D01*
X244406860Y-104616000D01*
X242493140Y-104616000D01*
X242465072Y-104613236D01*
X242443991Y-104606840D01*
X242424555Y-104596452D01*
X242407524Y-104582476D01*
X242393548Y-104565445D01*
X242383160Y-104546009D01*
X242376764Y-104524928D01*
X242374000Y-104496860D01*
X242374000Y-104033140D01*
X242376764Y-104005072D01*
X242383160Y-103983991D01*
X242393548Y-103964555D01*
X242407524Y-103947524D01*
X242424555Y-103933548D01*
X242443991Y-103923160D01*
X242465072Y-103916764D01*
X242493140Y-103914000D01*
X244406860Y-103914000D01*
X244434928Y-103916764D01*
G37*
G36*
X253734928Y-103916764D02*
G01*
X253756009Y-103923160D01*
X253775445Y-103933548D01*
X253792476Y-103947524D01*
X253806452Y-103964555D01*
X253816840Y-103983991D01*
X253823236Y-104005072D01*
X253826000Y-104033140D01*
X253826000Y-104496860D01*
X253823236Y-104524928D01*
X253816840Y-104546009D01*
X253806452Y-104565445D01*
X253792476Y-104582476D01*
X253775445Y-104596452D01*
X253756009Y-104606840D01*
X253734928Y-104613236D01*
X253706860Y-104616000D01*
X251793140Y-104616000D01*
X251765072Y-104613236D01*
X251743991Y-104606840D01*
X251724555Y-104596452D01*
X251707524Y-104582476D01*
X251693548Y-104565445D01*
X251683160Y-104546009D01*
X251676764Y-104524928D01*
X251674000Y-104496860D01*
X251674000Y-104033140D01*
X251676764Y-104005072D01*
X251683160Y-103983991D01*
X251693548Y-103964555D01*
X251707524Y-103947524D01*
X251724555Y-103933548D01*
X251743991Y-103923160D01*
X251765072Y-103916764D01*
X251793140Y-103914000D01*
X253706860Y-103914000D01*
X253734928Y-103916764D01*
G37*
G36*
X175088228Y-102561703D02*
G01*
X175243100Y-102625853D01*
X175382481Y-102718985D01*
X175501015Y-102837519D01*
X175594147Y-102976900D01*
X175658297Y-103131772D01*
X175691000Y-103296184D01*
X175691000Y-103463816D01*
X175658297Y-103628228D01*
X175594147Y-103783100D01*
X175501015Y-103922481D01*
X175382481Y-104041015D01*
X175243100Y-104134147D01*
X175088228Y-104198297D01*
X174923816Y-104231000D01*
X174756184Y-104231000D01*
X174591772Y-104198297D01*
X174436900Y-104134147D01*
X174297519Y-104041015D01*
X174178985Y-103922481D01*
X174085853Y-103783100D01*
X174021703Y-103628228D01*
X173989000Y-103463816D01*
X173989000Y-103296184D01*
X174021703Y-103131772D01*
X174085853Y-102976900D01*
X174178985Y-102837519D01*
X174297519Y-102718985D01*
X174436900Y-102625853D01*
X174591772Y-102561703D01*
X174756184Y-102529000D01*
X174923816Y-102529000D01*
X175088228Y-102561703D01*
G37*
G36*
X159848228Y-102561703D02*
G01*
X160003100Y-102625853D01*
X160142481Y-102718985D01*
X160261015Y-102837519D01*
X160354147Y-102976900D01*
X160418297Y-103131772D01*
X160451000Y-103296184D01*
X160451000Y-103463816D01*
X160418297Y-103628228D01*
X160354147Y-103783100D01*
X160261015Y-103922481D01*
X160142481Y-104041015D01*
X160003100Y-104134147D01*
X159848228Y-104198297D01*
X159683816Y-104231000D01*
X159516184Y-104231000D01*
X159351772Y-104198297D01*
X159196900Y-104134147D01*
X159057519Y-104041015D01*
X158938985Y-103922481D01*
X158845853Y-103783100D01*
X158781703Y-103628228D01*
X158749000Y-103463816D01*
X158749000Y-103296184D01*
X158781703Y-103131772D01*
X158845853Y-102976900D01*
X158938985Y-102837519D01*
X159057519Y-102718985D01*
X159196900Y-102625853D01*
X159351772Y-102561703D01*
X159516184Y-102529000D01*
X159683816Y-102529000D01*
X159848228Y-102561703D01*
G37*
G36*
X190338674Y-102653465D02*
G01*
X190376367Y-102664899D01*
X190411103Y-102683466D01*
X190441548Y-102708452D01*
X190466534Y-102738897D01*
X190485101Y-102773633D01*
X190496535Y-102811326D01*
X190501000Y-102856661D01*
X190501000Y-103943339D01*
X190496535Y-103988674D01*
X190485101Y-104026367D01*
X190466534Y-104061103D01*
X190441548Y-104091548D01*
X190411103Y-104116534D01*
X190376367Y-104135101D01*
X190338674Y-104146535D01*
X190293339Y-104151000D01*
X189456661Y-104151000D01*
X189411326Y-104146535D01*
X189373633Y-104135101D01*
X189338897Y-104116534D01*
X189308452Y-104091548D01*
X189283466Y-104061103D01*
X189264899Y-104026367D01*
X189253465Y-103988674D01*
X189249000Y-103943339D01*
X189249000Y-102856661D01*
X189253465Y-102811326D01*
X189264899Y-102773633D01*
X189283466Y-102738897D01*
X189308452Y-102708452D01*
X189338897Y-102683466D01*
X189373633Y-102664899D01*
X189411326Y-102653465D01*
X189456661Y-102649000D01*
X190293339Y-102649000D01*
X190338674Y-102653465D01*
G37*
G36*
X192388674Y-102653465D02*
G01*
X192426367Y-102664899D01*
X192461103Y-102683466D01*
X192491548Y-102708452D01*
X192516534Y-102738897D01*
X192535101Y-102773633D01*
X192546535Y-102811326D01*
X192551000Y-102856661D01*
X192551000Y-103943339D01*
X192546535Y-103988674D01*
X192535101Y-104026367D01*
X192516534Y-104061103D01*
X192491548Y-104091548D01*
X192461103Y-104116534D01*
X192426367Y-104135101D01*
X192388674Y-104146535D01*
X192343339Y-104151000D01*
X191506661Y-104151000D01*
X191461326Y-104146535D01*
X191423633Y-104135101D01*
X191388897Y-104116534D01*
X191358452Y-104091548D01*
X191333466Y-104061103D01*
X191314899Y-104026367D01*
X191303465Y-103988674D01*
X191299000Y-103943339D01*
X191299000Y-102856661D01*
X191303465Y-102811326D01*
X191314899Y-102773633D01*
X191333466Y-102738897D01*
X191358452Y-102708452D01*
X191388897Y-102683466D01*
X191423633Y-102664899D01*
X191461326Y-102653465D01*
X191506661Y-102649000D01*
X192343339Y-102649000D01*
X192388674Y-102653465D01*
G37*
G36*
X257288674Y-102228465D02*
G01*
X257326367Y-102239899D01*
X257361103Y-102258466D01*
X257391548Y-102283452D01*
X257416534Y-102313897D01*
X257435101Y-102348633D01*
X257446535Y-102386326D01*
X257451000Y-102431661D01*
X257451000Y-103268339D01*
X257446535Y-103313674D01*
X257435101Y-103351367D01*
X257416534Y-103386103D01*
X257391548Y-103416548D01*
X257361103Y-103441534D01*
X257326367Y-103460101D01*
X257288674Y-103471535D01*
X257243339Y-103476000D01*
X256156661Y-103476000D01*
X256111326Y-103471535D01*
X256073633Y-103460101D01*
X256038897Y-103441534D01*
X256008452Y-103416548D01*
X255983466Y-103386103D01*
X255964899Y-103351367D01*
X255953465Y-103313674D01*
X255949000Y-103268339D01*
X255949000Y-102431661D01*
X255953465Y-102386326D01*
X255964899Y-102348633D01*
X255983466Y-102313897D01*
X256008452Y-102283452D01*
X256038897Y-102258466D01*
X256073633Y-102239899D01*
X256111326Y-102228465D01*
X256156661Y-102224000D01*
X257243339Y-102224000D01*
X257288674Y-102228465D01*
G37*
G36*
X253734928Y-102646764D02*
G01*
X253756009Y-102653160D01*
X253775445Y-102663548D01*
X253792476Y-102677524D01*
X253806452Y-102694555D01*
X253816840Y-102713991D01*
X253823236Y-102735072D01*
X253826000Y-102763140D01*
X253826000Y-103226860D01*
X253823236Y-103254928D01*
X253816840Y-103276009D01*
X253806452Y-103295445D01*
X253792476Y-103312476D01*
X253775445Y-103326452D01*
X253756009Y-103336840D01*
X253734928Y-103343236D01*
X253706860Y-103346000D01*
X251793140Y-103346000D01*
X251765072Y-103343236D01*
X251743991Y-103336840D01*
X251724555Y-103326452D01*
X251707524Y-103312476D01*
X251693548Y-103295445D01*
X251683160Y-103276009D01*
X251676764Y-103254928D01*
X251674000Y-103226860D01*
X251674000Y-102763140D01*
X251676764Y-102735072D01*
X251683160Y-102713991D01*
X251693548Y-102694555D01*
X251707524Y-102677524D01*
X251724555Y-102663548D01*
X251743991Y-102653160D01*
X251765072Y-102646764D01*
X251793140Y-102644000D01*
X253706860Y-102644000D01*
X253734928Y-102646764D01*
G37*
G36*
X244434928Y-102646764D02*
G01*
X244456009Y-102653160D01*
X244475445Y-102663548D01*
X244492476Y-102677524D01*
X244506452Y-102694555D01*
X244516840Y-102713991D01*
X244523236Y-102735072D01*
X244526000Y-102763140D01*
X244526000Y-103226860D01*
X244523236Y-103254928D01*
X244516840Y-103276009D01*
X244506452Y-103295445D01*
X244492476Y-103312476D01*
X244475445Y-103326452D01*
X244456009Y-103336840D01*
X244434928Y-103343236D01*
X244406860Y-103346000D01*
X242493140Y-103346000D01*
X242465072Y-103343236D01*
X242443991Y-103336840D01*
X242424555Y-103326452D01*
X242407524Y-103312476D01*
X242393548Y-103295445D01*
X242383160Y-103276009D01*
X242376764Y-103254928D01*
X242374000Y-103226860D01*
X242374000Y-102763140D01*
X242376764Y-102735072D01*
X242383160Y-102713991D01*
X242393548Y-102694555D01*
X242407524Y-102677524D01*
X242424555Y-102663548D01*
X242443991Y-102653160D01*
X242465072Y-102646764D01*
X242493140Y-102644000D01*
X244406860Y-102644000D01*
X244434928Y-102646764D01*
G37*
G36*
X234991000Y-102311000D02*
G01*
X231389000Y-102311000D01*
X231389000Y-100509000D01*
X234991000Y-100509000D01*
X234991000Y-102311000D01*
G37*
G36*
X215411000Y-102311000D02*
G01*
X211809000Y-102311000D01*
X211809000Y-100509000D01*
X215411000Y-100509000D01*
X215411000Y-102311000D01*
G37*
G36*
X253734928Y-101376764D02*
G01*
X253756009Y-101383160D01*
X253775445Y-101393548D01*
X253792476Y-101407524D01*
X253806452Y-101424555D01*
X253816840Y-101443991D01*
X253823236Y-101465072D01*
X253826000Y-101493140D01*
X253826000Y-101956860D01*
X253823236Y-101984928D01*
X253816840Y-102006009D01*
X253806452Y-102025445D01*
X253792476Y-102042476D01*
X253775445Y-102056452D01*
X253756009Y-102066840D01*
X253734928Y-102073236D01*
X253706860Y-102076000D01*
X251793140Y-102076000D01*
X251765072Y-102073236D01*
X251743991Y-102066840D01*
X251724555Y-102056452D01*
X251707524Y-102042476D01*
X251693548Y-102025445D01*
X251683160Y-102006009D01*
X251676764Y-101984928D01*
X251674000Y-101956860D01*
X251674000Y-101493140D01*
X251676764Y-101465072D01*
X251683160Y-101443991D01*
X251693548Y-101424555D01*
X251707524Y-101407524D01*
X251724555Y-101393548D01*
X251743991Y-101383160D01*
X251765072Y-101376764D01*
X251793140Y-101374000D01*
X253706860Y-101374000D01*
X253734928Y-101376764D01*
G37*
G36*
X244434928Y-101376764D02*
G01*
X244456009Y-101383160D01*
X244475445Y-101393548D01*
X244492476Y-101407524D01*
X244506452Y-101424555D01*
X244516840Y-101443991D01*
X244523236Y-101465072D01*
X244526000Y-101493140D01*
X244526000Y-101956860D01*
X244523236Y-101984928D01*
X244516840Y-102006009D01*
X244506452Y-102025445D01*
X244492476Y-102042476D01*
X244475445Y-102056452D01*
X244456009Y-102066840D01*
X244434928Y-102073236D01*
X244406860Y-102076000D01*
X242493140Y-102076000D01*
X242465072Y-102073236D01*
X242443991Y-102066840D01*
X242424555Y-102056452D01*
X242407524Y-102042476D01*
X242393548Y-102025445D01*
X242383160Y-102006009D01*
X242376764Y-101984928D01*
X242374000Y-101956860D01*
X242374000Y-101493140D01*
X242376764Y-101465072D01*
X242383160Y-101443991D01*
X242393548Y-101424555D01*
X242407524Y-101407524D01*
X242424555Y-101393548D01*
X242443991Y-101383160D01*
X242465072Y-101376764D01*
X242493140Y-101374000D01*
X244406860Y-101374000D01*
X244434928Y-101376764D01*
G37*
G36*
X175088228Y-100021703D02*
G01*
X175243100Y-100085853D01*
X175382481Y-100178985D01*
X175501015Y-100297519D01*
X175594147Y-100436900D01*
X175658297Y-100591772D01*
X175691000Y-100756184D01*
X175691000Y-100923816D01*
X175658297Y-101088228D01*
X175594147Y-101243100D01*
X175501015Y-101382481D01*
X175382481Y-101501015D01*
X175243100Y-101594147D01*
X175088228Y-101658297D01*
X174923816Y-101691000D01*
X174756184Y-101691000D01*
X174591772Y-101658297D01*
X174436900Y-101594147D01*
X174297519Y-101501015D01*
X174178985Y-101382481D01*
X174085853Y-101243100D01*
X174021703Y-101088228D01*
X173989000Y-100923816D01*
X173989000Y-100756184D01*
X174021703Y-100591772D01*
X174085853Y-100436900D01*
X174178985Y-100297519D01*
X174297519Y-100178985D01*
X174436900Y-100085853D01*
X174591772Y-100021703D01*
X174756184Y-99989000D01*
X174923816Y-99989000D01*
X175088228Y-100021703D01*
G37*
G36*
X159848228Y-100021703D02*
G01*
X160003100Y-100085853D01*
X160142481Y-100178985D01*
X160261015Y-100297519D01*
X160354147Y-100436900D01*
X160418297Y-100591772D01*
X160451000Y-100756184D01*
X160451000Y-100923816D01*
X160418297Y-101088228D01*
X160354147Y-101243100D01*
X160261015Y-101382481D01*
X160142481Y-101501015D01*
X160003100Y-101594147D01*
X159848228Y-101658297D01*
X159683816Y-101691000D01*
X159516184Y-101691000D01*
X159351772Y-101658297D01*
X159196900Y-101594147D01*
X159057519Y-101501015D01*
X158938985Y-101382481D01*
X158845853Y-101243100D01*
X158781703Y-101088228D01*
X158749000Y-100923816D01*
X158749000Y-100756184D01*
X158781703Y-100591772D01*
X158845853Y-100436900D01*
X158938985Y-100297519D01*
X159057519Y-100178985D01*
X159196900Y-100085853D01*
X159351772Y-100021703D01*
X159516184Y-99989000D01*
X159683816Y-99989000D01*
X159848228Y-100021703D01*
G37*
G36*
X257288674Y-100178465D02*
G01*
X257326367Y-100189899D01*
X257361103Y-100208466D01*
X257391548Y-100233452D01*
X257416534Y-100263897D01*
X257435101Y-100298633D01*
X257446535Y-100336326D01*
X257451000Y-100381661D01*
X257451000Y-101218339D01*
X257446535Y-101263674D01*
X257435101Y-101301367D01*
X257416534Y-101336103D01*
X257391548Y-101366548D01*
X257361103Y-101391534D01*
X257326367Y-101410101D01*
X257288674Y-101421535D01*
X257243339Y-101426000D01*
X256156661Y-101426000D01*
X256111326Y-101421535D01*
X256073633Y-101410101D01*
X256038897Y-101391534D01*
X256008452Y-101366548D01*
X255983466Y-101336103D01*
X255964899Y-101301367D01*
X255953465Y-101263674D01*
X255949000Y-101218339D01*
X255949000Y-100381661D01*
X255953465Y-100336326D01*
X255964899Y-100298633D01*
X255983466Y-100263897D01*
X256008452Y-100233452D01*
X256038897Y-100208466D01*
X256073633Y-100189899D01*
X256111326Y-100178465D01*
X256156661Y-100174000D01*
X257243339Y-100174000D01*
X257288674Y-100178465D01*
G37*
G36*
X244434928Y-100106764D02*
G01*
X244456009Y-100113160D01*
X244475445Y-100123548D01*
X244492476Y-100137524D01*
X244506452Y-100154555D01*
X244516840Y-100173991D01*
X244523236Y-100195072D01*
X244526000Y-100223140D01*
X244526000Y-100686860D01*
X244523236Y-100714928D01*
X244516840Y-100736009D01*
X244506452Y-100755445D01*
X244492476Y-100772476D01*
X244475445Y-100786452D01*
X244456009Y-100796840D01*
X244434928Y-100803236D01*
X244406860Y-100806000D01*
X242493140Y-100806000D01*
X242465072Y-100803236D01*
X242443991Y-100796840D01*
X242424555Y-100786452D01*
X242407524Y-100772476D01*
X242393548Y-100755445D01*
X242383160Y-100736009D01*
X242376764Y-100714928D01*
X242374000Y-100686860D01*
X242374000Y-100223140D01*
X242376764Y-100195072D01*
X242383160Y-100173991D01*
X242393548Y-100154555D01*
X242407524Y-100137524D01*
X242424555Y-100123548D01*
X242443991Y-100113160D01*
X242465072Y-100106764D01*
X242493140Y-100104000D01*
X244406860Y-100104000D01*
X244434928Y-100106764D01*
G37*
G36*
X253734928Y-100106764D02*
G01*
X253756009Y-100113160D01*
X253775445Y-100123548D01*
X253792476Y-100137524D01*
X253806452Y-100154555D01*
X253816840Y-100173991D01*
X253823236Y-100195072D01*
X253826000Y-100223140D01*
X253826000Y-100686860D01*
X253823236Y-100714928D01*
X253816840Y-100736009D01*
X253806452Y-100755445D01*
X253792476Y-100772476D01*
X253775445Y-100786452D01*
X253756009Y-100796840D01*
X253734928Y-100803236D01*
X253706860Y-100806000D01*
X251793140Y-100806000D01*
X251765072Y-100803236D01*
X251743991Y-100796840D01*
X251724555Y-100786452D01*
X251707524Y-100772476D01*
X251693548Y-100755445D01*
X251683160Y-100736009D01*
X251676764Y-100714928D01*
X251674000Y-100686860D01*
X251674000Y-100223140D01*
X251676764Y-100195072D01*
X251683160Y-100173991D01*
X251693548Y-100154555D01*
X251707524Y-100137524D01*
X251724555Y-100123548D01*
X251743991Y-100113160D01*
X251765072Y-100106764D01*
X251793140Y-100104000D01*
X253706860Y-100104000D01*
X253734928Y-100106764D01*
G37*
G36*
X215411000Y-99771000D02*
G01*
X211809000Y-99771000D01*
X211809000Y-97969000D01*
X215411000Y-97969000D01*
X215411000Y-99771000D01*
G37*
G36*
X234991000Y-99771000D02*
G01*
X231389000Y-99771000D01*
X231389000Y-97969000D01*
X234991000Y-97969000D01*
X234991000Y-99771000D01*
G37*
G36*
X244434928Y-98836764D02*
G01*
X244456009Y-98843160D01*
X244475445Y-98853548D01*
X244492476Y-98867524D01*
X244506452Y-98884555D01*
X244516840Y-98903991D01*
X244523236Y-98925072D01*
X244526000Y-98953140D01*
X244526000Y-99416860D01*
X244523236Y-99444928D01*
X244516840Y-99466009D01*
X244506452Y-99485445D01*
X244492476Y-99502476D01*
X244475445Y-99516452D01*
X244456009Y-99526840D01*
X244434928Y-99533236D01*
X244406860Y-99536000D01*
X242493140Y-99536000D01*
X242465072Y-99533236D01*
X242443991Y-99526840D01*
X242424555Y-99516452D01*
X242407524Y-99502476D01*
X242393548Y-99485445D01*
X242383160Y-99466009D01*
X242376764Y-99444928D01*
X242374000Y-99416860D01*
X242374000Y-98953140D01*
X242376764Y-98925072D01*
X242383160Y-98903991D01*
X242393548Y-98884555D01*
X242407524Y-98867524D01*
X242424555Y-98853548D01*
X242443991Y-98843160D01*
X242465072Y-98836764D01*
X242493140Y-98834000D01*
X244406860Y-98834000D01*
X244434928Y-98836764D01*
G37*
G36*
X253734928Y-98836764D02*
G01*
X253756009Y-98843160D01*
X253775445Y-98853548D01*
X253792476Y-98867524D01*
X253806452Y-98884555D01*
X253816840Y-98903991D01*
X253823236Y-98925072D01*
X253826000Y-98953140D01*
X253826000Y-99416860D01*
X253823236Y-99444928D01*
X253816840Y-99466009D01*
X253806452Y-99485445D01*
X253792476Y-99502476D01*
X253775445Y-99516452D01*
X253756009Y-99526840D01*
X253734928Y-99533236D01*
X253706860Y-99536000D01*
X251793140Y-99536000D01*
X251765072Y-99533236D01*
X251743991Y-99526840D01*
X251724555Y-99516452D01*
X251707524Y-99502476D01*
X251693548Y-99485445D01*
X251683160Y-99466009D01*
X251676764Y-99444928D01*
X251674000Y-99416860D01*
X251674000Y-98953140D01*
X251676764Y-98925072D01*
X251683160Y-98903991D01*
X251693548Y-98884555D01*
X251707524Y-98867524D01*
X251724555Y-98853548D01*
X251743991Y-98843160D01*
X251765072Y-98836764D01*
X251793140Y-98834000D01*
X253706860Y-98834000D01*
X253734928Y-98836764D01*
G37*
G36*
X159848228Y-97481703D02*
G01*
X160003100Y-97545853D01*
X160142481Y-97638985D01*
X160261015Y-97757519D01*
X160354147Y-97896900D01*
X160418297Y-98051772D01*
X160451000Y-98216184D01*
X160451000Y-98383816D01*
X160418297Y-98548228D01*
X160354147Y-98703100D01*
X160261015Y-98842481D01*
X160142481Y-98961015D01*
X160003100Y-99054147D01*
X159848228Y-99118297D01*
X159683816Y-99151000D01*
X159516184Y-99151000D01*
X159351772Y-99118297D01*
X159196900Y-99054147D01*
X159057519Y-98961015D01*
X158938985Y-98842481D01*
X158845853Y-98703100D01*
X158781703Y-98548228D01*
X158749000Y-98383816D01*
X158749000Y-98216184D01*
X158781703Y-98051772D01*
X158845853Y-97896900D01*
X158938985Y-97757519D01*
X159057519Y-97638985D01*
X159196900Y-97545853D01*
X159351772Y-97481703D01*
X159516184Y-97449000D01*
X159683816Y-97449000D01*
X159848228Y-97481703D01*
G37*
G36*
X175088228Y-97481703D02*
G01*
X175243100Y-97545853D01*
X175382481Y-97638985D01*
X175501015Y-97757519D01*
X175594147Y-97896900D01*
X175658297Y-98051772D01*
X175691000Y-98216184D01*
X175691000Y-98383816D01*
X175658297Y-98548228D01*
X175594147Y-98703100D01*
X175501015Y-98842481D01*
X175382481Y-98961015D01*
X175243100Y-99054147D01*
X175088228Y-99118297D01*
X174923816Y-99151000D01*
X174756184Y-99151000D01*
X174591772Y-99118297D01*
X174436900Y-99054147D01*
X174297519Y-98961015D01*
X174178985Y-98842481D01*
X174085853Y-98703100D01*
X174021703Y-98548228D01*
X173989000Y-98383816D01*
X173989000Y-98216184D01*
X174021703Y-98051772D01*
X174085853Y-97896900D01*
X174178985Y-97757519D01*
X174297519Y-97638985D01*
X174436900Y-97545853D01*
X174591772Y-97481703D01*
X174756184Y-97449000D01*
X174923816Y-97449000D01*
X175088228Y-97481703D01*
G37*
G36*
X244088674Y-96103465D02*
G01*
X244126367Y-96114899D01*
X244161103Y-96133466D01*
X244191548Y-96158452D01*
X244216534Y-96188897D01*
X244235101Y-96223633D01*
X244246535Y-96261326D01*
X244251000Y-96306661D01*
X244251000Y-97143339D01*
X244246535Y-97188674D01*
X244235101Y-97226367D01*
X244216534Y-97261103D01*
X244191548Y-97291548D01*
X244161103Y-97316534D01*
X244126367Y-97335101D01*
X244088674Y-97346535D01*
X244043339Y-97351000D01*
X242956661Y-97351000D01*
X242911326Y-97346535D01*
X242873633Y-97335101D01*
X242838897Y-97316534D01*
X242808452Y-97291548D01*
X242783466Y-97261103D01*
X242764899Y-97226367D01*
X242753465Y-97188674D01*
X242749000Y-97143339D01*
X242749000Y-96306661D01*
X242753465Y-96261326D01*
X242764899Y-96223633D01*
X242783466Y-96188897D01*
X242808452Y-96158452D01*
X242838897Y-96133466D01*
X242873633Y-96114899D01*
X242911326Y-96103465D01*
X242956661Y-96099000D01*
X244043339Y-96099000D01*
X244088674Y-96103465D01*
G37*
G36*
X215411000Y-97231000D02*
G01*
X211809000Y-97231000D01*
X211809000Y-95429000D01*
X215411000Y-95429000D01*
X215411000Y-97231000D01*
G37*
G36*
X234991000Y-97231000D02*
G01*
X231389000Y-97231000D01*
X231389000Y-95429000D01*
X234991000Y-95429000D01*
X234991000Y-97231000D01*
G37*
G36*
X175088228Y-94941703D02*
G01*
X175243100Y-95005853D01*
X175382481Y-95098985D01*
X175501015Y-95217519D01*
X175594147Y-95356900D01*
X175658297Y-95511772D01*
X175691000Y-95676184D01*
X175691000Y-95843816D01*
X175658297Y-96008228D01*
X175594147Y-96163100D01*
X175501015Y-96302481D01*
X175382481Y-96421015D01*
X175243100Y-96514147D01*
X175088228Y-96578297D01*
X174923816Y-96611000D01*
X174756184Y-96611000D01*
X174591772Y-96578297D01*
X174436900Y-96514147D01*
X174297519Y-96421015D01*
X174178985Y-96302481D01*
X174085853Y-96163100D01*
X174021703Y-96008228D01*
X173989000Y-95843816D01*
X173989000Y-95676184D01*
X174021703Y-95511772D01*
X174085853Y-95356900D01*
X174178985Y-95217519D01*
X174297519Y-95098985D01*
X174436900Y-95005853D01*
X174591772Y-94941703D01*
X174756184Y-94909000D01*
X174923816Y-94909000D01*
X175088228Y-94941703D01*
G37*
G36*
X159848228Y-94941703D02*
G01*
X160003100Y-95005853D01*
X160142481Y-95098985D01*
X160261015Y-95217519D01*
X160354147Y-95356900D01*
X160418297Y-95511772D01*
X160451000Y-95676184D01*
X160451000Y-95843816D01*
X160418297Y-96008228D01*
X160354147Y-96163100D01*
X160261015Y-96302481D01*
X160142481Y-96421015D01*
X160003100Y-96514147D01*
X159848228Y-96578297D01*
X159683816Y-96611000D01*
X159516184Y-96611000D01*
X159351772Y-96578297D01*
X159196900Y-96514147D01*
X159057519Y-96421015D01*
X158938985Y-96302481D01*
X158845853Y-96163100D01*
X158781703Y-96008228D01*
X158749000Y-95843816D01*
X158749000Y-95676184D01*
X158781703Y-95511772D01*
X158845853Y-95356900D01*
X158938985Y-95217519D01*
X159057519Y-95098985D01*
X159196900Y-95005853D01*
X159351772Y-94941703D01*
X159516184Y-94909000D01*
X159683816Y-94909000D01*
X159848228Y-94941703D01*
G37*
G36*
X244088674Y-94053465D02*
G01*
X244126367Y-94064899D01*
X244161103Y-94083466D01*
X244191548Y-94108452D01*
X244216534Y-94138897D01*
X244235101Y-94173633D01*
X244246535Y-94211326D01*
X244251000Y-94256661D01*
X244251000Y-95093339D01*
X244246535Y-95138674D01*
X244235101Y-95176367D01*
X244216534Y-95211103D01*
X244191548Y-95241548D01*
X244161103Y-95266534D01*
X244126367Y-95285101D01*
X244088674Y-95296535D01*
X244043339Y-95301000D01*
X242956661Y-95301000D01*
X242911326Y-95296535D01*
X242873633Y-95285101D01*
X242838897Y-95266534D01*
X242808452Y-95241548D01*
X242783466Y-95211103D01*
X242764899Y-95176367D01*
X242753465Y-95138674D01*
X242749000Y-95093339D01*
X242749000Y-94256661D01*
X242753465Y-94211326D01*
X242764899Y-94173633D01*
X242783466Y-94138897D01*
X242808452Y-94108452D01*
X242838897Y-94083466D01*
X242873633Y-94064899D01*
X242911326Y-94053465D01*
X242956661Y-94049000D01*
X244043339Y-94049000D01*
X244088674Y-94053465D01*
G37*
G36*
X215411000Y-94691000D02*
G01*
X211809000Y-94691000D01*
X211809000Y-92889000D01*
X215411000Y-92889000D01*
X215411000Y-94691000D01*
G37*
G36*
X234991000Y-94691000D02*
G01*
X231389000Y-94691000D01*
X231389000Y-92889000D01*
X234991000Y-92889000D01*
X234991000Y-94691000D01*
G37*
G36*
X175088228Y-92401703D02*
G01*
X175243100Y-92465853D01*
X175382481Y-92558985D01*
X175501015Y-92677519D01*
X175594147Y-92816900D01*
X175658297Y-92971772D01*
X175691000Y-93136184D01*
X175691000Y-93303816D01*
X175658297Y-93468228D01*
X175594147Y-93623100D01*
X175501015Y-93762481D01*
X175382481Y-93881015D01*
X175243100Y-93974147D01*
X175088228Y-94038297D01*
X174923816Y-94071000D01*
X174756184Y-94071000D01*
X174591772Y-94038297D01*
X174436900Y-93974147D01*
X174297519Y-93881015D01*
X174178985Y-93762481D01*
X174085853Y-93623100D01*
X174021703Y-93468228D01*
X173989000Y-93303816D01*
X173989000Y-93136184D01*
X174021703Y-92971772D01*
X174085853Y-92816900D01*
X174178985Y-92677519D01*
X174297519Y-92558985D01*
X174436900Y-92465853D01*
X174591772Y-92401703D01*
X174756184Y-92369000D01*
X174923816Y-92369000D01*
X175088228Y-92401703D01*
G37*
G36*
X159848228Y-92401703D02*
G01*
X160003100Y-92465853D01*
X160142481Y-92558985D01*
X160261015Y-92677519D01*
X160354147Y-92816900D01*
X160418297Y-92971772D01*
X160451000Y-93136184D01*
X160451000Y-93303816D01*
X160418297Y-93468228D01*
X160354147Y-93623100D01*
X160261015Y-93762481D01*
X160142481Y-93881015D01*
X160003100Y-93974147D01*
X159848228Y-94038297D01*
X159683816Y-94071000D01*
X159516184Y-94071000D01*
X159351772Y-94038297D01*
X159196900Y-93974147D01*
X159057519Y-93881015D01*
X158938985Y-93762481D01*
X158845853Y-93623100D01*
X158781703Y-93468228D01*
X158749000Y-93303816D01*
X158749000Y-93136184D01*
X158781703Y-92971772D01*
X158845853Y-92816900D01*
X158938985Y-92677519D01*
X159057519Y-92558985D01*
X159196900Y-92465853D01*
X159351772Y-92401703D01*
X159516184Y-92369000D01*
X159683816Y-92369000D01*
X159848228Y-92401703D01*
G37*
G36*
X234991000Y-92151000D02*
G01*
X231389000Y-92151000D01*
X231389000Y-90349000D01*
X234991000Y-90349000D01*
X234991000Y-92151000D01*
G37*
G36*
X215411000Y-92151000D02*
G01*
X211809000Y-92151000D01*
X211809000Y-90349000D01*
X215411000Y-90349000D01*
X215411000Y-92151000D01*
G37*
G36*
X175088228Y-89861703D02*
G01*
X175243100Y-89925853D01*
X175382481Y-90018985D01*
X175501015Y-90137519D01*
X175594147Y-90276900D01*
X175658297Y-90431772D01*
X175691000Y-90596184D01*
X175691000Y-90763816D01*
X175658297Y-90928228D01*
X175594147Y-91083100D01*
X175501015Y-91222481D01*
X175382481Y-91341015D01*
X175243100Y-91434147D01*
X175088228Y-91498297D01*
X174923816Y-91531000D01*
X174756184Y-91531000D01*
X174591772Y-91498297D01*
X174436900Y-91434147D01*
X174297519Y-91341015D01*
X174178985Y-91222481D01*
X174085853Y-91083100D01*
X174021703Y-90928228D01*
X173989000Y-90763816D01*
X173989000Y-90596184D01*
X174021703Y-90431772D01*
X174085853Y-90276900D01*
X174178985Y-90137519D01*
X174297519Y-90018985D01*
X174436900Y-89925853D01*
X174591772Y-89861703D01*
X174756184Y-89829000D01*
X174923816Y-89829000D01*
X175088228Y-89861703D01*
G37*
G36*
X159848228Y-89861703D02*
G01*
X160003100Y-89925853D01*
X160142481Y-90018985D01*
X160261015Y-90137519D01*
X160354147Y-90276900D01*
X160418297Y-90431772D01*
X160451000Y-90596184D01*
X160451000Y-90763816D01*
X160418297Y-90928228D01*
X160354147Y-91083100D01*
X160261015Y-91222481D01*
X160142481Y-91341015D01*
X160003100Y-91434147D01*
X159848228Y-91498297D01*
X159683816Y-91531000D01*
X159516184Y-91531000D01*
X159351772Y-91498297D01*
X159196900Y-91434147D01*
X159057519Y-91341015D01*
X158938985Y-91222481D01*
X158845853Y-91083100D01*
X158781703Y-90928228D01*
X158749000Y-90763816D01*
X158749000Y-90596184D01*
X158781703Y-90431772D01*
X158845853Y-90276900D01*
X158938985Y-90137519D01*
X159057519Y-90018985D01*
X159196900Y-89925853D01*
X159351772Y-89861703D01*
X159516184Y-89829000D01*
X159683816Y-89829000D01*
X159848228Y-89861703D01*
G37*
G36*
X200234928Y-89966764D02*
G01*
X200256009Y-89973160D01*
X200275445Y-89983548D01*
X200292476Y-89997524D01*
X200306452Y-90014555D01*
X200316840Y-90033991D01*
X200323236Y-90055072D01*
X200326000Y-90083140D01*
X200326000Y-90546860D01*
X200323236Y-90574928D01*
X200316840Y-90596009D01*
X200306452Y-90615445D01*
X200292476Y-90632476D01*
X200275445Y-90646452D01*
X200256009Y-90656840D01*
X200234928Y-90663236D01*
X200206860Y-90666000D01*
X198293140Y-90666000D01*
X198265072Y-90663236D01*
X198243991Y-90656840D01*
X198224555Y-90646452D01*
X198207524Y-90632476D01*
X198193548Y-90615445D01*
X198183160Y-90596009D01*
X198176764Y-90574928D01*
X198174000Y-90546860D01*
X198174000Y-90083140D01*
X198176764Y-90055072D01*
X198183160Y-90033991D01*
X198193548Y-90014555D01*
X198207524Y-89997524D01*
X198224555Y-89983548D01*
X198243991Y-89973160D01*
X198265072Y-89966764D01*
X198293140Y-89964000D01*
X200206860Y-89964000D01*
X200234928Y-89966764D01*
G37*
G36*
X190934928Y-89966764D02*
G01*
X190956009Y-89973160D01*
X190975445Y-89983548D01*
X190992476Y-89997524D01*
X191006452Y-90014555D01*
X191016840Y-90033991D01*
X191023236Y-90055072D01*
X191026000Y-90083140D01*
X191026000Y-90546860D01*
X191023236Y-90574928D01*
X191016840Y-90596009D01*
X191006452Y-90615445D01*
X190992476Y-90632476D01*
X190975445Y-90646452D01*
X190956009Y-90656840D01*
X190934928Y-90663236D01*
X190906860Y-90666000D01*
X188993140Y-90666000D01*
X188965072Y-90663236D01*
X188943991Y-90656840D01*
X188924555Y-90646452D01*
X188907524Y-90632476D01*
X188893548Y-90615445D01*
X188883160Y-90596009D01*
X188876764Y-90574928D01*
X188874000Y-90546860D01*
X188874000Y-90083140D01*
X188876764Y-90055072D01*
X188883160Y-90033991D01*
X188893548Y-90014555D01*
X188907524Y-89997524D01*
X188924555Y-89983548D01*
X188943991Y-89973160D01*
X188965072Y-89966764D01*
X188993140Y-89964000D01*
X190906860Y-89964000D01*
X190934928Y-89966764D01*
G37*
G36*
X215411000Y-89611000D02*
G01*
X211809000Y-89611000D01*
X211809000Y-87809000D01*
X215411000Y-87809000D01*
X215411000Y-89611000D01*
G37*
G36*
X234991000Y-89611000D02*
G01*
X231389000Y-89611000D01*
X231389000Y-87809000D01*
X234991000Y-87809000D01*
X234991000Y-89611000D01*
G37*
G36*
X190934928Y-88696764D02*
G01*
X190956009Y-88703160D01*
X190975445Y-88713548D01*
X190992476Y-88727524D01*
X191006452Y-88744555D01*
X191016840Y-88763991D01*
X191023236Y-88785072D01*
X191026000Y-88813140D01*
X191026000Y-89276860D01*
X191023236Y-89304928D01*
X191016840Y-89326009D01*
X191006452Y-89345445D01*
X190992476Y-89362476D01*
X190975445Y-89376452D01*
X190956009Y-89386840D01*
X190934928Y-89393236D01*
X190906860Y-89396000D01*
X188993140Y-89396000D01*
X188965072Y-89393236D01*
X188943991Y-89386840D01*
X188924555Y-89376452D01*
X188907524Y-89362476D01*
X188893548Y-89345445D01*
X188883160Y-89326009D01*
X188876764Y-89304928D01*
X188874000Y-89276860D01*
X188874000Y-88813140D01*
X188876764Y-88785072D01*
X188883160Y-88763991D01*
X188893548Y-88744555D01*
X188907524Y-88727524D01*
X188924555Y-88713548D01*
X188943991Y-88703160D01*
X188965072Y-88696764D01*
X188993140Y-88694000D01*
X190906860Y-88694000D01*
X190934928Y-88696764D01*
G37*
G36*
X200234928Y-88696764D02*
G01*
X200256009Y-88703160D01*
X200275445Y-88713548D01*
X200292476Y-88727524D01*
X200306452Y-88744555D01*
X200316840Y-88763991D01*
X200323236Y-88785072D01*
X200326000Y-88813140D01*
X200326000Y-89276860D01*
X200323236Y-89304928D01*
X200316840Y-89326009D01*
X200306452Y-89345445D01*
X200292476Y-89362476D01*
X200275445Y-89376452D01*
X200256009Y-89386840D01*
X200234928Y-89393236D01*
X200206860Y-89396000D01*
X198293140Y-89396000D01*
X198265072Y-89393236D01*
X198243991Y-89386840D01*
X198224555Y-89376452D01*
X198207524Y-89362476D01*
X198193548Y-89345445D01*
X198183160Y-89326009D01*
X198176764Y-89304928D01*
X198174000Y-89276860D01*
X198174000Y-88813140D01*
X198176764Y-88785072D01*
X198183160Y-88763991D01*
X198193548Y-88744555D01*
X198207524Y-88727524D01*
X198224555Y-88713548D01*
X198243991Y-88703160D01*
X198265072Y-88696764D01*
X198293140Y-88694000D01*
X200206860Y-88694000D01*
X200234928Y-88696764D01*
G37*
G36*
X159848228Y-87321703D02*
G01*
X160003100Y-87385853D01*
X160142481Y-87478985D01*
X160261015Y-87597519D01*
X160354147Y-87736900D01*
X160418297Y-87891772D01*
X160451000Y-88056184D01*
X160451000Y-88223816D01*
X160418297Y-88388228D01*
X160354147Y-88543100D01*
X160261015Y-88682481D01*
X160142481Y-88801015D01*
X160003100Y-88894147D01*
X159848228Y-88958297D01*
X159683816Y-88991000D01*
X159516184Y-88991000D01*
X159351772Y-88958297D01*
X159196900Y-88894147D01*
X159057519Y-88801015D01*
X158938985Y-88682481D01*
X158845853Y-88543100D01*
X158781703Y-88388228D01*
X158749000Y-88223816D01*
X158749000Y-88056184D01*
X158781703Y-87891772D01*
X158845853Y-87736900D01*
X158938985Y-87597519D01*
X159057519Y-87478985D01*
X159196900Y-87385853D01*
X159351772Y-87321703D01*
X159516184Y-87289000D01*
X159683816Y-87289000D01*
X159848228Y-87321703D01*
G37*
G36*
X175088228Y-87321703D02*
G01*
X175243100Y-87385853D01*
X175382481Y-87478985D01*
X175501015Y-87597519D01*
X175594147Y-87736900D01*
X175658297Y-87891772D01*
X175691000Y-88056184D01*
X175691000Y-88223816D01*
X175658297Y-88388228D01*
X175594147Y-88543100D01*
X175501015Y-88682481D01*
X175382481Y-88801015D01*
X175243100Y-88894147D01*
X175088228Y-88958297D01*
X174923816Y-88991000D01*
X174756184Y-88991000D01*
X174591772Y-88958297D01*
X174436900Y-88894147D01*
X174297519Y-88801015D01*
X174178985Y-88682481D01*
X174085853Y-88543100D01*
X174021703Y-88388228D01*
X173989000Y-88223816D01*
X173989000Y-88056184D01*
X174021703Y-87891772D01*
X174085853Y-87736900D01*
X174178985Y-87597519D01*
X174297519Y-87478985D01*
X174436900Y-87385853D01*
X174591772Y-87321703D01*
X174756184Y-87289000D01*
X174923816Y-87289000D01*
X175088228Y-87321703D01*
G37*
G36*
X200234928Y-87426764D02*
G01*
X200256009Y-87433160D01*
X200275445Y-87443548D01*
X200292476Y-87457524D01*
X200306452Y-87474555D01*
X200316840Y-87493991D01*
X200323236Y-87515072D01*
X200326000Y-87543140D01*
X200326000Y-88006860D01*
X200323236Y-88034928D01*
X200316840Y-88056009D01*
X200306452Y-88075445D01*
X200292476Y-88092476D01*
X200275445Y-88106452D01*
X200256009Y-88116840D01*
X200234928Y-88123236D01*
X200206860Y-88126000D01*
X198293140Y-88126000D01*
X198265072Y-88123236D01*
X198243991Y-88116840D01*
X198224555Y-88106452D01*
X198207524Y-88092476D01*
X198193548Y-88075445D01*
X198183160Y-88056009D01*
X198176764Y-88034928D01*
X198174000Y-88006860D01*
X198174000Y-87543140D01*
X198176764Y-87515072D01*
X198183160Y-87493991D01*
X198193548Y-87474555D01*
X198207524Y-87457524D01*
X198224555Y-87443548D01*
X198243991Y-87433160D01*
X198265072Y-87426764D01*
X198293140Y-87424000D01*
X200206860Y-87424000D01*
X200234928Y-87426764D01*
G37*
G36*
X190934928Y-87426764D02*
G01*
X190956009Y-87433160D01*
X190975445Y-87443548D01*
X190992476Y-87457524D01*
X191006452Y-87474555D01*
X191016840Y-87493991D01*
X191023236Y-87515072D01*
X191026000Y-87543140D01*
X191026000Y-88006860D01*
X191023236Y-88034928D01*
X191016840Y-88056009D01*
X191006452Y-88075445D01*
X190992476Y-88092476D01*
X190975445Y-88106452D01*
X190956009Y-88116840D01*
X190934928Y-88123236D01*
X190906860Y-88126000D01*
X188993140Y-88126000D01*
X188965072Y-88123236D01*
X188943991Y-88116840D01*
X188924555Y-88106452D01*
X188907524Y-88092476D01*
X188893548Y-88075445D01*
X188883160Y-88056009D01*
X188876764Y-88034928D01*
X188874000Y-88006860D01*
X188874000Y-87543140D01*
X188876764Y-87515072D01*
X188883160Y-87493991D01*
X188893548Y-87474555D01*
X188907524Y-87457524D01*
X188924555Y-87443548D01*
X188943991Y-87433160D01*
X188965072Y-87426764D01*
X188993140Y-87424000D01*
X190906860Y-87424000D01*
X190934928Y-87426764D01*
G37*
G36*
X234991000Y-87071000D02*
G01*
X231389000Y-87071000D01*
X231389000Y-85269000D01*
X234991000Y-85269000D01*
X234991000Y-87071000D01*
G37*
G36*
X215411000Y-87071000D02*
G01*
X211809000Y-87071000D01*
X211809000Y-85269000D01*
X215411000Y-85269000D01*
X215411000Y-87071000D01*
G37*
G36*
X200234928Y-86156764D02*
G01*
X200256009Y-86163160D01*
X200275445Y-86173548D01*
X200292476Y-86187524D01*
X200306452Y-86204555D01*
X200316840Y-86223991D01*
X200323236Y-86245072D01*
X200326000Y-86273140D01*
X200326000Y-86736860D01*
X200323236Y-86764928D01*
X200316840Y-86786009D01*
X200306452Y-86805445D01*
X200292476Y-86822476D01*
X200275445Y-86836452D01*
X200256009Y-86846840D01*
X200234928Y-86853236D01*
X200206860Y-86856000D01*
X198293140Y-86856000D01*
X198265072Y-86853236D01*
X198243991Y-86846840D01*
X198224555Y-86836452D01*
X198207524Y-86822476D01*
X198193548Y-86805445D01*
X198183160Y-86786009D01*
X198176764Y-86764928D01*
X198174000Y-86736860D01*
X198174000Y-86273140D01*
X198176764Y-86245072D01*
X198183160Y-86223991D01*
X198193548Y-86204555D01*
X198207524Y-86187524D01*
X198224555Y-86173548D01*
X198243991Y-86163160D01*
X198265072Y-86156764D01*
X198293140Y-86154000D01*
X200206860Y-86154000D01*
X200234928Y-86156764D01*
G37*
G36*
X190934928Y-86156764D02*
G01*
X190956009Y-86163160D01*
X190975445Y-86173548D01*
X190992476Y-86187524D01*
X191006452Y-86204555D01*
X191016840Y-86223991D01*
X191023236Y-86245072D01*
X191026000Y-86273140D01*
X191026000Y-86736860D01*
X191023236Y-86764928D01*
X191016840Y-86786009D01*
X191006452Y-86805445D01*
X190992476Y-86822476D01*
X190975445Y-86836452D01*
X190956009Y-86846840D01*
X190934928Y-86853236D01*
X190906860Y-86856000D01*
X188993140Y-86856000D01*
X188965072Y-86853236D01*
X188943991Y-86846840D01*
X188924555Y-86836452D01*
X188907524Y-86822476D01*
X188893548Y-86805445D01*
X188883160Y-86786009D01*
X188876764Y-86764928D01*
X188874000Y-86736860D01*
X188874000Y-86273140D01*
X188876764Y-86245072D01*
X188883160Y-86223991D01*
X188893548Y-86204555D01*
X188907524Y-86187524D01*
X188924555Y-86173548D01*
X188943991Y-86163160D01*
X188965072Y-86156764D01*
X188993140Y-86154000D01*
X190906860Y-86154000D01*
X190934928Y-86156764D01*
G37*
G36*
X160451000Y-86451000D02*
G01*
X158749000Y-86451000D01*
X158749000Y-84749000D01*
X160451000Y-84749000D01*
X160451000Y-86451000D01*
G37*
G36*
X175088228Y-84781703D02*
G01*
X175243100Y-84845853D01*
X175382481Y-84938985D01*
X175501015Y-85057519D01*
X175594147Y-85196900D01*
X175658297Y-85351772D01*
X175691000Y-85516184D01*
X175691000Y-85683816D01*
X175658297Y-85848228D01*
X175594147Y-86003100D01*
X175501015Y-86142481D01*
X175382481Y-86261015D01*
X175243100Y-86354147D01*
X175088228Y-86418297D01*
X174923816Y-86451000D01*
X174756184Y-86451000D01*
X174591772Y-86418297D01*
X174436900Y-86354147D01*
X174297519Y-86261015D01*
X174178985Y-86142481D01*
X174085853Y-86003100D01*
X174021703Y-85848228D01*
X173989000Y-85683816D01*
X173989000Y-85516184D01*
X174021703Y-85351772D01*
X174085853Y-85196900D01*
X174178985Y-85057519D01*
X174297519Y-84938985D01*
X174436900Y-84845853D01*
X174591772Y-84781703D01*
X174756184Y-84749000D01*
X174923816Y-84749000D01*
X175088228Y-84781703D01*
G37*
G36*
X252834928Y-85066764D02*
G01*
X252856009Y-85073160D01*
X252875445Y-85083548D01*
X252892476Y-85097524D01*
X252906452Y-85114555D01*
X252916840Y-85133991D01*
X252923236Y-85155072D01*
X252926000Y-85183140D01*
X252926000Y-85646860D01*
X252923236Y-85674928D01*
X252916840Y-85696009D01*
X252906452Y-85715445D01*
X252892476Y-85732476D01*
X252875445Y-85746452D01*
X252856009Y-85756840D01*
X252834928Y-85763236D01*
X252806860Y-85766000D01*
X250893140Y-85766000D01*
X250865072Y-85763236D01*
X250843991Y-85756840D01*
X250824555Y-85746452D01*
X250807524Y-85732476D01*
X250793548Y-85715445D01*
X250783160Y-85696009D01*
X250776764Y-85674928D01*
X250774000Y-85646860D01*
X250774000Y-85183140D01*
X250776764Y-85155072D01*
X250783160Y-85133991D01*
X250793548Y-85114555D01*
X250807524Y-85097524D01*
X250824555Y-85083548D01*
X250843991Y-85073160D01*
X250865072Y-85066764D01*
X250893140Y-85064000D01*
X252806860Y-85064000D01*
X252834928Y-85066764D01*
G37*
G36*
X243534928Y-85066764D02*
G01*
X243556009Y-85073160D01*
X243575445Y-85083548D01*
X243592476Y-85097524D01*
X243606452Y-85114555D01*
X243616840Y-85133991D01*
X243623236Y-85155072D01*
X243626000Y-85183140D01*
X243626000Y-85646860D01*
X243623236Y-85674928D01*
X243616840Y-85696009D01*
X243606452Y-85715445D01*
X243592476Y-85732476D01*
X243575445Y-85746452D01*
X243556009Y-85756840D01*
X243534928Y-85763236D01*
X243506860Y-85766000D01*
X241593140Y-85766000D01*
X241565072Y-85763236D01*
X241543991Y-85756840D01*
X241524555Y-85746452D01*
X241507524Y-85732476D01*
X241493548Y-85715445D01*
X241483160Y-85696009D01*
X241476764Y-85674928D01*
X241474000Y-85646860D01*
X241474000Y-85183140D01*
X241476764Y-85155072D01*
X241483160Y-85133991D01*
X241493548Y-85114555D01*
X241507524Y-85097524D01*
X241524555Y-85083548D01*
X241543991Y-85073160D01*
X241565072Y-85066764D01*
X241593140Y-85064000D01*
X243506860Y-85064000D01*
X243534928Y-85066764D01*
G37*
G36*
X190934928Y-84886764D02*
G01*
X190956009Y-84893160D01*
X190975445Y-84903548D01*
X190992476Y-84917524D01*
X191006452Y-84934555D01*
X191016840Y-84953991D01*
X191023236Y-84975072D01*
X191026000Y-85003140D01*
X191026000Y-85466860D01*
X191023236Y-85494928D01*
X191016840Y-85516009D01*
X191006452Y-85535445D01*
X190992476Y-85552476D01*
X190975445Y-85566452D01*
X190956009Y-85576840D01*
X190934928Y-85583236D01*
X190906860Y-85586000D01*
X188993140Y-85586000D01*
X188965072Y-85583236D01*
X188943991Y-85576840D01*
X188924555Y-85566452D01*
X188907524Y-85552476D01*
X188893548Y-85535445D01*
X188883160Y-85516009D01*
X188876764Y-85494928D01*
X188874000Y-85466860D01*
X188874000Y-85003140D01*
X188876764Y-84975072D01*
X188883160Y-84953991D01*
X188893548Y-84934555D01*
X188907524Y-84917524D01*
X188924555Y-84903548D01*
X188943991Y-84893160D01*
X188965072Y-84886764D01*
X188993140Y-84884000D01*
X190906860Y-84884000D01*
X190934928Y-84886764D01*
G37*
G36*
X200234928Y-84886764D02*
G01*
X200256009Y-84893160D01*
X200275445Y-84903548D01*
X200292476Y-84917524D01*
X200306452Y-84934555D01*
X200316840Y-84953991D01*
X200323236Y-84975072D01*
X200326000Y-85003140D01*
X200326000Y-85466860D01*
X200323236Y-85494928D01*
X200316840Y-85516009D01*
X200306452Y-85535445D01*
X200292476Y-85552476D01*
X200275445Y-85566452D01*
X200256009Y-85576840D01*
X200234928Y-85583236D01*
X200206860Y-85586000D01*
X198293140Y-85586000D01*
X198265072Y-85583236D01*
X198243991Y-85576840D01*
X198224555Y-85566452D01*
X198207524Y-85552476D01*
X198193548Y-85535445D01*
X198183160Y-85516009D01*
X198176764Y-85494928D01*
X198174000Y-85466860D01*
X198174000Y-85003140D01*
X198176764Y-84975072D01*
X198183160Y-84953991D01*
X198193548Y-84934555D01*
X198207524Y-84917524D01*
X198224555Y-84903548D01*
X198243991Y-84893160D01*
X198265072Y-84886764D01*
X198293140Y-84884000D01*
X200206860Y-84884000D01*
X200234928Y-84886764D01*
G37*
G36*
X215411000Y-84531000D02*
G01*
X211809000Y-84531000D01*
X211809000Y-82729000D01*
X215411000Y-82729000D01*
X215411000Y-84531000D01*
G37*
G36*
X234991000Y-84531000D02*
G01*
X231389000Y-84531000D01*
X231389000Y-82729000D01*
X234991000Y-82729000D01*
X234991000Y-84531000D01*
G37*
G36*
X252834928Y-83796764D02*
G01*
X252856009Y-83803160D01*
X252875445Y-83813548D01*
X252892476Y-83827524D01*
X252906452Y-83844555D01*
X252916840Y-83863991D01*
X252923236Y-83885072D01*
X252926000Y-83913140D01*
X252926000Y-84376860D01*
X252923236Y-84404928D01*
X252916840Y-84426009D01*
X252906452Y-84445445D01*
X252892476Y-84462476D01*
X252875445Y-84476452D01*
X252856009Y-84486840D01*
X252834928Y-84493236D01*
X252806860Y-84496000D01*
X250893140Y-84496000D01*
X250865072Y-84493236D01*
X250843991Y-84486840D01*
X250824555Y-84476452D01*
X250807524Y-84462476D01*
X250793548Y-84445445D01*
X250783160Y-84426009D01*
X250776764Y-84404928D01*
X250774000Y-84376860D01*
X250774000Y-83913140D01*
X250776764Y-83885072D01*
X250783160Y-83863991D01*
X250793548Y-83844555D01*
X250807524Y-83827524D01*
X250824555Y-83813548D01*
X250843991Y-83803160D01*
X250865072Y-83796764D01*
X250893140Y-83794000D01*
X252806860Y-83794000D01*
X252834928Y-83796764D01*
G37*
G36*
X243534928Y-83796764D02*
G01*
X243556009Y-83803160D01*
X243575445Y-83813548D01*
X243592476Y-83827524D01*
X243606452Y-83844555D01*
X243616840Y-83863991D01*
X243623236Y-83885072D01*
X243626000Y-83913140D01*
X243626000Y-84376860D01*
X243623236Y-84404928D01*
X243616840Y-84426009D01*
X243606452Y-84445445D01*
X243592476Y-84462476D01*
X243575445Y-84476452D01*
X243556009Y-84486840D01*
X243534928Y-84493236D01*
X243506860Y-84496000D01*
X241593140Y-84496000D01*
X241565072Y-84493236D01*
X241543991Y-84486840D01*
X241524555Y-84476452D01*
X241507524Y-84462476D01*
X241493548Y-84445445D01*
X241483160Y-84426009D01*
X241476764Y-84404928D01*
X241474000Y-84376860D01*
X241474000Y-83913140D01*
X241476764Y-83885072D01*
X241483160Y-83863991D01*
X241493548Y-83844555D01*
X241507524Y-83827524D01*
X241524555Y-83813548D01*
X241543991Y-83803160D01*
X241565072Y-83796764D01*
X241593140Y-83794000D01*
X243506860Y-83794000D01*
X243534928Y-83796764D01*
G37*
G36*
X200234928Y-83616764D02*
G01*
X200256009Y-83623160D01*
X200275445Y-83633548D01*
X200292476Y-83647524D01*
X200306452Y-83664555D01*
X200316840Y-83683991D01*
X200323236Y-83705072D01*
X200326000Y-83733140D01*
X200326000Y-84196860D01*
X200323236Y-84224928D01*
X200316840Y-84246009D01*
X200306452Y-84265445D01*
X200292476Y-84282476D01*
X200275445Y-84296452D01*
X200256009Y-84306840D01*
X200234928Y-84313236D01*
X200206860Y-84316000D01*
X198293140Y-84316000D01*
X198265072Y-84313236D01*
X198243991Y-84306840D01*
X198224555Y-84296452D01*
X198207524Y-84282476D01*
X198193548Y-84265445D01*
X198183160Y-84246009D01*
X198176764Y-84224928D01*
X198174000Y-84196860D01*
X198174000Y-83733140D01*
X198176764Y-83705072D01*
X198183160Y-83683991D01*
X198193548Y-83664555D01*
X198207524Y-83647524D01*
X198224555Y-83633548D01*
X198243991Y-83623160D01*
X198265072Y-83616764D01*
X198293140Y-83614000D01*
X200206860Y-83614000D01*
X200234928Y-83616764D01*
G37*
G36*
X190934928Y-83616764D02*
G01*
X190956009Y-83623160D01*
X190975445Y-83633548D01*
X190992476Y-83647524D01*
X191006452Y-83664555D01*
X191016840Y-83683991D01*
X191023236Y-83705072D01*
X191026000Y-83733140D01*
X191026000Y-84196860D01*
X191023236Y-84224928D01*
X191016840Y-84246009D01*
X191006452Y-84265445D01*
X190992476Y-84282476D01*
X190975445Y-84296452D01*
X190956009Y-84306840D01*
X190934928Y-84313236D01*
X190906860Y-84316000D01*
X188993140Y-84316000D01*
X188965072Y-84313236D01*
X188943991Y-84306840D01*
X188924555Y-84296452D01*
X188907524Y-84282476D01*
X188893548Y-84265445D01*
X188883160Y-84246009D01*
X188876764Y-84224928D01*
X188874000Y-84196860D01*
X188874000Y-83733140D01*
X188876764Y-83705072D01*
X188883160Y-83683991D01*
X188893548Y-83664555D01*
X188907524Y-83647524D01*
X188924555Y-83633548D01*
X188943991Y-83623160D01*
X188965072Y-83616764D01*
X188993140Y-83614000D01*
X190906860Y-83614000D01*
X190934928Y-83616764D01*
G37*
G36*
X252834928Y-82526764D02*
G01*
X252856009Y-82533160D01*
X252875445Y-82543548D01*
X252892476Y-82557524D01*
X252906452Y-82574555D01*
X252916840Y-82593991D01*
X252923236Y-82615072D01*
X252926000Y-82643140D01*
X252926000Y-83106860D01*
X252923236Y-83134928D01*
X252916840Y-83156009D01*
X252906452Y-83175445D01*
X252892476Y-83192476D01*
X252875445Y-83206452D01*
X252856009Y-83216840D01*
X252834928Y-83223236D01*
X252806860Y-83226000D01*
X250893140Y-83226000D01*
X250865072Y-83223236D01*
X250843991Y-83216840D01*
X250824555Y-83206452D01*
X250807524Y-83192476D01*
X250793548Y-83175445D01*
X250783160Y-83156009D01*
X250776764Y-83134928D01*
X250774000Y-83106860D01*
X250774000Y-82643140D01*
X250776764Y-82615072D01*
X250783160Y-82593991D01*
X250793548Y-82574555D01*
X250807524Y-82557524D01*
X250824555Y-82543548D01*
X250843991Y-82533160D01*
X250865072Y-82526764D01*
X250893140Y-82524000D01*
X252806860Y-82524000D01*
X252834928Y-82526764D01*
G37*
G36*
X243534928Y-82526764D02*
G01*
X243556009Y-82533160D01*
X243575445Y-82543548D01*
X243592476Y-82557524D01*
X243606452Y-82574555D01*
X243616840Y-82593991D01*
X243623236Y-82615072D01*
X243626000Y-82643140D01*
X243626000Y-83106860D01*
X243623236Y-83134928D01*
X243616840Y-83156009D01*
X243606452Y-83175445D01*
X243592476Y-83192476D01*
X243575445Y-83206452D01*
X243556009Y-83216840D01*
X243534928Y-83223236D01*
X243506860Y-83226000D01*
X241593140Y-83226000D01*
X241565072Y-83223236D01*
X241543991Y-83216840D01*
X241524555Y-83206452D01*
X241507524Y-83192476D01*
X241493548Y-83175445D01*
X241483160Y-83156009D01*
X241476764Y-83134928D01*
X241474000Y-83106860D01*
X241474000Y-82643140D01*
X241476764Y-82615072D01*
X241483160Y-82593991D01*
X241493548Y-82574555D01*
X241507524Y-82557524D01*
X241524555Y-82543548D01*
X241543991Y-82533160D01*
X241565072Y-82526764D01*
X241593140Y-82524000D01*
X243506860Y-82524000D01*
X243534928Y-82526764D01*
G37*
G36*
X200234928Y-82346764D02*
G01*
X200256009Y-82353160D01*
X200275445Y-82363548D01*
X200292476Y-82377524D01*
X200306452Y-82394555D01*
X200316840Y-82413991D01*
X200323236Y-82435072D01*
X200326000Y-82463140D01*
X200326000Y-82926860D01*
X200323236Y-82954928D01*
X200316840Y-82976009D01*
X200306452Y-82995445D01*
X200292476Y-83012476D01*
X200275445Y-83026452D01*
X200256009Y-83036840D01*
X200234928Y-83043236D01*
X200206860Y-83046000D01*
X198293140Y-83046000D01*
X198265072Y-83043236D01*
X198243991Y-83036840D01*
X198224555Y-83026452D01*
X198207524Y-83012476D01*
X198193548Y-82995445D01*
X198183160Y-82976009D01*
X198176764Y-82954928D01*
X198174000Y-82926860D01*
X198174000Y-82463140D01*
X198176764Y-82435072D01*
X198183160Y-82413991D01*
X198193548Y-82394555D01*
X198207524Y-82377524D01*
X198224555Y-82363548D01*
X198243991Y-82353160D01*
X198265072Y-82346764D01*
X198293140Y-82344000D01*
X200206860Y-82344000D01*
X200234928Y-82346764D01*
G37*
G36*
X190934928Y-82346764D02*
G01*
X190956009Y-82353160D01*
X190975445Y-82363548D01*
X190992476Y-82377524D01*
X191006452Y-82394555D01*
X191016840Y-82413991D01*
X191023236Y-82435072D01*
X191026000Y-82463140D01*
X191026000Y-82926860D01*
X191023236Y-82954928D01*
X191016840Y-82976009D01*
X191006452Y-82995445D01*
X190992476Y-83012476D01*
X190975445Y-83026452D01*
X190956009Y-83036840D01*
X190934928Y-83043236D01*
X190906860Y-83046000D01*
X188993140Y-83046000D01*
X188965072Y-83043236D01*
X188943991Y-83036840D01*
X188924555Y-83026452D01*
X188907524Y-83012476D01*
X188893548Y-82995445D01*
X188883160Y-82976009D01*
X188876764Y-82954928D01*
X188874000Y-82926860D01*
X188874000Y-82463140D01*
X188876764Y-82435072D01*
X188883160Y-82413991D01*
X188893548Y-82394555D01*
X188907524Y-82377524D01*
X188924555Y-82363548D01*
X188943991Y-82353160D01*
X188965072Y-82346764D01*
X188993140Y-82344000D01*
X190906860Y-82344000D01*
X190934928Y-82346764D01*
G37*
G36*
X257601000Y-82601000D02*
G01*
X255799000Y-82601000D01*
X255799000Y-80799000D01*
X257601000Y-80799000D01*
X257601000Y-82601000D01*
G37*
G36*
X234991000Y-81991000D02*
G01*
X231389000Y-81991000D01*
X231389000Y-80189000D01*
X234991000Y-80189000D01*
X234991000Y-81991000D01*
G37*
G36*
X215411000Y-81991000D02*
G01*
X211809000Y-81991000D01*
X211809000Y-80189000D01*
X215411000Y-80189000D01*
X215411000Y-81991000D01*
G37*
G36*
X243534928Y-81256764D02*
G01*
X243556009Y-81263160D01*
X243575445Y-81273548D01*
X243592476Y-81287524D01*
X243606452Y-81304555D01*
X243616840Y-81323991D01*
X243623236Y-81345072D01*
X243626000Y-81373140D01*
X243626000Y-81836860D01*
X243623236Y-81864928D01*
X243616840Y-81886009D01*
X243606452Y-81905445D01*
X243592476Y-81922476D01*
X243575445Y-81936452D01*
X243556009Y-81946840D01*
X243534928Y-81953236D01*
X243506860Y-81956000D01*
X241593140Y-81956000D01*
X241565072Y-81953236D01*
X241543991Y-81946840D01*
X241524555Y-81936452D01*
X241507524Y-81922476D01*
X241493548Y-81905445D01*
X241483160Y-81886009D01*
X241476764Y-81864928D01*
X241474000Y-81836860D01*
X241474000Y-81373140D01*
X241476764Y-81345072D01*
X241483160Y-81323991D01*
X241493548Y-81304555D01*
X241507524Y-81287524D01*
X241524555Y-81273548D01*
X241543991Y-81263160D01*
X241565072Y-81256764D01*
X241593140Y-81254000D01*
X243506860Y-81254000D01*
X243534928Y-81256764D01*
G37*
G36*
X252834928Y-81256764D02*
G01*
X252856009Y-81263160D01*
X252875445Y-81273548D01*
X252892476Y-81287524D01*
X252906452Y-81304555D01*
X252916840Y-81323991D01*
X252923236Y-81345072D01*
X252926000Y-81373140D01*
X252926000Y-81836860D01*
X252923236Y-81864928D01*
X252916840Y-81886009D01*
X252906452Y-81905445D01*
X252892476Y-81922476D01*
X252875445Y-81936452D01*
X252856009Y-81946840D01*
X252834928Y-81953236D01*
X252806860Y-81956000D01*
X250893140Y-81956000D01*
X250865072Y-81953236D01*
X250843991Y-81946840D01*
X250824555Y-81936452D01*
X250807524Y-81922476D01*
X250793548Y-81905445D01*
X250783160Y-81886009D01*
X250776764Y-81864928D01*
X250774000Y-81836860D01*
X250774000Y-81373140D01*
X250776764Y-81345072D01*
X250783160Y-81323991D01*
X250793548Y-81304555D01*
X250807524Y-81287524D01*
X250824555Y-81273548D01*
X250843991Y-81263160D01*
X250865072Y-81256764D01*
X250893140Y-81254000D01*
X252806860Y-81254000D01*
X252834928Y-81256764D01*
G37*
G36*
X200234928Y-81076764D02*
G01*
X200256009Y-81083160D01*
X200275445Y-81093548D01*
X200292476Y-81107524D01*
X200306452Y-81124555D01*
X200316840Y-81143991D01*
X200323236Y-81165072D01*
X200326000Y-81193140D01*
X200326000Y-81656860D01*
X200323236Y-81684928D01*
X200316840Y-81706009D01*
X200306452Y-81725445D01*
X200292476Y-81742476D01*
X200275445Y-81756452D01*
X200256009Y-81766840D01*
X200234928Y-81773236D01*
X200206860Y-81776000D01*
X198293140Y-81776000D01*
X198265072Y-81773236D01*
X198243991Y-81766840D01*
X198224555Y-81756452D01*
X198207524Y-81742476D01*
X198193548Y-81725445D01*
X198183160Y-81706009D01*
X198176764Y-81684928D01*
X198174000Y-81656860D01*
X198174000Y-81193140D01*
X198176764Y-81165072D01*
X198183160Y-81143991D01*
X198193548Y-81124555D01*
X198207524Y-81107524D01*
X198224555Y-81093548D01*
X198243991Y-81083160D01*
X198265072Y-81076764D01*
X198293140Y-81074000D01*
X200206860Y-81074000D01*
X200234928Y-81076764D01*
G37*
G36*
X190934928Y-81076764D02*
G01*
X190956009Y-81083160D01*
X190975445Y-81093548D01*
X190992476Y-81107524D01*
X191006452Y-81124555D01*
X191016840Y-81143991D01*
X191023236Y-81165072D01*
X191026000Y-81193140D01*
X191026000Y-81656860D01*
X191023236Y-81684928D01*
X191016840Y-81706009D01*
X191006452Y-81725445D01*
X190992476Y-81742476D01*
X190975445Y-81756452D01*
X190956009Y-81766840D01*
X190934928Y-81773236D01*
X190906860Y-81776000D01*
X188993140Y-81776000D01*
X188965072Y-81773236D01*
X188943991Y-81766840D01*
X188924555Y-81756452D01*
X188907524Y-81742476D01*
X188893548Y-81725445D01*
X188883160Y-81706009D01*
X188876764Y-81684928D01*
X188874000Y-81656860D01*
X188874000Y-81193140D01*
X188876764Y-81165072D01*
X188883160Y-81143991D01*
X188893548Y-81124555D01*
X188907524Y-81107524D01*
X188924555Y-81093548D01*
X188943991Y-81083160D01*
X188965072Y-81076764D01*
X188993140Y-81074000D01*
X190906860Y-81074000D01*
X190934928Y-81076764D01*
G37*
G36*
X243534928Y-79986764D02*
G01*
X243556009Y-79993160D01*
X243575445Y-80003548D01*
X243592476Y-80017524D01*
X243606452Y-80034555D01*
X243616840Y-80053991D01*
X243623236Y-80075072D01*
X243626000Y-80103140D01*
X243626000Y-80566860D01*
X243623236Y-80594928D01*
X243616840Y-80616009D01*
X243606452Y-80635445D01*
X243592476Y-80652476D01*
X243575445Y-80666452D01*
X243556009Y-80676840D01*
X243534928Y-80683236D01*
X243506860Y-80686000D01*
X241593140Y-80686000D01*
X241565072Y-80683236D01*
X241543991Y-80676840D01*
X241524555Y-80666452D01*
X241507524Y-80652476D01*
X241493548Y-80635445D01*
X241483160Y-80616009D01*
X241476764Y-80594928D01*
X241474000Y-80566860D01*
X241474000Y-80103140D01*
X241476764Y-80075072D01*
X241483160Y-80053991D01*
X241493548Y-80034555D01*
X241507524Y-80017524D01*
X241524555Y-80003548D01*
X241543991Y-79993160D01*
X241565072Y-79986764D01*
X241593140Y-79984000D01*
X243506860Y-79984000D01*
X243534928Y-79986764D01*
G37*
G36*
X252834928Y-79986764D02*
G01*
X252856009Y-79993160D01*
X252875445Y-80003548D01*
X252892476Y-80017524D01*
X252906452Y-80034555D01*
X252916840Y-80053991D01*
X252923236Y-80075072D01*
X252926000Y-80103140D01*
X252926000Y-80566860D01*
X252923236Y-80594928D01*
X252916840Y-80616009D01*
X252906452Y-80635445D01*
X252892476Y-80652476D01*
X252875445Y-80666452D01*
X252856009Y-80676840D01*
X252834928Y-80683236D01*
X252806860Y-80686000D01*
X250893140Y-80686000D01*
X250865072Y-80683236D01*
X250843991Y-80676840D01*
X250824555Y-80666452D01*
X250807524Y-80652476D01*
X250793548Y-80635445D01*
X250783160Y-80616009D01*
X250776764Y-80594928D01*
X250774000Y-80566860D01*
X250774000Y-80103140D01*
X250776764Y-80075072D01*
X250783160Y-80053991D01*
X250793548Y-80034555D01*
X250807524Y-80017524D01*
X250824555Y-80003548D01*
X250843991Y-79993160D01*
X250865072Y-79986764D01*
X250893140Y-79984000D01*
X252806860Y-79984000D01*
X252834928Y-79986764D01*
G37*
G36*
X200234928Y-79806764D02*
G01*
X200256009Y-79813160D01*
X200275445Y-79823548D01*
X200292476Y-79837524D01*
X200306452Y-79854555D01*
X200316840Y-79873991D01*
X200323236Y-79895072D01*
X200326000Y-79923140D01*
X200326000Y-80386860D01*
X200323236Y-80414928D01*
X200316840Y-80436009D01*
X200306452Y-80455445D01*
X200292476Y-80472476D01*
X200275445Y-80486452D01*
X200256009Y-80496840D01*
X200234928Y-80503236D01*
X200206860Y-80506000D01*
X198293140Y-80506000D01*
X198265072Y-80503236D01*
X198243991Y-80496840D01*
X198224555Y-80486452D01*
X198207524Y-80472476D01*
X198193548Y-80455445D01*
X198183160Y-80436009D01*
X198176764Y-80414928D01*
X198174000Y-80386860D01*
X198174000Y-79923140D01*
X198176764Y-79895072D01*
X198183160Y-79873991D01*
X198193548Y-79854555D01*
X198207524Y-79837524D01*
X198224555Y-79823548D01*
X198243991Y-79813160D01*
X198265072Y-79806764D01*
X198293140Y-79804000D01*
X200206860Y-79804000D01*
X200234928Y-79806764D01*
G37*
G36*
X190934928Y-79806764D02*
G01*
X190956009Y-79813160D01*
X190975445Y-79823548D01*
X190992476Y-79837524D01*
X191006452Y-79854555D01*
X191016840Y-79873991D01*
X191023236Y-79895072D01*
X191026000Y-79923140D01*
X191026000Y-80386860D01*
X191023236Y-80414928D01*
X191016840Y-80436009D01*
X191006452Y-80455445D01*
X190992476Y-80472476D01*
X190975445Y-80486452D01*
X190956009Y-80496840D01*
X190934928Y-80503236D01*
X190906860Y-80506000D01*
X188993140Y-80506000D01*
X188965072Y-80503236D01*
X188943991Y-80496840D01*
X188924555Y-80486452D01*
X188907524Y-80472476D01*
X188893548Y-80455445D01*
X188883160Y-80436009D01*
X188876764Y-80414928D01*
X188874000Y-80386860D01*
X188874000Y-79923140D01*
X188876764Y-79895072D01*
X188883160Y-79873991D01*
X188893548Y-79854555D01*
X188907524Y-79837524D01*
X188924555Y-79823548D01*
X188943991Y-79813160D01*
X188965072Y-79806764D01*
X188993140Y-79804000D01*
X190906860Y-79804000D01*
X190934928Y-79806764D01*
G37*
G36*
X256813512Y-78263927D02*
G01*
X256962812Y-78293624D01*
X257126784Y-78361544D01*
X257274354Y-78460147D01*
X257399853Y-78585646D01*
X257498456Y-78733216D01*
X257566376Y-78897188D01*
X257601000Y-79071259D01*
X257601000Y-79248741D01*
X257566376Y-79422812D01*
X257498456Y-79586784D01*
X257399853Y-79734354D01*
X257274354Y-79859853D01*
X257126784Y-79958456D01*
X256962812Y-80026376D01*
X256813512Y-80056073D01*
X256788742Y-80061000D01*
X256611258Y-80061000D01*
X256586488Y-80056073D01*
X256437188Y-80026376D01*
X256273216Y-79958456D01*
X256125646Y-79859853D01*
X256000147Y-79734354D01*
X255901544Y-79586784D01*
X255833624Y-79422812D01*
X255799000Y-79248741D01*
X255799000Y-79071259D01*
X255833624Y-78897188D01*
X255901544Y-78733216D01*
X256000147Y-78585646D01*
X256125646Y-78460147D01*
X256273216Y-78361544D01*
X256437188Y-78293624D01*
X256586488Y-78263927D01*
X256611258Y-78259000D01*
X256788742Y-78259000D01*
X256813512Y-78263927D01*
G37*
G36*
X215411000Y-79451000D02*
G01*
X211809000Y-79451000D01*
X211809000Y-77649000D01*
X215411000Y-77649000D01*
X215411000Y-79451000D01*
G37*
G36*
X234991000Y-79451000D02*
G01*
X231389000Y-79451000D01*
X231389000Y-77649000D01*
X234991000Y-77649000D01*
X234991000Y-79451000D01*
G37*
G36*
X243534928Y-78716764D02*
G01*
X243556009Y-78723160D01*
X243575445Y-78733548D01*
X243592476Y-78747524D01*
X243606452Y-78764555D01*
X243616840Y-78783991D01*
X243623236Y-78805072D01*
X243626000Y-78833140D01*
X243626000Y-79296860D01*
X243623236Y-79324928D01*
X243616840Y-79346009D01*
X243606452Y-79365445D01*
X243592476Y-79382476D01*
X243575445Y-79396452D01*
X243556009Y-79406840D01*
X243534928Y-79413236D01*
X243506860Y-79416000D01*
X241593140Y-79416000D01*
X241565072Y-79413236D01*
X241543991Y-79406840D01*
X241524555Y-79396452D01*
X241507524Y-79382476D01*
X241493548Y-79365445D01*
X241483160Y-79346009D01*
X241476764Y-79324928D01*
X241474000Y-79296860D01*
X241474000Y-78833140D01*
X241476764Y-78805072D01*
X241483160Y-78783991D01*
X241493548Y-78764555D01*
X241507524Y-78747524D01*
X241524555Y-78733548D01*
X241543991Y-78723160D01*
X241565072Y-78716764D01*
X241593140Y-78714000D01*
X243506860Y-78714000D01*
X243534928Y-78716764D01*
G37*
G36*
X252834928Y-78716764D02*
G01*
X252856009Y-78723160D01*
X252875445Y-78733548D01*
X252892476Y-78747524D01*
X252906452Y-78764555D01*
X252916840Y-78783991D01*
X252923236Y-78805072D01*
X252926000Y-78833140D01*
X252926000Y-79296860D01*
X252923236Y-79324928D01*
X252916840Y-79346009D01*
X252906452Y-79365445D01*
X252892476Y-79382476D01*
X252875445Y-79396452D01*
X252856009Y-79406840D01*
X252834928Y-79413236D01*
X252806860Y-79416000D01*
X250893140Y-79416000D01*
X250865072Y-79413236D01*
X250843991Y-79406840D01*
X250824555Y-79396452D01*
X250807524Y-79382476D01*
X250793548Y-79365445D01*
X250783160Y-79346009D01*
X250776764Y-79324928D01*
X250774000Y-79296860D01*
X250774000Y-78833140D01*
X250776764Y-78805072D01*
X250783160Y-78783991D01*
X250793548Y-78764555D01*
X250807524Y-78747524D01*
X250824555Y-78733548D01*
X250843991Y-78723160D01*
X250865072Y-78716764D01*
X250893140Y-78714000D01*
X252806860Y-78714000D01*
X252834928Y-78716764D01*
G37*
G36*
X200234928Y-78536764D02*
G01*
X200256009Y-78543160D01*
X200275445Y-78553548D01*
X200292476Y-78567524D01*
X200306452Y-78584555D01*
X200316840Y-78603991D01*
X200323236Y-78625072D01*
X200326000Y-78653140D01*
X200326000Y-79116860D01*
X200323236Y-79144928D01*
X200316840Y-79166009D01*
X200306452Y-79185445D01*
X200292476Y-79202476D01*
X200275445Y-79216452D01*
X200256009Y-79226840D01*
X200234928Y-79233236D01*
X200206860Y-79236000D01*
X198293140Y-79236000D01*
X198265072Y-79233236D01*
X198243991Y-79226840D01*
X198224555Y-79216452D01*
X198207524Y-79202476D01*
X198193548Y-79185445D01*
X198183160Y-79166009D01*
X198176764Y-79144928D01*
X198174000Y-79116860D01*
X198174000Y-78653140D01*
X198176764Y-78625072D01*
X198183160Y-78603991D01*
X198193548Y-78584555D01*
X198207524Y-78567524D01*
X198224555Y-78553548D01*
X198243991Y-78543160D01*
X198265072Y-78536764D01*
X198293140Y-78534000D01*
X200206860Y-78534000D01*
X200234928Y-78536764D01*
G37*
G36*
X190934928Y-78536764D02*
G01*
X190956009Y-78543160D01*
X190975445Y-78553548D01*
X190992476Y-78567524D01*
X191006452Y-78584555D01*
X191016840Y-78603991D01*
X191023236Y-78625072D01*
X191026000Y-78653140D01*
X191026000Y-79116860D01*
X191023236Y-79144928D01*
X191016840Y-79166009D01*
X191006452Y-79185445D01*
X190992476Y-79202476D01*
X190975445Y-79216452D01*
X190956009Y-79226840D01*
X190934928Y-79233236D01*
X190906860Y-79236000D01*
X188993140Y-79236000D01*
X188965072Y-79233236D01*
X188943991Y-79226840D01*
X188924555Y-79216452D01*
X188907524Y-79202476D01*
X188893548Y-79185445D01*
X188883160Y-79166009D01*
X188876764Y-79144928D01*
X188874000Y-79116860D01*
X188874000Y-78653140D01*
X188876764Y-78625072D01*
X188883160Y-78603991D01*
X188893548Y-78584555D01*
X188907524Y-78567524D01*
X188924555Y-78553548D01*
X188943991Y-78543160D01*
X188965072Y-78536764D01*
X188993140Y-78534000D01*
X190906860Y-78534000D01*
X190934928Y-78536764D01*
G37*
G36*
X252834928Y-77446764D02*
G01*
X252856009Y-77453160D01*
X252875445Y-77463548D01*
X252892476Y-77477524D01*
X252906452Y-77494555D01*
X252916840Y-77513991D01*
X252923236Y-77535072D01*
X252926000Y-77563140D01*
X252926000Y-78026860D01*
X252923236Y-78054928D01*
X252916840Y-78076009D01*
X252906452Y-78095445D01*
X252892476Y-78112476D01*
X252875445Y-78126452D01*
X252856009Y-78136840D01*
X252834928Y-78143236D01*
X252806860Y-78146000D01*
X250893140Y-78146000D01*
X250865072Y-78143236D01*
X250843991Y-78136840D01*
X250824555Y-78126452D01*
X250807524Y-78112476D01*
X250793548Y-78095445D01*
X250783160Y-78076009D01*
X250776764Y-78054928D01*
X250774000Y-78026860D01*
X250774000Y-77563140D01*
X250776764Y-77535072D01*
X250783160Y-77513991D01*
X250793548Y-77494555D01*
X250807524Y-77477524D01*
X250824555Y-77463548D01*
X250843991Y-77453160D01*
X250865072Y-77446764D01*
X250893140Y-77444000D01*
X252806860Y-77444000D01*
X252834928Y-77446764D01*
G37*
G36*
X243534928Y-77446764D02*
G01*
X243556009Y-77453160D01*
X243575445Y-77463548D01*
X243592476Y-77477524D01*
X243606452Y-77494555D01*
X243616840Y-77513991D01*
X243623236Y-77535072D01*
X243626000Y-77563140D01*
X243626000Y-78026860D01*
X243623236Y-78054928D01*
X243616840Y-78076009D01*
X243606452Y-78095445D01*
X243592476Y-78112476D01*
X243575445Y-78126452D01*
X243556009Y-78136840D01*
X243534928Y-78143236D01*
X243506860Y-78146000D01*
X241593140Y-78146000D01*
X241565072Y-78143236D01*
X241543991Y-78136840D01*
X241524555Y-78126452D01*
X241507524Y-78112476D01*
X241493548Y-78095445D01*
X241483160Y-78076009D01*
X241476764Y-78054928D01*
X241474000Y-78026860D01*
X241474000Y-77563140D01*
X241476764Y-77535072D01*
X241483160Y-77513991D01*
X241493548Y-77494555D01*
X241507524Y-77477524D01*
X241524555Y-77463548D01*
X241543991Y-77453160D01*
X241565072Y-77446764D01*
X241593140Y-77444000D01*
X243506860Y-77444000D01*
X243534928Y-77446764D01*
G37*
G36*
X256813512Y-75723927D02*
G01*
X256962812Y-75753624D01*
X257126784Y-75821544D01*
X257274354Y-75920147D01*
X257399853Y-76045646D01*
X257498456Y-76193216D01*
X257566376Y-76357188D01*
X257601000Y-76531259D01*
X257601000Y-76708741D01*
X257566376Y-76882812D01*
X257498456Y-77046784D01*
X257399853Y-77194354D01*
X257274354Y-77319853D01*
X257126784Y-77418456D01*
X256962812Y-77486376D01*
X256813512Y-77516073D01*
X256788742Y-77521000D01*
X256611258Y-77521000D01*
X256586488Y-77516073D01*
X256437188Y-77486376D01*
X256273216Y-77418456D01*
X256125646Y-77319853D01*
X256000147Y-77194354D01*
X255901544Y-77046784D01*
X255833624Y-76882812D01*
X255799000Y-76708741D01*
X255799000Y-76531259D01*
X255833624Y-76357188D01*
X255901544Y-76193216D01*
X256000147Y-76045646D01*
X256125646Y-75920147D01*
X256273216Y-75821544D01*
X256437188Y-75753624D01*
X256586488Y-75723927D01*
X256611258Y-75719000D01*
X256788742Y-75719000D01*
X256813512Y-75723927D01*
G37*
G36*
X221208642Y-75859781D02*
G01*
X221354380Y-75920148D01*
X221354416Y-75920163D01*
X221485608Y-76007822D01*
X221597178Y-76119392D01*
X221684837Y-76250584D01*
X221684838Y-76250586D01*
X221745219Y-76396358D01*
X221776000Y-76551107D01*
X221776000Y-76708893D01*
X221745219Y-76863642D01*
X221684838Y-77009414D01*
X221684837Y-77009416D01*
X221597178Y-77140608D01*
X221485608Y-77252178D01*
X221354416Y-77339837D01*
X221354415Y-77339838D01*
X221354414Y-77339838D01*
X221208642Y-77400219D01*
X221053893Y-77431000D01*
X220896107Y-77431000D01*
X220741358Y-77400219D01*
X220595586Y-77339838D01*
X220595585Y-77339838D01*
X220595584Y-77339837D01*
X220464392Y-77252178D01*
X220352822Y-77140608D01*
X220265163Y-77009416D01*
X220265162Y-77009414D01*
X220204781Y-76863642D01*
X220174000Y-76708893D01*
X220174000Y-76551107D01*
X220204781Y-76396358D01*
X220265162Y-76250586D01*
X220265163Y-76250584D01*
X220352822Y-76119392D01*
X220464392Y-76007822D01*
X220595584Y-75920163D01*
X220595620Y-75920148D01*
X220741358Y-75859781D01*
X220896107Y-75829000D01*
X221053893Y-75829000D01*
X221208642Y-75859781D01*
G37*
G36*
X226058642Y-75859781D02*
G01*
X226204380Y-75920148D01*
X226204416Y-75920163D01*
X226335608Y-76007822D01*
X226447178Y-76119392D01*
X226534837Y-76250584D01*
X226534838Y-76250586D01*
X226595219Y-76396358D01*
X226626000Y-76551107D01*
X226626000Y-76708893D01*
X226595219Y-76863642D01*
X226534838Y-77009414D01*
X226534837Y-77009416D01*
X226447178Y-77140608D01*
X226335608Y-77252178D01*
X226204416Y-77339837D01*
X226204415Y-77339838D01*
X226204414Y-77339838D01*
X226058642Y-77400219D01*
X225903893Y-77431000D01*
X225746107Y-77431000D01*
X225591358Y-77400219D01*
X225445586Y-77339838D01*
X225445585Y-77339838D01*
X225445584Y-77339837D01*
X225314392Y-77252178D01*
X225202822Y-77140608D01*
X225115163Y-77009416D01*
X225115162Y-77009414D01*
X225054781Y-76863642D01*
X225024000Y-76708893D01*
X225024000Y-76551107D01*
X225054781Y-76396358D01*
X225115162Y-76250586D01*
X225115163Y-76250584D01*
X225202822Y-76119392D01*
X225314392Y-76007822D01*
X225445584Y-75920163D01*
X225445620Y-75920148D01*
X225591358Y-75859781D01*
X225746107Y-75829000D01*
X225903893Y-75829000D01*
X226058642Y-75859781D01*
G37*
G36*
X215411000Y-76911000D02*
G01*
X211809000Y-76911000D01*
X211809000Y-75109000D01*
X215411000Y-75109000D01*
X215411000Y-76911000D01*
G37*
G36*
X234991000Y-76911000D02*
G01*
X231389000Y-76911000D01*
X231389000Y-75109000D01*
X234991000Y-75109000D01*
X234991000Y-76911000D01*
G37*
G36*
X243534928Y-76176764D02*
G01*
X243556009Y-76183160D01*
X243575445Y-76193548D01*
X243592476Y-76207524D01*
X243606452Y-76224555D01*
X243616840Y-76243991D01*
X243623236Y-76265072D01*
X243626000Y-76293140D01*
X243626000Y-76756860D01*
X243623236Y-76784928D01*
X243616840Y-76806009D01*
X243606452Y-76825445D01*
X243592476Y-76842476D01*
X243575445Y-76856452D01*
X243556009Y-76866840D01*
X243534928Y-76873236D01*
X243506860Y-76876000D01*
X241593140Y-76876000D01*
X241565072Y-76873236D01*
X241543991Y-76866840D01*
X241524555Y-76856452D01*
X241507524Y-76842476D01*
X241493548Y-76825445D01*
X241483160Y-76806009D01*
X241476764Y-76784928D01*
X241474000Y-76756860D01*
X241474000Y-76293140D01*
X241476764Y-76265072D01*
X241483160Y-76243991D01*
X241493548Y-76224555D01*
X241507524Y-76207524D01*
X241524555Y-76193548D01*
X241543991Y-76183160D01*
X241565072Y-76176764D01*
X241593140Y-76174000D01*
X243506860Y-76174000D01*
X243534928Y-76176764D01*
G37*
G36*
X252834928Y-76176764D02*
G01*
X252856009Y-76183160D01*
X252875445Y-76193548D01*
X252892476Y-76207524D01*
X252906452Y-76224555D01*
X252916840Y-76243991D01*
X252923236Y-76265072D01*
X252926000Y-76293140D01*
X252926000Y-76756860D01*
X252923236Y-76784928D01*
X252916840Y-76806009D01*
X252906452Y-76825445D01*
X252892476Y-76842476D01*
X252875445Y-76856452D01*
X252856009Y-76866840D01*
X252834928Y-76873236D01*
X252806860Y-76876000D01*
X250893140Y-76876000D01*
X250865072Y-76873236D01*
X250843991Y-76866840D01*
X250824555Y-76856452D01*
X250807524Y-76842476D01*
X250793548Y-76825445D01*
X250783160Y-76806009D01*
X250776764Y-76784928D01*
X250774000Y-76756860D01*
X250774000Y-76293140D01*
X250776764Y-76265072D01*
X250783160Y-76243991D01*
X250793548Y-76224555D01*
X250807524Y-76207524D01*
X250824555Y-76193548D01*
X250843991Y-76183160D01*
X250865072Y-76176764D01*
X250893140Y-76174000D01*
X252806860Y-76174000D01*
X252834928Y-76176764D01*
G37*
G36*
X252834928Y-74906764D02*
G01*
X252856009Y-74913160D01*
X252875445Y-74923548D01*
X252892476Y-74937524D01*
X252906452Y-74954555D01*
X252916840Y-74973991D01*
X252923236Y-74995072D01*
X252926000Y-75023140D01*
X252926000Y-75486860D01*
X252923236Y-75514928D01*
X252916840Y-75536009D01*
X252906452Y-75555445D01*
X252892476Y-75572476D01*
X252875445Y-75586452D01*
X252856009Y-75596840D01*
X252834928Y-75603236D01*
X252806860Y-75606000D01*
X250893140Y-75606000D01*
X250865072Y-75603236D01*
X250843991Y-75596840D01*
X250824555Y-75586452D01*
X250807524Y-75572476D01*
X250793548Y-75555445D01*
X250783160Y-75536009D01*
X250776764Y-75514928D01*
X250774000Y-75486860D01*
X250774000Y-75023140D01*
X250776764Y-74995072D01*
X250783160Y-74973991D01*
X250793548Y-74954555D01*
X250807524Y-74937524D01*
X250824555Y-74923548D01*
X250843991Y-74913160D01*
X250865072Y-74906764D01*
X250893140Y-74904000D01*
X252806860Y-74904000D01*
X252834928Y-74906764D01*
G37*
G36*
X243534928Y-74906764D02*
G01*
X243556009Y-74913160D01*
X243575445Y-74923548D01*
X243592476Y-74937524D01*
X243606452Y-74954555D01*
X243616840Y-74973991D01*
X243623236Y-74995072D01*
X243626000Y-75023140D01*
X243626000Y-75486860D01*
X243623236Y-75514928D01*
X243616840Y-75536009D01*
X243606452Y-75555445D01*
X243592476Y-75572476D01*
X243575445Y-75586452D01*
X243556009Y-75596840D01*
X243534928Y-75603236D01*
X243506860Y-75606000D01*
X241593140Y-75606000D01*
X241565072Y-75603236D01*
X241543991Y-75596840D01*
X241524555Y-75586452D01*
X241507524Y-75572476D01*
X241493548Y-75555445D01*
X241483160Y-75536009D01*
X241476764Y-75514928D01*
X241474000Y-75486860D01*
X241474000Y-75023140D01*
X241476764Y-74995072D01*
X241483160Y-74973991D01*
X241493548Y-74954555D01*
X241507524Y-74937524D01*
X241524555Y-74923548D01*
X241543991Y-74913160D01*
X241565072Y-74906764D01*
X241593140Y-74904000D01*
X243506860Y-74904000D01*
X243534928Y-74906764D01*
G37*
G36*
X226402395Y-72685546D02*
G01*
X226575466Y-72757234D01*
X226652818Y-72808919D01*
X226731227Y-72861310D01*
X226863690Y-72993773D01*
X226916081Y-73072182D01*
X226967766Y-73149534D01*
X227039454Y-73322605D01*
X227076000Y-73506333D01*
X227076000Y-73693667D01*
X227039454Y-73877395D01*
X226967766Y-74050466D01*
X226967765Y-74050467D01*
X226863690Y-74206227D01*
X226731227Y-74338690D01*
X226682871Y-74371000D01*
X226575466Y-74442766D01*
X226402395Y-74514454D01*
X226218667Y-74551000D01*
X226031333Y-74551000D01*
X225847605Y-74514454D01*
X225674534Y-74442766D01*
X225567129Y-74371000D01*
X225518773Y-74338690D01*
X225386310Y-74206227D01*
X225282235Y-74050467D01*
X225282234Y-74050466D01*
X225210546Y-73877395D01*
X225174000Y-73693667D01*
X225174000Y-73506333D01*
X225210546Y-73322605D01*
X225282234Y-73149534D01*
X225333919Y-73072182D01*
X225386310Y-72993773D01*
X225518773Y-72861310D01*
X225597182Y-72808919D01*
X225674534Y-72757234D01*
X225847605Y-72685546D01*
X226031333Y-72649000D01*
X226218667Y-72649000D01*
X226402395Y-72685546D01*
G37*
G36*
X220952395Y-72685546D02*
G01*
X221125466Y-72757234D01*
X221202818Y-72808919D01*
X221281227Y-72861310D01*
X221413690Y-72993773D01*
X221466081Y-73072182D01*
X221517766Y-73149534D01*
X221589454Y-73322605D01*
X221626000Y-73506333D01*
X221626000Y-73693667D01*
X221589454Y-73877395D01*
X221517766Y-74050466D01*
X221517765Y-74050467D01*
X221413690Y-74206227D01*
X221281227Y-74338690D01*
X221232871Y-74371000D01*
X221125466Y-74442766D01*
X220952395Y-74514454D01*
X220768667Y-74551000D01*
X220581333Y-74551000D01*
X220397605Y-74514454D01*
X220224534Y-74442766D01*
X220117129Y-74371000D01*
X220068773Y-74338690D01*
X219936310Y-74206227D01*
X219832235Y-74050467D01*
X219832234Y-74050466D01*
X219760546Y-73877395D01*
X219724000Y-73693667D01*
X219724000Y-73506333D01*
X219760546Y-73322605D01*
X219832234Y-73149534D01*
X219883919Y-73072182D01*
X219936310Y-72993773D01*
X220068773Y-72861310D01*
X220147182Y-72808919D01*
X220224534Y-72757234D01*
X220397605Y-72685546D01*
X220581333Y-72649000D01*
X220768667Y-72649000D01*
X220952395Y-72685546D01*
G37*
G36*
X234991000Y-74371000D02*
G01*
X231389000Y-74371000D01*
X231389000Y-72569000D01*
X234991000Y-72569000D01*
X234991000Y-74371000D01*
G37*
G36*
X215411000Y-74371000D02*
G01*
X211809000Y-74371000D01*
X211809000Y-72569000D01*
X215411000Y-72569000D01*
X215411000Y-74371000D01*
G37*
G36*
X252834928Y-73636764D02*
G01*
X252856009Y-73643160D01*
X252875445Y-73653548D01*
X252892476Y-73667524D01*
X252906452Y-73684555D01*
X252916840Y-73703991D01*
X252923236Y-73725072D01*
X252926000Y-73753140D01*
X252926000Y-74216860D01*
X252923236Y-74244928D01*
X252916840Y-74266009D01*
X252906452Y-74285445D01*
X252892476Y-74302476D01*
X252875445Y-74316452D01*
X252856009Y-74326840D01*
X252834928Y-74333236D01*
X252806860Y-74336000D01*
X250893140Y-74336000D01*
X250865072Y-74333236D01*
X250843991Y-74326840D01*
X250824555Y-74316452D01*
X250807524Y-74302476D01*
X250793548Y-74285445D01*
X250783160Y-74266009D01*
X250776764Y-74244928D01*
X250774000Y-74216860D01*
X250774000Y-73753140D01*
X250776764Y-73725072D01*
X250783160Y-73703991D01*
X250793548Y-73684555D01*
X250807524Y-73667524D01*
X250824555Y-73653548D01*
X250843991Y-73643160D01*
X250865072Y-73636764D01*
X250893140Y-73634000D01*
X252806860Y-73634000D01*
X252834928Y-73636764D01*
G37*
G36*
X243534928Y-73636764D02*
G01*
X243556009Y-73643160D01*
X243575445Y-73653548D01*
X243592476Y-73667524D01*
X243606452Y-73684555D01*
X243616840Y-73703991D01*
X243623236Y-73725072D01*
X243626000Y-73753140D01*
X243626000Y-74216860D01*
X243623236Y-74244928D01*
X243616840Y-74266009D01*
X243606452Y-74285445D01*
X243592476Y-74302476D01*
X243575445Y-74316452D01*
X243556009Y-74326840D01*
X243534928Y-74333236D01*
X243506860Y-74336000D01*
X241593140Y-74336000D01*
X241565072Y-74333236D01*
X241543991Y-74326840D01*
X241524555Y-74316452D01*
X241507524Y-74302476D01*
X241493548Y-74285445D01*
X241483160Y-74266009D01*
X241476764Y-74244928D01*
X241474000Y-74216860D01*
X241474000Y-73753140D01*
X241476764Y-73725072D01*
X241483160Y-73703991D01*
X241493548Y-73684555D01*
X241507524Y-73667524D01*
X241524555Y-73653548D01*
X241543991Y-73643160D01*
X241565072Y-73636764D01*
X241593140Y-73634000D01*
X243506860Y-73634000D01*
X243534928Y-73636764D01*
G37*
G36*
X246138674Y-69753465D02*
G01*
X246176367Y-69764899D01*
X246211103Y-69783466D01*
X246241548Y-69808452D01*
X246266534Y-69838897D01*
X246285101Y-69873633D01*
X246296535Y-69911326D01*
X246301000Y-69956661D01*
X246301000Y-71043339D01*
X246296535Y-71088674D01*
X246285101Y-71126367D01*
X246266534Y-71161103D01*
X246241548Y-71191548D01*
X246211103Y-71216534D01*
X246176367Y-71235101D01*
X246138674Y-71246535D01*
X246093339Y-71251000D01*
X245256661Y-71251000D01*
X245211326Y-71246535D01*
X245173633Y-71235101D01*
X245138897Y-71216534D01*
X245108452Y-71191548D01*
X245083466Y-71161103D01*
X245064899Y-71126367D01*
X245053465Y-71088674D01*
X245049000Y-71043339D01*
X245049000Y-69956661D01*
X245053465Y-69911326D01*
X245064899Y-69873633D01*
X245083466Y-69838897D01*
X245108452Y-69808452D01*
X245138897Y-69783466D01*
X245173633Y-69764899D01*
X245211326Y-69753465D01*
X245256661Y-69749000D01*
X246093339Y-69749000D01*
X246138674Y-69753465D01*
G37*
G36*
X248188674Y-69753465D02*
G01*
X248226367Y-69764899D01*
X248261103Y-69783466D01*
X248291548Y-69808452D01*
X248316534Y-69838897D01*
X248335101Y-69873633D01*
X248346535Y-69911326D01*
X248351000Y-69956661D01*
X248351000Y-71043339D01*
X248346535Y-71088674D01*
X248335101Y-71126367D01*
X248316534Y-71161103D01*
X248291548Y-71191548D01*
X248261103Y-71216534D01*
X248226367Y-71235101D01*
X248188674Y-71246535D01*
X248143339Y-71251000D01*
X247306661Y-71251000D01*
X247261326Y-71246535D01*
X247223633Y-71235101D01*
X247188897Y-71216534D01*
X247158452Y-71191548D01*
X247133466Y-71161103D01*
X247114899Y-71126367D01*
X247103465Y-71088674D01*
X247099000Y-71043339D01*
X247099000Y-69956661D01*
X247103465Y-69911326D01*
X247114899Y-69873633D01*
X247133466Y-69838897D01*
X247158452Y-69808452D01*
X247188897Y-69783466D01*
X247223633Y-69764899D01*
X247261326Y-69753465D01*
X247306661Y-69749000D01*
X248143339Y-69749000D01*
X248188674Y-69753465D01*
G37*
G36*
X196173512Y-69303927D02*
G01*
X196322812Y-69333624D01*
X196486784Y-69401544D01*
X196634354Y-69500147D01*
X196759853Y-69625646D01*
X196858456Y-69773216D01*
X196926376Y-69937188D01*
X196961000Y-70111259D01*
X196961000Y-70288741D01*
X196926376Y-70462812D01*
X196858456Y-70626784D01*
X196759853Y-70774354D01*
X196634354Y-70899853D01*
X196486784Y-70998456D01*
X196322812Y-71066376D01*
X196173512Y-71096073D01*
X196148742Y-71101000D01*
X195971258Y-71101000D01*
X195946488Y-71096073D01*
X195797188Y-71066376D01*
X195633216Y-70998456D01*
X195485646Y-70899853D01*
X195360147Y-70774354D01*
X195261544Y-70626784D01*
X195193624Y-70462812D01*
X195159000Y-70288741D01*
X195159000Y-70111259D01*
X195193624Y-69937188D01*
X195261544Y-69773216D01*
X195360147Y-69625646D01*
X195485646Y-69500147D01*
X195633216Y-69401544D01*
X195797188Y-69333624D01*
X195946488Y-69303927D01*
X195971258Y-69299000D01*
X196148742Y-69299000D01*
X196173512Y-69303927D01*
G37*
G36*
X198713512Y-69303927D02*
G01*
X198862812Y-69333624D01*
X199026784Y-69401544D01*
X199174354Y-69500147D01*
X199299853Y-69625646D01*
X199398456Y-69773216D01*
X199466376Y-69937188D01*
X199501000Y-70111259D01*
X199501000Y-70288741D01*
X199466376Y-70462812D01*
X199398456Y-70626784D01*
X199299853Y-70774354D01*
X199174354Y-70899853D01*
X199026784Y-70998456D01*
X198862812Y-71066376D01*
X198713512Y-71096073D01*
X198688742Y-71101000D01*
X198511258Y-71101000D01*
X198486488Y-71096073D01*
X198337188Y-71066376D01*
X198173216Y-70998456D01*
X198025646Y-70899853D01*
X197900147Y-70774354D01*
X197801544Y-70626784D01*
X197733624Y-70462812D01*
X197699000Y-70288741D01*
X197699000Y-70111259D01*
X197733624Y-69937188D01*
X197801544Y-69773216D01*
X197900147Y-69625646D01*
X198025646Y-69500147D01*
X198173216Y-69401544D01*
X198337188Y-69333624D01*
X198486488Y-69303927D01*
X198511258Y-69299000D01*
X198688742Y-69299000D01*
X198713512Y-69303927D01*
G37*
G36*
X202041000Y-71101000D02*
G01*
X200239000Y-71101000D01*
X200239000Y-69299000D01*
X202041000Y-69299000D01*
X202041000Y-71101000D01*
G37*
M02*
